<?xml version="1.0" encoding="UTF-8"?>
<svg width="42px" height="42px" viewBox="0 0 42 42" version="1.1" xmlns="http://www.w3.org/2000/svg" xmlns:xlink="http://www.w3.org/1999/xlink">
    <g id="页面-1" stroke="none" stroke-width="1" fill="none" fill-rule="evenodd">
        <g id="个人中心组件" transform="translate(-605.000000, -23.000000)">
            <g id="编组-113" transform="translate(605.000000, 23.000000)">
                <rect id="矩形备份-137" x="0" y="0" width="42" height="42"></rect>
                <g id="编组-112" transform="translate(5.250000, 5.250000)" fill="#96A2B2" fill-rule="nonzero" stroke="#96A2B2">
                    <path d="M31.5,15.75 C31.5,7.05170456 24.4482954,0 15.75,0 C7.05170456,0 0,7.05170456 0,15.75 C0,24.4482954 7.05170456,31.5 15.75,31.5 C24.4482954,31.5 31.5,24.4482954 31.5,15.75 Z M1.4318182,15.75 C1.4318182,7.8420682 7.8420682,1.4318182 15.75,1.4318182 C23.6579318,1.4318182 30.0681818,7.8420682 30.0681818,15.75 C30.0681818,23.6579318 23.6579318,30.0681818 15.75,30.0681818 C7.8420682,30.0681818 1.4318182,23.6579318 1.4318182,15.75 Z" id="形状备份" stroke-width="0.25"></path>
                    <g id="编组-111" transform="translate(7.000000, 7.000000)" stroke-width="0.2">
                        <path d="M3.22292527,16.4928525 C2.89537965,16.4928525 2.62036493,16.2703687 2.62036493,16.0077142 L2.62036493,8.33511265 C2.62036493,8.07245815 2.89537965,7.84997433 3.22292527,7.84997433 L1.78605062,7.84997433 C1.72733963,8.00138694 1.69334903,8.16515974 1.69334903,8.33511265 L1.69334903,16.0077142 C1.69334903,16.7864075 2.37934078,17.4198684 3.22292527,17.4198684 L8.10211889,17.4198684 L8.10211889,16.4928525 L3.22292527,16.4928525 L3.22292527,16.4928525 Z M14.5726898,8.33511265 L14.5726898,16.0077142 C14.5726898,16.2703687 14.2976751,16.4928525 13.9701295,16.4928525 L9.14964686,16.4928525 L9.14964686,17.4198684 L13.9701295,17.4198684 C14.8137139,17.4198684 15.4997057,16.7864075 15.4997057,16.0077142 L15.4997057,8.33511265 C15.4997057,8.16515974 15.4657151,8.00138694 15.4070041,7.84997433 L13.9701295,7.84997433 C14.2976751,7.84997433 14.5726898,8.07245815 14.5726898,8.33511265 L14.5726898,8.33511265 Z M15.8025309,3.23034514 L12.2551501,3.23034514 C11.7731018,3.54244049 11.2447028,3.78346461 10.7163037,3.93178718 C10.3516774,4.03375893 10.0055915,4.08319979 9.69040612,4.08319976 C9.49882282,4.08319976 9.31959977,4.06465945 9.1527369,4.02757881 L9.1527369,4.15736104 L15.8025309,4.15736104 C16.0528252,4.15736104 16.2660389,4.32113383 16.2660389,4.51889722 L16.2660389,6.56142225 C16.2660389,6.75609559 16.0559153,6.92295846 15.8025309,6.92295843 L13.9701295,6.92295843 C14.6283108,6.92295843 15.1907004,7.30921504 15.4070041,7.84997433 L15.8025309,7.84997433 C16.568864,7.84997433 17.1930548,7.27213443 17.1930548,6.56142225 L17.1930548,4.51889722 C17.1930548,3.80818504 16.568864,3.23034514 15.8025309,3.23034514 L15.8025309,3.23034514 Z" id="形状"></path>
                        <path d="M13.9732195,6.92295843 L9.1527369,6.92295843 L9.1527369,7.84997433 L15.4100942,7.84997433 C15.1937905,7.30921507 14.6314008,6.92295843 13.9732195,6.92295843 Z M3.22292527,6.92295843 L1.39052384,6.92295843 C1.14022955,6.92295843 0.927015904,6.75918564 0.927015904,6.56142225 L0.927015904,4.51889722 C0.927015904,4.32422388 1.13713951,4.15736101 1.39052384,4.15736104 L8.09902885,4.15736104 L8.09902885,4.07392959 C7.94761624,4.10483011 7.78693349,4.1202804 7.61389053,4.1202804 C7.28325487,4.1202804 6.92171865,4.06156941 6.54164214,3.94723744 C6.02869334,3.79273478 5.5188346,3.54244049 5.05532666,3.23034514 L1.39052384,3.23034514 C0.624190715,3.23034514 0,3.80818504 0,4.51889722 L0,6.56142225 C0,7.27213443 0.624190715,7.84997433 1.39052384,7.84997433 L1.78605062,7.84997433 C2.00235431,7.30921507 2.56474396,6.92295843 3.22292527,6.92295843 Z" id="形状"></path>
                        <path d="M8.10211889,7.84997433 L8.10211889,6.92295843 L3.22292527,6.92295843 C2.56474399,6.92295843 2.00235434,7.30921504 1.78605062,7.84997433 L8.10211889,7.84997433 Z M9.08475574,3.23034514 L12.2551501,3.23034514 C12.4343732,3.11292312 12.6074162,2.98623094 12.7711889,2.85335869 C13.4386404,2.30332926 14.0473808,1.7100391 13.9732195,1.08275834 C13.9330488,0.724312201 13.6858446,0.433847226 13.2439671,0.214453455 C12.5734256,-0.116182207 11.4270159,-0.22742413 9.77692762,1.12601907 C9.30414951,1.51227568 8.89626252,1.84909146 8.60888759,2.16736691 C8.94570338,2.53508321 9.1341966,2.87498905 9.08475574,3.23034514 L9.08475574,3.23034514 Z M9.42466157,2.65868535 C9.65641556,2.43002144 9.97469101,2.16427687 10.3671277,1.83982129 C11.0654797,1.26507143 12.0604768,0.659421056 12.83299,1.04258765 C12.9874927,1.11983898 13.0369335,1.17545992 13.0523838,1.19091018 C13.0462037,1.24035104 12.9689523,1.48755528 12.1809888,2.13646639 C11.0994703,3.02331161 9.72439672,3.33540694 9.16200707,3.05730217 C9.14037669,3.04803201 9.12492643,3.03876187 9.10947617,3.0294917 C9.14655681,2.97078071 9.22689818,2.85644874 9.42466157,2.65868535 L9.42466157,2.65868535 Z M9.1527369,4.02757881 C9.31959977,4.06465945 9.49882282,4.08319976 9.69040612,4.08319976 C10.0055915,4.08319976 10.3516774,4.0337589 10.7163037,3.93178718 C11.2447028,3.78346464 11.7731018,3.54244049 12.2551501,3.23034514 L9.1527369,3.23034514 L9.1527369,4.02757881 Z" id="形状"></path>
                        <path d="M8.18246027,3.23034514 C8.17628017,3.20562471 8.1731901,3.18399433 8.17319013,3.16236398 C8.13301944,2.82245814 8.3060624,2.5041827 8.61506768,2.16427687 C8.34314301,1.86145168 7.97233666,1.54317623 7.54590937,1.17545992 C5.94526193,-0.208883794 4.80812242,-0.122362329 4.13449088,0.195913119 C3.68952325,0.406036722 3.43922896,0.690321606 3.38978811,1.0456777 C3.30326661,1.66986841 3.89037668,2.27242871 4.53619778,2.83172831 C4.69997057,2.97387076 4.87610361,3.10674303 5.05532666,3.23034514 L8.18246027,3.23034514 L8.18246027,3.23034514 Z M5.1449382,2.13337635 C4.38478517,1.47519507 4.31680401,1.23108087 4.31062392,1.17854997 C4.32298413,1.16309971 4.37551503,1.10747876 4.53001766,1.03331748 C5.29944086,0.67178127 6.26662742,1.29288194 6.94025899,1.87690194 C7.32033551,2.20444755 7.62625074,2.47328215 7.8518246,2.70812618 C8.0434079,2.90588956 8.11756915,3.02331158 8.1484697,3.0820226 C8.13610949,3.08820269 8.11756918,3.09747286 8.09902885,3.10983307 C7.5366392,3.37248758 6.18628605,3.03567179 5.1449382,2.13337635 L5.1449382,2.13337635 Z" id="形状"></path>
                        <path d="M7.61698057,4.12337044 C7.78693349,4.12337044 7.95070628,4.10792018 8.10211889,4.07701967 L8.10211889,3.23343518 L5.05841671,3.23343518 C5.52192464,3.54862058 6.03487344,3.79582483 6.54473221,3.95032748 C6.92480873,4.06465945 7.28943499,4.12337044 7.61698057,4.12337044 L7.61698057,4.12337044 Z M8.17319013,3.16545402 C8.17628017,3.1870844 8.17937022,3.20871475 8.18246027,3.23343518 L9.08784579,3.23343518 C9.1341966,2.87807909 8.94879339,2.53817326 8.61506768,2.16736691 C8.30297233,2.50727274 8.13301941,2.82554819 8.17319013,3.16545402 L8.17319013,3.16545402 Z M8.10211889,7.84997433 L8.10211889,17.4198684 L8.27711889,17.4198684 L8.27711889,7.84997433 L8.10211889,7.84997433 Z M9.2041348,7.84997433 L9.0291348,7.84997433 L9.0291348,17.4198684 L9.2041348,17.4198684 L9.2041348,16.4928525 L9.2041348,7.84997433 Z M9.0291348,7.84997433 L8.22572103,7.84997433 L8.22572103,17.4198684 L9.0291348,17.4198684 L9.0291348,7.84997433 Z M9.0291348,6.92295843 L9.2041348,6.92295843 L9.2041348,4.02757881 C9.1428848,4.01830864 9.0860098,4.00594843 9.0291348,3.99667829 L9.0291348,6.92295843 Z M8.27711889,4.04611912 C8.2202439,4.05847933 8.15899392,4.0677495 8.10211889,4.07701967 L8.10211889,6.92604851 L8.27711889,6.92604851 L8.27711889,4.04611912 Z M8.67377871,3.84835573 C8.62124781,3.88234632 8.55944674,3.91633689 8.49146558,3.95032748 C8.40803416,3.99049817 8.31842262,4.02139869 8.22572103,4.04611912 L8.22572103,6.92604851 L9.0291348,6.92604851 L9.0291348,3.99976834 C8.93334316,3.97195786 8.84064158,3.93796727 8.75412008,3.89470654 C8.72630961,3.87616623 8.69849913,3.86071594 8.67377871,3.84835573 L8.67377871,3.84835573 Z" id="形状"></path>
                        <path d="M9.10916974,3.23034514 L9.10916974,3.23652526 C9.09604472,3.29832633 9.07416973,3.36939753 9.02604475,3.44046874 L9.02604475,3.99358822 C9.08291975,4.00594843 9.14416975,4.0152186 9.20104475,4.02448877 L9.20104475,3.22725509 L9.10916974,3.22725509 L9.10916974,3.23034514 Z" id="路径"></path>
                        <path d="M9.12020067,4.51239642 C9.16422584,4.5444477 9.21375413,4.57649897 9.26878556,4.60214006 C9.42287363,4.69188363 9.58246478,4.76239648 9.75856543,4.82008878 L9.75856543,3.67265282 C9.64850252,3.94829384 9.45589248,4.24957589 9.12020067,4.51239642 Z M8.32224471,3.52521694 C8.28922586,3.42265283 8.2617101,3.32649901 8.24520065,3.23034514 L8.10211889,3.23034514 L8.10211889,4.98034514 C8.1791629,4.96111435 8.25070378,4.94188362 8.32224471,4.91624259 L8.32224471,3.52521694 L8.32224471,3.52521694 Z M9.12020067,4.51239642 C8.66894283,4.21111437 8.43781075,3.85855027 8.32224471,3.52521694 L8.32224471,4.92265283 C8.48733904,4.87137078 8.64693025,4.80085799 8.79551513,4.7239349 C8.91658431,4.65342206 9.02114408,4.58290927 9.12020067,4.51239642 L9.12020067,4.51239642 Z M9.92255917,3.24316568 L9.92255917,3.23034514 L9.74755917,3.23034514 L9.74755917,3.66624257 C9.84887502,3.5188067 9.90413816,3.37137077 9.92255917,3.24316568 Z" id="形状"></path>
                        <path d="M8.41094242,3.23034514 L8.23594242,3.23034514 C8.27344243,3.28360599 8.32344242,3.34447556 8.41094242,3.40534514 L8.41094242,3.23034514 L8.41094242,3.23034514 Z M9.0543248,3.84835573 C9.37344247,3.72166354 9.54844247,3.57643106 9.64623656,3.44355878 L9.64623656,3.23343518 L8.30800128,3.23343518 L8.30800128,3.37557762 C8.41608951,3.53008028 8.63226599,3.70312324 9.0543248,3.84835573 Z M9.64623656,6.92295843 L9.85211889,6.92295843 L9.85211889,7.84997433 L9.64623656,7.84997433 L9.64623656,6.92295843 Z M8.10211889,6.92295843 L8.30800128,6.92295843 L8.30800128,7.84997433 L8.10211889,7.84997433 L8.10211889,6.92295843 Z M8.30800128,6.92295843 L9.64623656,6.92295843 L9.64623656,7.84997433 L8.30800128,7.84997433 L8.30800128,6.92295843 Z" id="形状"></path>
                    </g>
                </g>
            </g>
        </g>
    </g>
</svg>