<?xml version="1.0" encoding="UTF-8"?>
<svg width="42px" height="42px" viewBox="0 0 42 42" version="1.1" xmlns="http://www.w3.org/2000/svg" xmlns:xlink="http://www.w3.org/1999/xlink">
    <g id="页面-1" stroke="none" stroke-width="1" fill="none" fill-rule="evenodd">
        <g id="个人中心组件" transform="translate(-491.000000, -23.000000)">
            <g id="编组-115" transform="translate(491.000000, 23.000000)">
                <rect id="矩形备份-136" x="0" y="0" width="42" height="42"></rect>
                <g id="编组-109" transform="translate(5.250000, 5.250000)" fill="#96A2B2" fill-rule="nonzero" stroke="#96A2B2">
                    <path d="M31.5,15.75 C31.5,7.05170456 24.4482954,0 15.75,0 C7.05170456,0 0,7.05170456 0,15.75 C0,24.4482954 7.05170456,31.5 15.75,31.5 C24.4482954,31.5 31.5,24.4482954 31.5,15.75 Z M1.4318182,15.75 C1.4318182,7.8420682 7.8420682,1.4318182 15.75,1.4318182 C23.6579318,1.4318182 30.0681818,7.8420682 30.0681818,15.75 C30.0681818,23.6579318 23.6579318,30.0681818 15.75,30.0681818 C7.8420682,30.0681818 1.4318182,23.6579318 1.4318182,15.75 Z" id="形状" stroke-width="0.25"></path>
                    <path d="M16.1489882,5.35238337 C19.4433931,7.83485935 21.9144218,11.6182935 22.7834791,15.2304865 C23.1074588,16.5781698 23.2101963,17.9071342 23.0524182,19.1405967 C22.8904644,20.4010574 22.4585636,21.5607605 21.7161822,22.5450467 C20.7568425,23.8190426 19.285579,24.7887497 17.217365,25.2860944 C16.9452941,25.3504583 16.6722513,25.1822769 16.6078873,24.9112859 C16.5684338,24.7451924 16.6151228,24.5800708 16.7189763,24.4607382 C18.108201,22.8783857 17.4063531,22.1879131 16.6006158,21.3957469 C15.5966029,20.4083289 14.4763173,19.3067262 15.2487927,17.098337 C12.1682504,19.628582 13.3394008,22.6073588 14.0412846,23.9021254 C14.1721004,24.1429862 14.273866,24.3080719 14.3423697,24.4191609 C14.3652283,24.4565265 14.3828672,24.4866566 14.4192249,24.5499767 C14.5583202,24.7918815 14.4752734,25.101282 14.2323607,25.2404493 C14.1129202,25.308989 13.9758768,25.3234961 13.8523325,25.2913141 C13.3238138,25.1511389 12.8441799,24.974642 12.4091113,24.768051 C10.6658848,23.9384831 9.63692552,22.6281655 9.13238123,21.1890839 C8.63395652,19.7666693 8.65577114,18.2217544 9.00779302,16.8990176 C9.12201385,16.4701765 9.27147646,16.0631861 9.44800934,15.6915095 C9.49372647,15.5938836 9.62036652,15.3592504 9.74909442,15.1349845 C9.85082402,14.9553558 9.95676536,14.7778149 10.0315327,14.6698217 C10.1104037,14.5556009 10.217389,14.4175136 10.345073,14.25142 C11.0074673,13.3948179 12.2928385,11.7315064 12.0271032,10.1990467 C11.9793342,9.9228721 12.1651546,9.66124053 12.4413292,9.61343554 C12.6250977,9.58229749 12.8026745,9.653933 12.9148074,9.78683664 C13.1183026,9.99342766 14.0641792,11.0275346 14.3122756,12.6275261 C14.6601217,11.9464129 14.9155257,11.1978039 15.0961623,10.449231 C15.5519657,8.56474947 15.5374586,6.70733822 15.3494784,5.86527913 C15.2892902,5.59223628 15.4616114,5.32221726 15.7346902,5.26202905 C15.8852327,5.22880315 16.0347673,5.2661688 16.1489882,5.35238337 Z M16.4749837,6.92436851 C16.5082096,7.96365917 16.4095758,9.32797344 16.0804484,10.687068 C15.7346902,12.11985 15.133492,13.5619913 14.1637849,14.649087 C14.0485561,14.7872103 13.8637078,14.8608977 13.6747556,14.823532 C13.3995889,14.7695354 13.2210401,14.5037281 13.2739928,14.2285974 C13.4878554,13.1457134 13.2573619,12.2507377 12.953145,11.6080341 C12.6198779,12.9639969 11.695816,14.1600937 11.1465625,14.871301 C11.027194,15.0249753 10.9274803,15.1547112 10.8641243,15.2450655 C10.8101277,15.3250165 10.7198093,15.476639 10.629455,15.6344171 C10.5142623,15.8368683 10.4031372,16.0424514 10.3647277,16.1244543 C10.2131412,16.4421343 10.0864651,16.7899804 9.98783136,17.1575173 C9.68260653,18.3037933 9.66179985,19.6369335 10.089597,20.8558169 C10.5101225,22.0570973 11.3739242,23.1524725 12.8420199,23.8512246 L12.8897889,23.8740831 C11.9678149,21.8972314 11.0312978,18.0431696 16.3139657,15.1775337 C16.4707358,15.093443 16.6669955,15.093443 16.8279054,15.1962165 C17.0646265,15.3457151 17.1352181,15.6592914 16.9846755,15.8960125 C15.2415212,18.6381042 16.3451758,19.72412 17.3107791,20.6730923 C18.2379368,21.584663 19.0706725,22.4038995 18.3718844,23.8491367 C19.4755751,23.3808781 20.3103626,22.7247113 20.9063051,21.9335171 C21.5396493,21.0945898 21.9082301,20.0989284 22.0473614,19.0139206 C22.1906324,17.9029944 22.0950944,16.6965303 21.799193,15.4641117 C21.067179,12.420971 19.1152377,9.24071492 16.4749837,6.92436851 Z" id="形状结合" stroke-width="0.2"></path>
                </g>
            </g>
        </g>
    </g>
</svg>