<?xml version="1.0" encoding="UTF-8"?>
<svg width="24px" height="24px" viewBox="0 0 24 24" version="1.1" xmlns="http://www.w3.org/2000/svg" xmlns:xlink="http://www.w3.org/1999/xlink">
    <title>编组 98备份 2</title>
    <g id="页面-1" stroke="none" stroke-width="1" fill="none" fill-rule="evenodd">
        <g id="头部下拉" transform="translate(-1212.000000, -335.000000)">
            <g id="编组-98备份-2" transform="translate(1212.000000, 335.000000)">
                <rect id="矩形备份-133" x="0" y="0" width="24" height="24"></rect>
                <g id="编组-95" transform="translate(3.000000, 3.000000)" fill-rule="nonzero">
                    <path d="M15.3,9.675 C15.795,9.71999999 16.245,9.85499999 16.65,10.035 L16.65,9.675 C16.65,6.39000001 14.715,3.51 11.925,2.16 C11.925,2.655 11.79,3.105 11.61,3.51 C13.815,4.68 15.3,7.01999999 15.3,9.675 Z M1.39499999,10.17 C1.39499999,9.99000001 1.35,9.81 1.35,9.675 C1.35,7.01999999 2.835,4.68 5.03999999,3.51 C4.86,3.105 4.725,2.655 4.725,2.16 C1.93499999,3.51 0,6.39000001 0,9.675 C0,10.035 0.0449999929,10.35 0.0899999859,10.71 C0.449999993,10.44 0.899999985,10.26 1.39499999,10.17 Z M12.24,15.48 C11.115,16.245 9.76499999,16.65 8.32499998,16.65 C7.10999998,16.65 5.98499999,16.335 4.94999998,15.795 C4.67999998,16.2 4.31999998,16.515 3.95999999,16.74 C5.21999998,17.505 6.70499998,18 8.32499998,18 C10.17,18 11.88,17.37 13.23,16.38 C12.87,16.155 12.51,15.84 12.24,15.48 L12.24,15.48 Z" id="形状" fill="#FFFFFF"></path>
                    <path d="M6.29999998,2.025 C6.29999998,3.14337662 7.20662336,4.05 8.32499998,4.05 C9.4433766,4.05 10.35,3.14337662 10.35,2.025 C10.35,0.906623381 9.4433766,0 8.32499998,0 C7.20662336,0 6.29999998,0.906623381 6.29999998,2.025 Z" id="路径" fill="#FFFFFF"></path>
                    <path d="M0,13.725 C0,14.4484628 0.385962801,15.1169701 1.01249999,15.4787015 C1.63903717,15.8404329 2.41096282,15.8404329 3.03750001,15.4787015 C3.6640372,15.1169701 4.05,14.4484628 4.05,13.725 C4.05,12.6066234 3.14337662,11.7 2.025,11.7 C0.906623381,11.7 0,12.6066234 0,13.725 L0,13.725 Z" id="路径" fill="#FFFFFF"></path>
                    <path d="M13.05,13.275 C13.05,14.3933766 13.9566234,15.3 15.075,15.3 C16.1933766,15.3 17.1,14.3933766 17.1,13.275 C17.1,12.1566234 16.1933766,11.25 15.075,11.25 C13.9566234,11.25 13.05,12.1566234 13.05,13.275 Z" id="路径" fill="#FFFFFF"></path>
                    <path d="M4.67999998,10.98 L4.67999998,11.115 C4.67999998,11.34 4.81499998,11.475 5.03999999,11.475 C5.21999998,11.475 5.35499998,11.385 5.44499999,11.205 L5.62499998,10.71 L7.10999998,10.71 L7.24499998,11.205 C7.33499999,11.385 7.46999999,11.475 7.64999998,11.475 C7.87499999,11.475 8.00999999,11.385 8.00999999,11.16 C8.00999999,11.115 8.00999999,11.025 7.96499999,10.935 L6.92999999,8.01000001 C6.79499999,7.69500002 6.61499999,7.55999999 6.345,7.55999999 C6.075,7.55999999 5.895,7.73999999 5.75999998,8.01000001 L4.67999998,10.98 L4.67999998,10.98 Z M6.345,8.41500001 L6.83999998,9.98999999 L5.84999999,9.98999999 L6.345,8.41500001 L6.345,8.41500001 Z M8.68499999,7.60500001 C8.41499999,7.60500001 8.27999999,7.74000001 8.27999999,8.01000001 L8.27999999,11.07 C8.27999999,11.34 8.41499999,11.43 8.68499999,11.43 C8.95499999,11.43 9.08999999,11.295 9.08999999,11.07 L9.08999999,10.17 L9.67499998,10.17 C10.53,10.125 10.98,9.675 11.025,8.865 C10.98,8.055 10.53,7.65 9.67499998,7.55999999 L8.68499999,7.55999999 L8.68499999,7.60500001 Z M10.17,8.90999999 C10.125,9.27 9.94499998,9.44999999 9.62999999,9.49500001 L9.08999999,9.49500001 L9.08999999,8.36999999 L9.62999999,8.36999999 C9.98999999,8.36999999 10.17,8.54999999 10.17,8.90999999 L10.17,8.90999999 Z M11.655,11.475 C11.925,11.475 12.06,11.34 12.06,11.115 L12.06,8.055 C12.06,7.785 11.925,7.65 11.655,7.65 C11.385,7.65 11.25,7.785 11.25,8.055 L11.25,11.115 C11.295,11.34 11.43,11.475 11.655,11.475 Z" id="形状" fill="#90ff00"></path>
                </g>
            </g>
        </g>
    </g>
</svg>