<?xml version="1.0" encoding="UTF-8"?>
<svg width="24px" height="24px" viewBox="0 0 24 24" version="1.1" xmlns="http://www.w3.org/2000/svg" xmlns:xlink="http://www.w3.org/1999/xlink">
    <title>编组 145</title>
    <g id="页面-1" stroke="none" stroke-width="1" fill="none" fill-rule="evenodd">
        <g id="头部下拉" transform="translate(-1467.000000, -91.000000)">
            <g id="编组-145" transform="translate(1467.000000, 91.000000)">
                <g id="编组-144" transform="translate(3.000000, 3.000000)">
                    <rect id="矩形" x="0" y="0" width="18" height="18"></rect>
                    <g id="编组-6">
                        <path d="M12.7684675,2.66482176 C11.8971674,2.66482176 11.2142662,3.37140736 11.2142662,4.219023 C11.2142662,5.09032307 11.9208518,5.77322424 12.7684675,5.77322424 C13.6160831,5.77322424 14.3226687,5.0669975 14.3226687,4.219023 C14.3226687,3.37140736 13.6160831,2.66482176 12.7684675,2.66482176 M12.7684675,3.2537029 C13.3099797,3.2537029 13.7341464,3.67751072 13.7341464,4.219023 C13.7341464,4.76053528 13.3099797,5.18470195 12.7684675,5.18470195 C12.2269552,5.18470195 11.8027885,4.76053528 11.8027885,4.219023 C11.8027885,3.7008363 12.2269552,3.2537029 12.7684675,3.2537029" id="Fill-80" fill="#90ff00"></path>
                        <path d="M14.8408195,8.10470554 C14.6459612,8.10470554 14.4877061,7.94680931 14.4877061,7.75159216 C14.4877061,6.81641589 13.7269334,6.05600203 12.792116,6.05600203 C11.8572986,6.05600203 11.0965259,6.81641589 11.0965259,7.75159216 C11.0965259,7.94680931 10.9382708,8.10470554 10.7434125,8.10470554 C10.5481953,8.10470554 10.3899403,7.94680931 10.3899403,7.75159216 C10.3899403,6.42705816 11.467582,5.34941642 12.792116,5.34941642 C14.1162912,5.34941642 15.1939329,6.42705816 15.1939329,7.75159216 C15.1939329,7.94680931 15.0356778,8.10470554 14.8408195,8.10470554" id="Fill-81" fill="#90ff00"></path>
                        <path d="M5.18481946,9.74442194 C4.31351939,9.74442194 3.63061822,10.4510075 3.63061822,11.2986232 C3.63061822,12.1699233 4.33720382,12.8528244 5.18481946,12.8528244 C6.0324351,12.8528244 6.73902071,12.1465977 6.73902071,11.2986232 C6.73902071,10.4510075 6.0324351,9.74442194 5.18481946,9.74442194 M5.18481946,10.3333031 C5.72633174,10.3333031 6.15049842,10.7571109 6.15049842,11.2986232 C6.15049842,11.8401355 5.72633174,12.2643021 5.18481946,12.2643021 C4.64330718,12.2643021 4.21914051,11.8401355 4.21914051,11.2986232 C4.21914051,10.7804365 4.64330718,10.3333031 5.18481946,10.3333031" id="Fill-82" fill="#90ff00"></path>
                        <path d="M7.25717152,15.1843775 C7.06231323,15.1843775 6.90405815,15.0264813 6.90405815,14.8312641 C6.90405815,13.8960878 6.14328543,13.1353151 5.20846801,13.1353151 C4.27365059,13.1353151 3.51287788,13.8960878 3.51287788,14.8312641 C3.51287788,15.0264813 3.3546228,15.1843775 3.1597645,15.1843775 C2.96454735,15.1843775 2.80629227,15.0264813 2.80629227,14.8312641 C2.80629227,13.5063713 3.883934,12.4287295 5.20846801,12.4287295 C6.53264317,12.4287295 7.6102849,13.5063713 7.6102849,14.8312641 C7.6102849,15.0264813 7.45202982,15.1843775 7.25717152,15.1843775" id="Fill-83" fill="#90ff00"></path>
                        <path d="M6.06498326,5.7644323 L1.36398203,5.7644323 C1.06649119,5.7644323 0.82569945,5.5232817 0.82569945,5.22614971 C0.82569945,4.92901773 1.06649119,4.68786713 1.36398203,4.68786713 L6.06498326,4.68786713 C6.3624741,4.68786713 6.60326584,4.92901773 6.60326584,5.22614971 C6.60326584,5.5232817 6.3624741,5.7644323 6.06498326,5.7644323" id="Fill-84" fill="#000000"></path>
                        <path d="M2.15278133,6.84099746 C2.05014878,6.84099746 1.94643967,6.8119302 1.85457278,6.75056599 L0.23972503,5.67400082 C0.0911590372,5.57495683 0.00144527337,5.40880694 0,5.23045597 C-0.00106671202,5.05174616 0.0861350664,4.88416084 0.232906784,4.78296372 L1.84775453,3.67015419 C2.09285254,3.50221003 2.42802316,3.56321539 2.59668503,3.80831339 C2.76534691,4.05269368 2.70362384,4.38822316 2.45888469,4.55688503 L1.49787085,5.21861376 L2.45170759,5.85486377 C2.69931758,6.01993709 2.76606462,6.35403115 2.60135015,6.60128228 C2.49728218,6.75702538 2.32682603,6.84099746 2.15278133,6.84099746" id="Fill-85" fill="#FFFFFF"></path>
                        <path d="M8.1222634,5.7644323 L1.36394615,5.7644323 C1.06645531,5.7644323 0.825663564,5.5232817 0.825663564,5.22614971 C0.825663564,4.92901773 1.06645531,4.68786713 1.36394615,4.68786713 L8.1222634,4.68786713 C8.41975424,4.68786713 8.66054599,4.92901773 8.66054599,5.22614971 C8.66054599,5.5232817 8.41975424,5.7644323 8.1222634,5.7644323" id="Fill-86" fill="#FFFFFF"></path>
                        <path d="M12.7919366,1.07656517 C10.5139247,1.07656517 8.66043833,2.93005153 8.66043833,5.20842227 C8.66043833,7.48607531 10.5139247,9.33956167 12.7919366,9.33956167 C15.0699485,9.33956167 16.9234348,7.48607531 16.9234348,5.20842227 C16.9234348,2.93005153 15.0699485,1.07656517 12.7919366,1.07656517 M7.58387316,5.20842227 C7.58387316,2.33650527 9.92037843,0 12.7919366,0 C15.6634947,0 18,2.33650527 18,5.20842227 C18,8.07998043 15.6634947,10.4161268 12.7919366,10.4161268 C9.92037843,10.4161268 7.58387316,8.07998043 7.58387316,5.20842227 Z" id="Fill-87" fill="#FFFFFF"></path>
                        <path d="M16.5658717,13.2671226 L11.8648704,13.2671226 C11.5673796,13.2671226 11.3265878,13.025972 11.3265878,12.72884 C11.3265878,12.431708 11.5673796,12.1905574 11.8648704,12.1905574 L16.5658717,12.1905574 C16.8633625,12.1905574 17.1041542,12.431708 17.1041542,12.72884 C17.1041542,13.025972 16.8633625,13.2671226 16.5658717,13.2671226" id="Fill-88" fill="#000000"></path>
                        <path d="M15.776857,14.3436878 C15.6028123,14.3436878 15.4323562,14.2597157 15.3282882,14.1039726 C15.1635738,13.8567214 15.2303208,13.5226274 15.4779308,13.3575541 L16.4317675,12.7213041 L15.4707537,12.0599342 C15.2260145,11.8912723 15.1642915,11.5557428 15.3329533,11.3113625 C15.5016152,11.0662645 15.8367858,11.0049003 16.0818838,11.1732033 L17.6967316,12.285654 C17.8435033,12.3868511 17.9307051,12.5544365 17.9296384,12.7331463 C17.9281931,12.9114972 17.8384793,13.0776471 17.6899133,13.1766911 L16.0750656,14.2532563 C15.9831987,14.3146205 15.8794896,14.3436878 15.776857,14.3436878" id="Fill-89" fill="#FFFFFF"></path>
                        <path d="M16.5658717,13.2671226 L9.87824885,13.2671226 C9.58075801,13.2671226 9.33996626,13.025972 9.33996626,12.72884 C9.33996626,12.431708 9.58075801,12.1905574 9.87824885,12.1905574 L16.5658717,12.1905574 C16.8633625,12.1905574 17.1041542,12.431708 17.1041542,12.72884 C17.1041542,13.025972 16.8633625,13.2671226 16.5658717,13.2671226" id="Fill-90" fill="#FFFFFF"></path>
                        <path d="M5.20832447,17.9189248 C2.33676632,17.9189248 0.000261051689,15.5824195 0.000261051689,12.7108614 C0.000261051689,10.19134 1.79704831,8.03641542 4.27243049,7.58677004 C4.5645385,7.53365949 4.8448043,7.72780007 4.8982737,8.01990809 C4.95138425,8.31237496 4.75724366,8.59299961 4.46477679,8.64575131 C2.50183964,9.00245323 1.07682622,10.7120387 1.07682622,12.7108614 C1.07682622,14.9888733 2.92995372,16.8423596 5.20832447,16.8423596 C7.48669522,16.8423596 9.33982272,14.9888733 9.33982272,12.7108614 C9.33982272,12.3832267 9.30142523,12.0573863 9.22570681,11.7415939 C9.15644779,11.4527155 9.3344399,11.162043 9.62367707,11.0927839 C9.91255539,11.0228072 10.203228,11.2011582 10.272487,11.4907542 C10.3679425,11.8880067 10.4163879,12.2988958 10.4163879,12.7108614 C10.4163879,15.5824195 8.07988262,17.9189248 5.20832447,17.9189248" id="Fill-91" fill="#FFFFFF"></path>
                    </g>
                </g>
                <rect id="矩形备份-70" x="0" y="0" width="24" height="24"></rect>
            </g>
        </g>
    </g>
</svg>