<?xml version="1.0" encoding="UTF-8"?>
<svg width="24px" height="24px" viewBox="0 0 24 24" version="1.1" xmlns="http://www.w3.org/2000/svg" xmlns:xlink="http://www.w3.org/1999/xlink">
    <title>编组 14</title>
    <g id="页面-1" stroke="none" stroke-width="1" fill="none" fill-rule="evenodd">
        <g id="头部下拉" transform="translate(-1690.000000, -241.000000)">
            <g id="编组-14" transform="translate(1690.000000, 241.000000)">
                <rect id="矩形备份-68" x="0" y="0" width="24" height="24"></rect>
                <g id="编组-47" transform="translate(2.000000, 2.000000)" fill-rule="nonzero">
                    <path d="M10,0 C15.5230769,0 20,4.47692308 20,10 C20,15.5230769 15.5230769,20 10,20 C4.47692308,20 0,15.5230769 0,10 C0,4.47692308 4.47692308,0 10,0 Z M10,1.53846154 C5.32666666,1.53846154 1.53846154,5.32666666 1.53846154,10 C1.53846154,14.6733333 5.32666666,18.4615385 10,18.4615385 C14.6733333,18.4615385 18.4615385,14.6733333 18.4615385,10 C18.4615385,5.32666666 14.6733333,1.53846154 10,1.53846154 Z" id="形状结合" stroke="#FFFFFF" stroke-width="0.4" fill="#FFFFFF"></path>
                    <path d="M10.706966,5.99311987 L14.0065986,9.29275247 C14.3971229,9.68327676 14.3971229,10.3164417 14.0065986,10.706966 L10.706966,14.0065986 C10.3164417,14.3971229 9.68327676,14.3971229 9.29275247,14.0065986 L5.99311987,10.706966 C5.60259558,10.3164417 5.60259558,9.68327676 5.99311987,9.29275247 L9.29275247,5.99311987 C9.68327676,5.60259558 10.3164417,5.60259558 10.706966,5.99311987 Z M9.99966667,7.46166667 L7.46139771,10.0003721 L9.99985925,12.5383208 L12.5372951,9.99985925 L9.99966667,7.46166667 Z" id="形状结合" stroke="#90ff00" stroke-width="0.2" fill="#90ff00"></path>
                </g>
            </g>
        </g>
    </g>
</svg>