<?xml version="1.0" encoding="UTF-8"?>
<svg width="24px" height="24px" viewBox="0 0 24 24" version="1.1" xmlns="http://www.w3.org/2000/svg" xmlns:xlink="http://www.w3.org/1999/xlink">
    <g id="页面-1" stroke="none" stroke-width="1" fill="none" fill-rule="evenodd">
        <g id="资产组件" transform="translate(-196.000000, -294.000000)" fill="#90ff00" fill-rule="nonzero">
            <g id="编组-61备份" transform="translate(208.000000, 306.000000) rotate(-90.000000) translate(-208.000000, -306.000000) translate(196.000000, 294.000000)">
                <path d="M12,0 C5.37171286,0 0,5.37313433 0,12 C0,18.6268657 5.37313433,24 12,24 C18.6268657,24 24,18.6268657 24,12 C24,5.37313433 18.6282871,0 12,0 Z" id="路径" opacity="0.2"></path>
                <path d="M5.24235963,8.0909737 L9.73134328,4.47761194 C10.0071073,4.25586354 10.4179104,4.45202559 10.4179104,4.80597015 L10.4179104,7.17128643 L14.1805259,7.17128643 C15.4584222,7.17128643 18.4122246,7.34896944 18.9140014,10.8855721 C18.9395878,11.0646766 18.7149964,11.1684435 18.594172,11.0334044 C17.9232409,10.2771855 17.127221,9.70575693 15.5664534,9.70575693 L10.4179104,9.70575693 L10.4179104,12.0312722 C10.4179104,12.3852168 10.0071073,12.5828003 9.73134328,12.3596304 L5.24235963,8.74769012 C5.14264654,8.66786738 5.08460709,8.54705963 5.08460709,8.41933191 C5.08460709,8.29160419 5.14264654,8.17079644 5.24235963,8.0909737 L5.24235963,8.0909737 Z" id="路径"></path>
                <path d="M18.7590618,15.5707178 L14.2700782,19.1840796 C13.9943141,19.405828 13.583511,19.209666 13.583511,18.8557214 L13.583511,16.4904051 L9.82089552,16.4904051 C8.54299929,16.4904051 5.58919687,16.3127221 5.08742004,12.7761194 C5.06183369,12.5970149 5.28642502,12.493248 5.40724947,12.6282871 C6.07818053,13.384506 6.87420043,13.9559346 8.43496802,13.9559346 L13.583511,13.9559346 L13.583511,11.6275764 C13.583511,11.2736318 13.9943141,11.0760483 14.2700782,11.2992182 L18.7590618,14.91258 C18.8581924,14.9930686 18.9157564,15.1139567 18.9157564,15.2416489 C18.9157564,15.3693411 18.8581924,15.4902292 18.7590618,15.5707178 Z" id="路径"></path>
            </g>
        </g>
    </g>
</svg>