<?xml version="1.0" encoding="UTF-8"?>
<svg width="24px" height="24px" viewBox="0 0 24 24" version="1.1" xmlns="http://www.w3.org/2000/svg" xmlns:xlink="http://www.w3.org/1999/xlink">
    <g id="页面-1" stroke="none" stroke-width="1" fill="none" fill-rule="evenodd">
        <g id="OTC切图" transform="translate(-239.000000, -39.000000)">
            <g id="编组-9" transform="translate(239.000000, 39.000000)">
                <rect id="矩形备份-6" x="0" y="0" width="24" height="24"></rect>
                <g id="编组" transform="translate(3.000000, 3.000000)" fill="#666666" fill-rule="nonzero">
                    <path d="M7.1604323,6.95564815 C7.56859797,6.95564815 7.77338214,7.1604323 7.77338214,7.56859799 L7.77338214,8.7959003 C7.77338214,9.2054686 7.56859799,9.41025276 7.1604323,9.41025276 C6.75086399,9.41025276 6.54607984,9.2054686 6.54607984,8.7959003 L6.54607984,7.57000063 C6.54607984,7.16183495 6.75086399,6.95705078 7.1604323,6.95705078 L7.1604323,6.95564815 Z M11.2505049,6.95564815 C11.6600732,6.95564815 11.8648574,7.1604323 11.8648574,7.56859799 L11.8648574,8.7959003 C11.8648574,9.2054686 11.6600732,9.41025276 11.2505049,9.41025276 C10.8423392,9.41025276 10.6375551,9.2054686 10.6375551,8.7959003 L10.6375551,7.57000063 C10.6375551,7.16183495 10.8423392,6.95705078 11.2505049,6.95705078 L11.2505049,6.95564815 Z" id="形状"></path>
                    <path d="M15.4948669,15.2339775 C17.1063102,13.5594812 18.0044798,11.3246179 17.9999832,9.00068445 C17.9945565,4.0325337 13.9688343,0.00618404709 9.00068445,0 C4.03134654,0.00386749931 0.00386749931,4.03134654 0,9.00068445 C0.00541126632,13.9693821 4.03198684,17.9959576 9.00068445,18.0013689 L15.5579853,18.0013689 C15.8015695,18.2930094 16.2135246,18.3792564 16.5536401,18.2098192 C16.8937555,18.040382 17.0730442,17.6595919 16.9869631,17.2894872 C16.9008819,16.9193824 16.5719531,16.6567965 16.1919747,16.6548429 M14.3264752,16.6828956 L9.00068445,16.6828956 C4.76015904,16.6774862 1.32388265,13.2412099 1.31847332,9.00068445 C1.32388265,4.76015904 4.76015904,1.32388265 9.00068445,1.31847332 C13.2417576,1.32311 16.6788872,4.75961221 16.6843122,9.00068445 C16.6880934,10.9846125 15.9205782,12.8923355 14.543883,14.3208646 C13.9281279,14.9590618 13.9786226,15.8413168 14.3250725,16.6842982 L14.3264752,16.6828956 Z" id="形状"></path>
                </g>
            </g>
        </g>
    </g>
</svg>