<?xml version="1.0" encoding="UTF-8"?>
<svg width="25px" height="24px" viewBox="0 0 25 24" version="1.1" xmlns="http://www.w3.org/2000/svg" xmlns:xlink="http://www.w3.org/1999/xlink">
    <g id="页面-1" stroke="none" stroke-width="1" fill="none" fill-rule="evenodd">
        <g id="一键买币组件" transform="translate(-598.000000, -27.000000)">
            <g id="编组-10备份" transform="translate(598.494796, 27.000000)">
                <g id="编组-4备份">
                    <rect id="矩形备份-2" x="0" y="0" width="24" height="24"></rect>
                </g>
                <g id="编组" transform="translate(3.000000, 6.000000)" fill="#90ff00" fill-rule="nonzero">
                    <path d="M5.94815548,12 C5.64436568,11.9905723 5.35606584,11.8637179 5.14387695,11.6461104 L0.34241856,6.86877686 C-0.11413952,6.39523102 -0.11413952,5.64531522 0.34241856,5.17176938 C0.565870245,4.94682569 0.869832653,4.82032745 1.18689782,4.82032745 C1.50396299,4.82032745 1.8079254,4.94682569 2.03137709,5.17176938 L5.94815548,9.11267262 L15.9531895,0.354213108 C16.1741721,0.127717648 16.4772166,0 16.7936553,0 C17.1100941,0 17.4131385,0.127717648 17.6341211,0.354213108 C17.8590648,0.577664793 17.985563,0.881627201 17.985563,1.19869237 C17.985563,1.51575754 17.8590648,1.81971995 17.6341211,2.04317164 L6.79263475,11.6461104 C6.56908203,11.8712044 6.26539475,11.9984683 5.94815548,12 L5.94815548,12 Z" id="路径"></path>
                </g>
            </g>
        </g>
    </g>
</svg>