<?xml version="1.0" encoding="UTF-8"?>
<svg width="24px" height="24px" viewBox="0 0 24 24" version="1.1" xmlns="http://www.w3.org/2000/svg" xmlns:xlink="http://www.w3.org/1999/xlink">
    <title>编组 50备份 3</title>
    <g id="页面-1" stroke="none" stroke-width="1" fill="none" fill-rule="evenodd">
        <g id="头部下拉" transform="translate(-1464.000000, -165.000000)">
            <g id="编组-50备份-3" transform="translate(1464.000000, 165.000000)">
                <rect id="矩形备份-71" x="0" y="0" width="24" height="24"></rect>
                <g id="编组" transform="translate(2.000000, 2.000000)">
                    <path d="M8.36099099,4.60540541 C8.12495495,5.04324324 7.57810811,5.20720721 7.14027027,4.97117117 C6.70243243,4.73513514 6.53846847,4.18918919 6.7745045,3.75135135 C7.97630631,1.51981982 10.3366667,0 13.0528829,0 C16.9889189,0 20.1799099,3.19099099 20.1799099,7.12702703 C20.1799099,9.79279279 18.7168468,12.1153153 16.5537838,13.3369369 C16.1204505,13.581982 15.5709009,13.4288288 15.3258559,12.9954955 C15.0817117,12.5621622 15.233964,12.0126126 15.6672973,11.7684685 C17.288018,10.8531532 18.3781081,9.11711712 18.3781081,7.12702703 C18.3781081,4.18648649 15.9943243,1.8018018 13.0528829,1.8018018 C11.0258559,1.8018018 9.26099099,2.93423423 8.36099099,4.60540541 Z" id="Fill-1" fill="#FFFFFF"></path>
                    <path d="M0,12.7927928 C0,8.81261261 3.22702703,5.58558559 7.20720721,5.58558559 C11.1873874,5.58558559 14.4144144,8.81261261 14.4144144,12.7927928 C14.4144144,16.772973 11.1873874,20 7.20720721,20 C3.22702703,20 0,16.772973 0,12.7927928 M7.20720721,7.38738739 C4.22162162,7.38738739 1.8018018,9.80720721 1.8018018,12.7927928 C1.8018018,15.7783784 4.22162162,18.1981982 7.20720721,18.1981982 C10.1927928,18.1981982 12.6126126,15.7783784 12.6126126,12.7927928 C12.6126126,9.80720721 10.1927928,7.38738739 7.20720721,7.38738739" id="Fill-3" fill="#FFFFFF"></path>
                    <path d="M6.95918919,10.2677477 C7.03936937,10.0308108 7.3745045,10.0308108 7.45558559,10.2677477 L7.98081081,11.8136937 L9.64747748,11.8136937 C9.90423423,11.8136937 10.0078378,12.1443243 9.79702703,12.2911712 L8.45918919,13.22 L8.97630631,14.7425225 C9.05738739,14.9812613 8.78621622,15.1857658 8.57900901,15.0416216 L7.20693694,14.0893694 L5.83576577,15.0416216 C5.62765766,15.1857658 5.35648649,14.9812613 5.43846847,14.7425225 L5.95558559,13.22 L4.61774775,12.2911712 C4.40693694,12.1443243 4.51054054,11.8136937 4.7672973,11.8136937 L6.43396396,11.8136937 L6.95918919,10.2677477 Z" id="Fill-5" fill="#90ff00"></path>
                </g>
            </g>
        </g>
    </g>
</svg>