<?xml version="1.0" encoding="UTF-8"?>
<svg width="36px" height="36px" viewBox="0 0 36 36" version="1.1" xmlns="http://www.w3.org/2000/svg" xmlns:xlink="http://www.w3.org/1999/xlink">
    <title>编组 44备份 4</title>
    <g id="一级页面" stroke="none" stroke-width="1" fill="none" fill-rule="evenodd">
        <g id="头部下拉" transform="translate(-2154.000000, -156.000000)">
            <g id="编组-10" transform="translate(2154.000000, 156.000000)">
                <g id="编组-37" transform="translate(3.000000, 4.500000)" fill-rule="nonzero">
                    <path d="M2.4759044,25.9876228 C1.11007288,25.9876228 0,24.8427346 0,23.4360621 L0,2.55156075 C0,1.14488819 1.11007288,0 2.4759044,0 L26.7840231,0 C28.1498546,0 29.2599275,1.14488819 29.2599275,2.55156075 L29.2599275,12.592431 C29.2599275,13.2944283 28.6918353,13.8625204 27.9898381,13.8625204 C27.2878409,13.8625204 26.7197487,13.2944283 26.7197487,12.592431 L26.7197487,2.55156075 L2.47623916,2.54051359 L2.54084835,23.4360621 L17.8508824,23.4471092 C18.5528796,23.4471092 19.1209718,24.0152014 19.1209718,24.7171987 C19.120637,25.4195306 18.5525449,25.9876228 17.8505476,25.9876228 L2.4759044,25.9876228 Z" id="路径" fill="#FFFFFF"></path>
                    <path d="M11.4314742,17.2837945 L1.27410656,17.2837945 C0.572109332,17.2837945 0.00401715154,16.7157023 0.00401715154,16.0137051 L0.00401715154,9.97291346 C0.00401715154,9.27091622 0.572109332,8.70282404 1.27410656,8.70282404 L11.431809,8.70282404 C12.6945336,8.70282404 13.7215854,9.72987579 13.7215854,10.9926004 L13.7215854,14.9940181 C13.7212506,16.2567427 12.6941989,17.2837945 11.4314742,17.2837945 L11.4314742,17.2837945 Z M2.54419597,14.7436157 L11.1810718,14.7436157 L11.1810718,11.2430029 L2.54419597,11.2430029 L2.54419597,14.7436157 Z" id="形状" fill="#FFFFFF"></path>
                    <path d="M26.5308274,15.6362922 L29.1356154,20.1488924 L29.1428682,20.1612303 C29.1511866,20.1759951 29.1592182,20.1909435 29.1669556,20.2060679 C29.1743048,20.219617 29.18113,20.2336191 29.1876923,20.2477326 L29.1356154,20.1488924 C29.1595921,20.1904002 29.1809594,20.2326929 29.1997686,20.2755817 C29.2018628,20.2800963 29.2039165,20.2848733 29.2059417,20.2896654 L29.2153728,20.3117999 C29.2217502,20.3277461 29.2278024,20.3438137 29.2335266,20.3599918 C29.2381283,20.3737387 29.242624,20.3871001 29.2468855,20.4005003 L29.2530862,20.4199426 C29.259438,20.4411758 29.2652361,20.4625712 29.2704741,20.4841053 C29.2740055,20.4991857 29.2772922,20.5138361 29.2803113,20.5285119 C29.2860339,20.5556433 29.2908058,20.5834007 29.2946555,20.6113077 C29.29588,20.6214778 29.2971654,20.6317962 29.2983221,20.6421184 C29.2982791,20.6461907 29.2987109,20.6502538 29.2991235,20.6543226 L29.3010414,20.6664535 C29.3031896,20.689366 29.3047183,20.7123571 29.3056203,20.7354007 C29.3054667,20.7400554 29.3056261,20.7450504 29.3057559,20.7500443 L29.3065675,20.7772419 C29.3067186,20.8018423 29.306154,20.8264844 29.3048652,20.8511365 C29.3034766,20.8672966 29.3023304,20.8830355 29.3008933,20.8987381 L29.2991235,20.9142212 C29.2970537,20.941174 29.294674,20.9592431 29.2918967,20.9772886 C29.2903221,20.9831745 29.2894644,20.9884837 29.2885732,20.9937866 L29.286524,21.0094292 C29.281073,21.0396323 29.2744984,21.0697483 29.2667845,21.0997185 C29.263191,21.1110877 29.2601933,21.1221334 29.2570475,21.1331373 C29.254585,21.1425445 29.2516604,21.1523779 29.2486209,21.1621605 C29.2414287,21.1857783 29.2366359,21.1998239 29.2315821,21.2138198 C29.2291565,21.2191073 29.2273471,21.2240445 29.225507,21.228971 L29.2195113,21.2458847 C29.2095297,21.2713507 29.1986699,21.2966341 29.1869214,21.3216965 C29.1791147,21.3378439 29.1712136,21.3538992 29.1629693,21.369795 C29.1594789,21.3769089 29.1560128,21.3834286 29.1524919,21.389914 L29.1426915,21.4075039 C29.1404677,21.4114484 29.1382206,21.415386 29.1359502,21.4193166 L26.5311622,25.9319168 C26.2951545,26.3389882 25.8683321,26.5669615 25.4294583,26.5669615 C25.2135364,26.5669615 24.9952712,26.5123952 24.7957527,26.3969021 C24.1878238,26.0457361 23.9796014,25.2694216 24.3307674,24.6614927 L25.835,22.054 L17.7700894,22.0543613 C17.0680922,22.0543613 16.5,21.4862691 16.5,20.7842719 C16.5,20.0822747 17.0680922,19.5141825 17.7700894,19.5141825 L25.835,19.514 L24.3304326,16.9067164 C23.9792666,16.2987875 24.1878238,15.5224729 24.7954179,15.1713069 C25.4006688,14.8191366 26.1783223,15.027359 26.5308274,15.6362922 Z" id="形状结合" fill="#2EBD85"></path>
                </g>
                <rect id="矩形备份-68" x="0" y="0" width="36" height="36"></rect>
            </g>
        </g>
    </g>
</svg>