<?xml version="1.0" encoding="UTF-8"?>
<svg width="25px" height="24px" viewBox="0 0 25 24" version="1.1" xmlns="http://www.w3.org/2000/svg" xmlns:xlink="http://www.w3.org/1999/xlink">
    <title>编组 44备份 2</title>
    <g id="页面-1" stroke="none" stroke-width="1" fill="none" fill-rule="evenodd">
        <g id="资产组件" transform="translate(-62.000000, -28.000000)">
            <g id="编组-44备份-2" transform="translate(62.428571, 28.000000)">
                <g id="编组-37" transform="translate(2.000000, 3.000000)" fill-rule="nonzero">
                    <path d="M1.65060293,17.3250819 C0.740048583,17.3250819 0,16.5618231 0,15.6240414 L0,1.7010405 C0,0.763258792 0.740048583,0 1.65060293,0 L17.8560154,0 C18.7665698,0 19.5066183,0.763258792 19.5066183,1.7010405 L19.5066183,8.39495401 C19.5066183,8.86295217 19.1278902,9.24168029 18.6598921,9.24168029 C18.1918939,9.24168029 17.8131658,8.86295217 17.8131658,8.39495401 L17.8131658,1.7010405 L1.65082611,1.69367572 L1.6938989,15.6240414 L11.9005883,15.6314062 C12.3685864,15.6314062 12.7473145,16.0101343 12.7473145,16.4781324 C12.7470914,16.9463538 12.3683632,17.3250819 11.9003651,17.3250819 L1.65060293,17.3250819 Z" id="路径" fill="#333333"></path>
                    <path d="M7.62098282,11.5225297 L0.849404375,11.5225297 C0.381406221,11.5225297 0.00267810103,11.1438015 0.00267810103,10.6758034 L0.00267810103,6.64860897 C0.00267810103,6.18061082 0.381406221,5.8018827 0.849404375,5.8018827 L7.62120599,5.8018827 C8.46302242,5.8018827 9.14772358,6.48658386 9.14772358,7.32840028 L9.14772358,9.99601208 C9.1475004,10.8378285 8.46279924,11.5225297 7.62098282,11.5225297 L7.62098282,11.5225297 Z M1.69613065,9.82907711 L7.45404785,9.82907711 L7.45404785,7.49533524 L1.69613065,7.49533524 L1.69613065,9.82907711 Z" id="形状" fill="#333333"></path>
                    <path d="M17.6872183,10.4241948 L19.4217044,13.4282304 C19.4263141,13.4361186 19.4307919,13.4440745 19.4351367,13.4520943 C19.4405928,13.4627423 19.4458189,13.4728607 19.4508445,13.4830956 C19.4609437,13.5031405 19.4701304,13.5239611 19.4784626,13.5450969 C19.4868064,13.5667648 19.4945563,13.5890704 19.5013796,13.611779 C19.5105277,13.6417876 19.5177364,13.6715402 19.5232914,13.7014271 C19.5261616,13.7163252 19.5285931,13.7316684 19.530603,13.7470774 C19.5457354,13.8630856 19.5369798,13.9828264 19.5022528,14.0985548 C19.4943286,14.1241995 19.4857476,14.1486952 19.4761038,14.1726467 C19.4731015,14.1803121 19.4696774,14.1884211 19.4661171,14.1964982 C19.456139,14.219087 19.445543,14.2406214 19.4340839,14.2616157 C19.4312693,14.266554 19.4287429,14.2710886 19.4261737,14.2756017 L17.6874414,17.2879446 C17.530103,17.5593255 17.2455548,17.7113077 16.9529722,17.7113077 C16.8090243,17.7113077 16.6635141,17.6749302 16.5305018,17.5979348 C16.1252158,17.3638241 15.9864009,16.8462811 16.2205116,16.4409951 L17.224,14.702 L11.8467263,14.7029075 C11.3787281,14.7029075 11,14.3241794 11,13.8561813 C11,13.3881831 11.3787281,13.009455 11.8467263,13.009455 L17.223,13.009 L16.2202884,11.2711443 C15.9861778,10.8658583 16.1252158,10.3483153 16.5302786,10.1142046 C16.9337792,9.87942443 17.4522149,10.0182393 17.6872183,10.4241948 Z" id="形状结合" fill="#90ff00"></path>
                </g>
                <rect id="矩形备份-68" x="0" y="0" width="24" height="24"></rect>
            </g>
        </g>
    </g>
</svg>