<?xml version="1.0" encoding="UTF-8"?>
<svg width="42px" height="42px" viewBox="0 0 42 42" version="1.1" xmlns="http://www.w3.org/2000/svg" xmlns:xlink="http://www.w3.org/1999/xlink">
    
    <g id="页面-1" stroke="none" stroke-width="1" fill="none" fill-rule="evenodd">
        <g id="个人中心组件" transform="translate(-548.000000, -23.000000)">
            <g id="编组-114" transform="translate(548.000000, 23.000000)">
                <rect id="矩形备份-138" x="0" y="0" width="42" height="42"></rect>
                <g id="编组-110" transform="translate(5.250000, 5.250000)" fill="#96A2B2" fill-rule="nonzero" stroke="#96A2B2">
                    <path d="M31.5,15.75 C31.5,7.05170456 24.4482954,0 15.75,0 C7.05170456,0 0,7.05170456 0,15.75 C0,24.4482954 7.05170456,31.5 15.75,31.5 C24.4482954,31.5 31.5,24.4482954 31.5,15.75 Z M1.4318182,15.75 C1.4318182,7.8420682 7.8420682,1.4318182 15.75,1.4318182 C23.6579318,1.4318182 30.0681818,7.8420682 30.0681818,15.75 C30.0681818,23.6579318 23.6579318,30.0681818 15.75,30.0681818 C7.8420682,30.0681818 1.4318182,23.6579318 1.4318182,15.75 Z" id="形状备份" stroke-width="0.25"></path>
                    <path d="M21.0081652,20.2053314 C21.0081652,20.5435461 21.2823424,20.8177233 21.6205572,20.8177233 C21.9587719,20.8177233 22.2329491,20.5435461 22.2329491,20.2053314 C22.2329491,19.8671167 21.9587719,19.5929395 21.6205572,19.5929395 C21.2823424,19.5929395 21.0081652,19.8671167 21.0081652,20.2053314 Z" id="路径" stroke-width="0.2"></path>
                    <path d="M23.0422671,22.3378963 L20.1940442,22.3378963 C19.3895088,22.3365741 18.7376334,21.6846987 18.7363112,20.8801633 L18.7363112,13.9517291 C18.7363112,13.146256 19.3885722,12.4929194 20.1940442,12.4915946 L23.0422671,12.4915946 C23.8468024,12.4929168 24.4986778,13.1447922 24.5,13.9493276 L24.5,20.8801633 C24.4986778,21.6846987 23.8468024,22.3365741 23.0422671,22.3378963 L23.0422671,22.3378963 Z M20.1940442,13.4522094 C19.9200396,13.4535236 19.6982402,13.675323 19.696926,13.9493276 L19.696926,20.8801633 C19.6982402,21.1541679 19.9200396,21.3759673 20.1940442,21.3772815 L23.0422671,21.3772815 C23.3162716,21.3759673 23.538071,21.1541679 23.5393852,20.8801633 L23.5393852,13.9517291 C23.538071,13.6777245 23.3162716,13.4559251 23.0422671,13.454611 L20.1940442,13.4522094 Z" id="形状" stroke-width="0.2"></path>
                    <path d="M20.1940442,22.3378963 L9.42074928,22.3378963 C8.08529108,22.3365753 7.00264643,21.2550047 7,19.9195485 L7,19.8451009 C7,19.7049769 7.05566404,19.570592 7.15474666,19.4715094 C7.25382929,19.3724268 7.38821416,19.3167627 7.52833815,19.3167627 L19.2190202,19.3167627 C19.4842507,19.3168135 19.6992357,19.5318396 19.6992357,19.7970701 C19.6992357,20.0623007 19.4842507,20.2773268 19.2190202,20.2773775 L8.006244,20.2773775 C8.17074624,20.9246865 8.75286597,21.3783248 9.42074928,21.379683 L20.1940442,21.379683 C20.4592748,21.3797338 20.6742597,21.5947598 20.6742597,21.8599904 C20.6742597,22.125221 20.4592748,22.340247 20.1940442,22.3402978 L20.1940442,22.3378963 Z" id="路径" stroke-width="0.2"></path>
                    <path d="M19.2190202,20.2773775 L9.50720461,20.2773775 C9.24193816,20.2773775 9.02689723,20.0623366 9.02689723,19.7970701 L9.02689723,10.2941883 C9.02821963,9.441905 9.71880222,8.7513224 10.5710855,8.75 L20.931316,8.75 C21.7835993,8.7513224 22.4741819,9.441905 22.4755043,10.2941883 L22.4755043,12.971902 C22.4755043,13.2371326 22.2604275,13.4521175 21.9951969,13.4521175 C21.7299664,13.4521175 21.5149403,13.2371326 21.5148895,12.971902 L21.5148895,10.2941883 C21.5135736,9.97243621 21.2530681,9.71193076 20.931316,9.71061479 L10.5710855,9.71061479 C10.2493334,9.71193076 9.98882799,9.97243621 9.98751201,10.2941883 L9.98751201,19.3167627 L19.2190202,19.3167627 C19.4842507,19.3168135 19.6992357,19.5318396 19.6992357,19.7970701 C19.6992357,20.0623007 19.4842507,20.2773775 19.2190202,20.2773775 Z" id="路径" stroke-width="0.2"></path>
                </g>
            </g>
        </g>
    </g>
</svg>