<?xml version="1.0" encoding="UTF-8"?>
<svg width="24px" height="24px" viewBox="0 0 24 24" version="1.1" xmlns="http://www.w3.org/2000/svg" xmlns:xlink="http://www.w3.org/1999/xlink">
    <title>编组 40备份 13</title>
    <g id="页面-1" stroke="none" stroke-width="1" fill="none" fill-rule="evenodd">
        <g id="资产组件" transform="translate(-275.000000, -28.000000)">
            <g id="编组-40备份-2" transform="translate(275.000000, 28.000000)">
                <g id="编组-39" transform="translate(2.000000, 2.000000)" fill-rule="nonzero">
                    <path d="M1.5533567,1.51225152 C1.52306824,1.53952425 1.49422209,1.56844987 1.4658567,1.59489615 C1.46533919,1.59601316 1.46451436,1.59700569 1.46345286,1.59778871 L1.45624132,1.60811929 C1.51777978,1.54985483 1.54758747,1.51927632 1.55624132,1.50811929 L1.5533567,1.51225152 Z" id="路径" fill="#0071C3"></path>
                    <path d="M19.327938,11.9855658 L14.9579669,11.9855658 L14.9579669,2.20885594 L14.9579669,1.95212825 C14.9570781,1.63462973 14.8852062,1.32134765 14.7476115,1.03521167 C14.4666895,0.434836281 13.8492886,0.0663222852 13.2052292,0.00628474665 C13.1319744,-0.000435873333 13.0591677,5.96673544e-06 12.9856889,5.96673544e-06 L1.91682781,5.96673544e-06 C1.60410693,5.96673544e-06 1.29572135,0.0731558781 1.01648875,0.213951904 C0.353387577,0.543486304 0.00167513118,1.26528089 0.00167513118,1.98259506 L0.00167513118,17.1351289 C0.00167513118,17.2894791 -0.00594157147,17.4474137 0.0113080198,17.6010919 C0.0473753471,17.9196493 0.130711035,18.2323821 0.315528084,18.5000868 C0.496536783,18.762415 0.72772611,18.9980848 1.01648875,19.141234 C1.29554232,19.282596 1.60401148,19.3561251 1.91682781,19.3558466 C2.60457125,19.3558466 3.2923147,19.3531575 3.97983412,19.3518134 L7.82649298,19.3439727 L11.4921431,19.336804 C12.0232961,19.336804 12.5544491,19.3334437 13.0853781,19.3336677 C14.1221458,19.3336677 15.1589134,19.3390442 16.195457,19.3417325 L16.6161678,19.3417325 C16.7678298,19.3520374 16.9203879,19.3549497 17.072722,19.3549497 C18.0324265,19.3482291 18.8928899,18.8827141 19.4589901,18.1176835 C19.8387051,17.6049002 20,16.9715938 20,16.3403036 L20,12.6576278 C20,12.2935943 19.6919716,11.9855658 19.327938,11.9855658 Z M15.3126211,17.2453471 L15.412294,17.3453471 C15.3604641,17.3044022 15.3076375,17.2571581 15.3126211,17.2453471 Z M13.5837704,1.65502993 C13.578432,1.63721165 13.5703337,1.62034023 13.5597704,1.60502993 C13.5720661,1.61927124 13.5803496,1.63652864 13.5837704,1.65502993 L13.5837704,1.65502993 Z M1.45346956,17.7779779 C1.45964971,17.7954585 1.46769619,17.812222 1.47746956,17.8279779 C1.46591152,17.8132655 1.45771923,17.7961983 1.45346956,17.7779779 L1.45346956,17.7779779 Z M13.0396779,17.9893197 L12.2228986,17.9908878 L10.6099498,17.9942482 L8.5140124,17.9982805 L6.27851018,18.0027609 L4.21617592,18.0070173 L2.64915136,18.0101536 C2.3991443,18.0101536 2.14891322,18.0121698 1.89868213,18.0116349 C1.86933543,18.0116349 1.84021274,18.0116349 1.81086603,18.0092575 C1.76764448,17.9997676 1.72494778,17.9880279 1.68295023,17.9740863 C1.64195445,17.9516842 1.60230279,17.9292822 1.56265113,17.9039678 C1.54159319,17.8849261 1.52031123,17.8658843 1.50037339,17.8452744 C1.49656504,17.841242 1.4842439,17.829817 1.47080266,17.8165998 C1.46744235,17.8112233 1.46340998,17.8049507 1.45848152,17.797782 C1.43339466,17.7591533 1.41050815,17.7191393 1.3899312,17.677931 C1.37267687,17.6265586 1.35853788,17.574192 1.34759129,17.5211165 C1.33751036,17.3676624 1.34467902,17.2115199 1.34467902,17.0587379 L1.34467902,2.50792353 L1.34467902,1.92905412 C1.34467902,1.89679515 1.34467902,1.86476019 1.34781531,1.83272524 C1.35885578,1.78028294 1.37291786,1.72852254 1.3899312,1.67770294 C1.40960607,1.63848299 1.43136724,1.60034486 1.45512121,1.5634524 L1.42286224,1.59839962 C1.43540739,1.58495838 1.44750451,1.57062106 1.45960163,1.55628374 C1.47998751,1.52604095 1.51000628,1.49669424 1.50171751,1.5092394 C1.52143133,1.48907754 1.54204123,1.4702598 1.56287515,1.45144206 C1.60207877,1.42657577 1.64150641,1.40327762 1.68227817,1.38177164 C1.72427572,1.36783007 1.76697242,1.35609034 1.81019397,1.34660039 C1.9222043,1.34010379 2.03421464,1.34413617 2.14622497,1.34413617 L11.7430463,1.34413617 C12.1859351,1.34413617 12.629272,1.34055183 13.0721609,1.34413617 C13.0974752,1.34413617 13.1227896,1.34525627 13.1481039,1.34660039 C13.1911744,1.35601519 13.2337219,1.36768025 13.2755717,1.38154762 C13.3165674,1.40394968 13.3562191,1.42635175 13.3958708,1.45166608 C13.4171527,1.47070784 13.4382107,1.48997362 13.4581485,1.5103595 C13.4621809,1.51461589 13.474278,1.52581693 13.4879433,1.53903414 L13.5000404,1.55785188 C13.5251272,1.59648066 13.5480137,1.63649465 13.5685907,1.67770294 C13.585529,1.72814738 13.5995166,1.77953503 13.6104826,1.83160513 C13.6172032,1.94137526 13.6138429,2.05248951 13.6138429,2.16225964 L13.6138429,11.1804356 C13.6138429,11.6157077 13.6051061,12.0521 13.6138429,12.4871481 L13.6138429,12.5050698 C13.6139079,12.5300897 13.615554,12.5550804 13.6187713,12.5798927 C13.6155474,12.6054548 13.6139014,12.6311912 13.6138429,12.6569558 L13.6138429,15.1760682 C13.6138429,15.4955216 13.6124987,15.8149751 13.6138429,16.1342046 C13.6171528,16.7987068 13.8223082,17.4465167 14.2021211,17.9917839 L13.8051565,17.9906638 C13.549997,17.9893197 13.2948374,17.9893197 13.0396779,17.9893197 L13.0396779,17.9893197 Z M18.3281338,17.3992493 C18.2849725,17.450774 18.2396456,17.5003573 18.1921532,17.547999 C18.1446608,17.5956407 18.0950776,17.6408929 18.0434035,17.6837555 C18.0252578,17.6967487 18.0068881,17.7097419 17.9882944,17.7222871 C17.8924062,17.7863476 17.7917503,17.8429665 17.6872106,17.8916467 C17.5573105,17.9397587 17.4234266,17.9763407 17.2871097,18.0009688 L17.2555228,18.003433 C17.2331905,18.0011966 17.2107606,18.0000751 17.1883166,18.0000727 L16.5785324,17.9982805 L16.5756201,17.9982805 C16.4140427,17.9697763 16.2554904,17.9262007 16.1020404,17.8681245 C15.9854898,17.8141314 15.8731629,17.751453 15.7660094,17.6806192 C15.7384549,17.6622495 15.7115724,17.6432078 15.6846899,17.623942 C15.6237563,17.5721932 15.5639428,17.5195484 15.5072655,17.4628711 C15.4505883,17.4061939 15.3997356,17.3508608 15.3504511,17.2905992 C15.3332015,17.266181 15.3157279,17.2422108 15.2991503,17.2173445 C15.2248464,17.1062317 15.1593806,16.9894569 15.1033563,16.8680963 C15.0456123,16.7148971 15.0022638,16.5566524 14.9738723,16.3954127 C14.959311,16.2325496 14.9604112,16.0701347 14.9604112,15.9063755 L14.9604112,13.3296898 L18.655876,13.3296898 L18.655876,16.0723749 C18.655876,16.2630164 18.6612525,16.4547781 18.644675,16.6447477 C18.6200897,16.7802969 18.5836586,16.9134276 18.5358009,17.0426084 C18.4871208,17.147148 18.4305018,17.2478039 18.3664413,17.3436921 C18.3541202,17.3620618 18.3409029,17.3804315 18.3281338,17.3988012 L18.3281338,17.3992493 Z" id="形状" stroke="#333333" stroke-width="0.5" fill="#333333"></path>
                    <path d="M4.11962302,6.81785712 L10.840243,6.81785712 C11.1917314,6.81785712 11.5284345,6.5087086 11.512305,6.14579512 C11.4961755,5.78288164 11.2170458,5.47373313 10.840243,5.47373313 L4.11962302,5.47373313 C3.76791057,5.47373313 3.43120751,5.78288164 3.44756102,6.14579512 C3.46391453,6.5087086 3.74282026,6.81785712 4.11962302,6.81785712 Z M4.11962302,10.3627601 L10.840243,10.3627601 C11.1917314,10.3627601 11.5284345,10.0536116 11.512305,9.69069815 C11.4961755,9.32778467 11.2170458,9.01863615 10.840243,9.01863615 L4.11962302,9.01863615 C3.76791057,9.01863615 3.43120751,9.32778467 3.44756102,9.69069815 C3.46391453,10.0536116 3.74282026,10.3627601 4.11962302,10.3627601 Z M4.11962302,13.9022867 L6.58385034,13.9022867 C6.93533877,13.9022867 7.27204183,13.5931381 7.25591234,13.2302247 C7.23978286,12.8673112 6.96065311,12.5581627 6.58385034,12.5581627 L4.11962302,12.5581627 C3.76791057,12.5581627 3.43120751,12.8673112 3.44756102,13.2302247 C3.46391453,13.5931381 3.74282026,13.9022867 4.11962302,13.9022867 Z" id="形状结合" stroke="#90ff00" stroke-width="0.5" fill="#90ff00"></path>
                </g>
                <rect id="矩形备份-72" x="0" y="0" width="24" height="24"></rect>
            </g>
        </g>
    </g>
</svg>