<?xml version="1.0" encoding="UTF-8"?>
<svg width="30px" height="30px" viewBox="0 0 30 30" version="1.1" xmlns="http://www.w3.org/2000/svg" xmlns:xlink="http://www.w3.org/1999/xlink">
    
    <g id="页面-1" stroke="none" stroke-width="1" fill="none" fill-rule="evenodd">
        <g id="tab栏" transform="translate(-1821.000000, -224.000000)">
            <g id="编组-8" transform="translate(1821.000000, 224.000000)">
                <rect id="矩形备份-45" fill="#1D1D1D" x="0" y="0" width="30" height="30" rx="15"></rect>
                <g id="编组-81备份-4" transform="translate(8.000000, 7.000000)" fill="#FFFFFF" fill-rule="nonzero" stroke="#FFFFFF" stroke-width="0.3">
                    <path d="M11.8518518,16 L2.37037038,16 C1.04296296,16 0,14.8266667 0,13.3333333 L0,2.66666667 C0,1.17333333 1.04296296,0 2.37037037,0 L11.8518518,0 C13.1792593,0 14.2222222,1.17333333 14.2222222,2.66666667 L14.2222222,13.3333333 C14.2222222,14.8266667 13.1792593,16 11.8518518,16 Z M13.2740741,2.66666667 C13.2740741,1.81333334 12.6103704,1.06666667 11.8518518,1.06666667 L2.37037038,1.06666667 C1.61185185,1.06666667 0.948148153,1.81333333 0.948148153,2.66666667 L0.948148153,13.3333333 C0.948148153,14.1866667 1.61185186,14.9333333 2.37037037,14.9333333 L11.8518518,14.9333333 C12.6103704,14.9333333 13.2740741,14.1866667 13.2740741,13.3333333 L13.2740741,2.66666667 Z" id="形状"></path>
                    <path d="M9.69696969,12.4444444 L4.84848484,12.4444444 C4.6060606,12.4444444 4.44444444,12.2828283 4.44444444,12.040404 C4.44444444,11.7979798 4.6060606,11.6363636 4.84848484,11.6363636 L9.69696969,11.6363636 C9.93939393,11.6363636 10.1010101,11.7979798 10.1010101,12.040404 C10.1010101,12.2828283 9.93939393,12.4444444 9.69696969,12.4444444 Z M7.59595959,10.5858586 C7.43434344,10.7474747 7.19191919,10.7474747 7.03030302,10.5858586 L4.68686869,8.32323233 C4.52525253,8.16161617 4.52525253,7.91919193 4.68686869,7.75757576 C4.84848484,7.5959596 5.09090909,7.5959596 5.25252524,7.67676767 L6.86868687,9.2929293 L6.86868687,3.95959597 C6.86868687,3.71717172 7.03030302,3.55555556 7.27272727,3.55555556 C7.51515151,3.55555556 7.67676767,3.71717171 7.67676767,3.95959597 L7.67676767,9.2929293 L9.29292929,7.67676767 C9.45454545,7.51515152 9.69696969,7.51515152 9.85858585,7.67676767 C10.020202,7.83838383 10.020202,8.08080807 9.85858585,8.24242424 L7.59595959,10.5858586 Z" id="形状"></path>
                </g>
            </g>
        </g>
    </g>
</svg>