<?xml version="1.0" encoding="UTF-8"?>
<svg width="42px" height="42px" viewBox="0 0 42 42" version="1.1" xmlns="http://www.w3.org/2000/svg" xmlns:xlink="http://www.w3.org/1999/xlink">
    
    <g id="页面-1" stroke="none" stroke-width="1" fill="none" fill-rule="evenodd">
        <g id="个人中心组件" transform="translate(-320.000000, -23.000000)">
            <g id="编组-118" transform="translate(320.000000, 23.000000)">
                <rect id="矩形备份-140" x="0" y="0" width="42" height="42"></rect>
                <g id="编组-106" transform="translate(5.250000, 5.250000)" fill="#96A2B2" fill-rule="nonzero" stroke="#96A2B2">
                    <path d="M24.5,8.75 L24.5,22.75 L7,22.75 L7,8.75 L24.5,8.75 Z M7.875,11.661 L7.87500001,21.875 L23.625,21.875 L23.624,11.672 L18.3411305,14.4522101 C18.3547826,14.5365252 18.3644185,14.6221863 18.3698356,14.7089908 L18.375,14.875 C18.375,16.3247474 17.1997475,17.5 15.75,17.5 C14.3002525,17.5 13.125,16.3247474 13.125,14.875 C13.125,14.7275858 13.1371514,14.5830096 13.1605071,14.4422186 L7.875,11.661 Z M15.75,13.125 C14.7835017,13.125 14,13.9085017 14,14.875 C14,15.8414983 14.7835017,16.625 15.75,16.625 C16.7164983,16.625 17.5,15.8414983 17.5,14.875 C17.5,13.9085017 16.7164983,13.125 15.75,13.125 Z M23.625,9.62499999 L7.87500001,9.62499999 L7.875,10.674 L13.4502315,13.6084137 C13.8720483,12.8441417 14.6637687,12.3125914 15.5839909,12.2551644 L15.75,12.25 C16.7404543,12.25 17.6027881,12.7985488 18.0497685,13.6084137 L23.624,10.685 L23.625,9.62499999 Z" id="形状结合" stroke-width="0.2"></path>
                    <path d="M31.5,15.75 C31.5,7.05170456 24.4482954,0 15.75,0 C7.05170456,0 0,7.05170456 0,15.75 C0,24.4482954 7.05170456,31.5 15.75,31.5 C24.4482954,31.5 31.5,24.4482954 31.5,15.75 Z M1.4318182,15.75 C1.4318182,7.8420682 7.8420682,1.4318182 15.75,1.4318182 C23.6579318,1.4318182 30.0681818,7.8420682 30.0681818,15.75 C30.0681818,23.6579318 23.6579318,30.0681818 15.75,30.0681818 C7.8420682,30.0681818 1.4318182,23.6579318 1.4318182,15.75 Z" id="形状" stroke-width="0.25"></path>
                </g>
            </g>
        </g>
    </g>
</svg>