<?xml version="1.0" encoding="UTF-8"?>
<svg width="24px" height="24px" viewBox="0 0 24 24" version="1.1" xmlns="http://www.w3.org/2000/svg" xmlns:xlink="http://www.w3.org/1999/xlink">
    <g id="页面-1" stroke="none" stroke-width="1" fill="none" fill-rule="evenodd">
        <g id="一键买币/C2C组件" transform="translate(-235.000000, -87.000000)">
            <g id="编组-147" transform="translate(235.000000, 87.000000)">
                <g id="编组" transform="translate(3.000000, 3.000000)" fill="#333333" fill-rule="nonzero">
                    <path d="M10.1326038,17.9999787 C9.83812558,18.00143 9.54799615,17.9288976 9.28885578,17.7890197 L6.96854887,16.5058196 C6.40344788,16.1966261 6.05273036,15.6031041 6.05448858,14.9589484 L6.05448858,7.59373173 C6.05448858,7.48307512 6.0023892,7.37887636 5.91386392,7.31248239 L0.552548696,3.02343022 L0.482236367,2.95311789 C-0.00994995098,2.44335349 -0.132996522,1.70507403 0.148252793,1.05468497 C0.429502108,0.404295903 1.04473501,0 1.74785832,0 L16.1970423,0 C16.9001656,0 17.5329766,0.404295903 17.8142259,1.05468497 C18.0954752,1.70507403 17.9724286,2.42577542 17.4978204,2.95311789 L17.4275081,3.02343022 L12.0134586,7.36521665 C11.9315158,7.4351606 11.886167,7.53881485 11.890412,7.64646597 L11.890412,16.2421484 C11.890412,17.2129591 11.1034145,17.9999787 10.1326038,17.9999787 Z M1.46660899,1.96874526 L6.79276805,6.22264127 C7.21450336,6.55256836 7.46087388,7.05827628 7.46073519,7.59373173 L7.46073519,14.9589484 C7.45636365,15.0887948 7.52395953,15.2104674 7.63651602,15.2753538 L9.95682293,16.5409758 C10.0674589,16.6049519 10.2040988,16.6038491 10.3136878,16.5380957 C10.4232767,16.4723423 10.4885509,16.3522966 10.4841654,16.2245703 L10.4841654,7.64646597 C10.4823569,7.11457355 10.7214845,6.6104666 11.1345545,6.27537551 L16.4782916,1.96874526 C16.5581886,1.86221587 16.5710403,1.71968859 16.5114886,1.60058512 C16.4519368,1.48148165 16.330204,1.40624661 16.1970423,1.40624661 L1.74785832,1.40624661 C1.61469659,1.40624661 1.49296375,1.48148164 1.43341202,1.60058511 C1.37386028,1.71968858 1.38671195,1.86221587 1.46660899,1.96874526 Z" id="形状"></path>
                    <path d="M17.2693053,9.15818108 L13.2966586,9.15818108 C12.9083344,9.15818108 12.5935353,8.84338205 12.5935353,8.45505777 C12.5935353,8.0667335 12.9083344,7.75193447 13.2966586,7.75193447 L17.2693053,7.75193447 C17.6576296,7.75193447 17.9724286,8.0667335 17.9724286,8.45505777 C17.9724286,8.84338205 17.6576296,9.15818108 17.2693053,9.15818108 L17.2693053,9.15818108 Z M17.2693053,11.7948935 L13.2966586,11.7948935 C12.9083344,11.7948935 12.5935353,11.4800945 12.5935353,11.0917702 C12.5935353,10.7034459 12.9083344,10.3886469 13.2966586,10.3886469 L17.2693053,10.3886469 C17.6576296,10.3886469 17.9724286,10.7034459 17.9724286,11.0917702 C17.9724286,11.4800944 17.6576296,11.7948935 17.2693053,11.7948935 L17.2693053,11.7948935 Z M17.2693053,14.4140278 L13.2966586,14.4140278 C12.9083344,14.4140278 12.5935353,14.0992288 12.5935353,13.7109045 C12.5935353,13.3225802 12.9083344,13.0077812 13.2966586,13.0077812 L17.2693053,13.0077812 C17.6576296,13.0077812 17.9724286,13.3225802 17.9724286,13.7109045 C17.9724286,14.0992288 17.6576296,14.4140278 17.2693053,14.4140278 L17.2693053,14.4140278 Z" id="形状"></path>
                </g>
                <rect id="矩形" x="0" y="0" width="24" height="24"></rect>
            </g>
        </g>
    </g>
</svg>