<?xml version="1.0" standalone="no"?><!DOCTYPE svg PUBLIC "-//W3C//DTD SVG 1.1//EN" "http://www.w3.org/Graphics/SVG/1.1/DTD/svg11.dtd"><svg t="1679053214443" class="icon" viewBox="0 0 1026 1024" version="1.1" xmlns="http://www.w3.org/2000/svg" p-id="1908" xmlns:xlink="http://www.w3.org/1999/xlink" width="200.390625" height="200"><path d="M308.27909 473.868759h-176.159389a132.119542 132.119542 0 0 1-132.119543-132.119543V168.232217a132.119542 132.119542 0 0 1 132.119543-132.119542h176.159389a132.119542 132.119542 0 0 1 132.119543 132.119542v173.516999a132.119542 132.119542 0 0 1-132.119543 132.119543z m-176.159389-349.676389a44.039847 44.039847 0 0 0-44.039848 44.039847v173.516999a44.039847 44.039847 0 0 0 44.039848 44.039848h176.159389a44.039847 44.039847 0 0 0 44.039848-44.039848V168.232217a44.039847 44.039847 0 0 0-44.039848-44.039847z" fill="#3B11D7" p-id="1909"></path><path d="M771.137887 509.981434a132.119542 132.119542 0 0 1-93.364476-38.755066l-123.311573-122.871175a132.119542 132.119542 0 0 1 0-186.728953L677.333012 38.755066a132.119542 132.119542 0 0 1 186.728953 0l122.871175 122.871174a132.119542 132.119542 0 0 1 0 186.728953l-124.19237 122.871175a132.119542 132.119542 0 0 1-91.602883 38.755066z m0-421.901739a44.039847 44.039847 0 0 0-30.827893 12.771556l-122.871174 122.871174a44.039847 44.039847 0 0 0 0 62.536583l122.871174 122.871175a44.039847 44.039847 0 0 0 62.096185 0l122.871174-122.871175a44.039847 44.039847 0 0 0 0-62.536583l-122.871174-122.871174a44.039847 44.039847 0 0 0-31.268292-12.771556z" fill="#F34E79" p-id="1910"></path><path d="M308.27909 1023.926453h-176.159389a132.119542 132.119542 0 0 1-132.119543-132.119542v-173.516999a132.119542 132.119542 0 0 1 132.119543-132.119542h176.159389a132.119542 132.119542 0 0 1 132.119543 132.119542v173.516999a132.119542 132.119542 0 0 1-132.119543 132.119542z m-176.159389-349.676388a44.039847 44.039847 0 0 0-44.039848 44.039847v173.516999a44.039847 44.039847 0 0 0 44.039848 44.039848h176.159389a44.039847 44.039847 0 0 0 44.039848-44.039848v-173.516999a44.039847 44.039847 0 0 0-44.039848-44.039847zM858.336785 1023.926453h-171.755405a132.119542 132.119542 0 0 1-132.119542-132.119542v-173.516999a132.119542 132.119542 0 0 1 132.119542-132.119542h176.15939a132.119542 132.119542 0 0 1 132.119542 132.119542v173.516999a132.119542 132.119542 0 0 1-136.523527 132.119542z m-171.755405-349.676388a44.039847 44.039847 0 0 0-44.039847 44.039847v173.516999a44.039847 44.039847 0 0 0 44.039847 44.039848h176.15939a44.039847 44.039847 0 0 0 44.039847-44.039848v-173.516999a44.039847 44.039847 0 0 0-44.039847-44.039847z" fill="#3B11D7" p-id="1911"></path></svg>