<?xml version="1.0" encoding="UTF-8"?>
<svg width="36px" height="36px" viewBox="0 0 36 36" version="1.1" xmlns="http://www.w3.org/2000/svg" xmlns:xlink="http://www.w3.org/1999/xlink">
    <title>编组 90</title>
    <g id="一级页面" stroke="none" stroke-width="1" fill="none" fill-rule="evenodd">
        <g id="头部下拉" transform="translate(-2378.000000, -156.000000)">
            <g id="编组-90" transform="translate(2378.000000, 156.000000)">
                <g id="编组" transform="translate(4.000000, 4.000000)" fill-rule="nonzero">
                    <path d="M14.25,28.5 C6.37994231,28.5 0,22.1200577 0,14.25 C0,6.37994231 6.37994231,0 14.25,0 C22.1200577,0 28.5,6.37994231 28.5,14.25 C28.5,22.1200577 22.1200577,28.5 14.25,28.5 L14.25,28.5 Z M14.25,2.00917428 C7.49084535,2.00917428 2.01146787,7.48855175 2.01146787,14.2477064 C2.01146787,21.0068611 7.49084535,26.4862385 14.25,26.4862385 C21.0091547,26.4862385 26.4885321,21.0068611 26.4885321,14.2477064 C26.4878988,7.48899962 21.0087068,2.01032107 14.25,2.0103211 L14.25,2.00917428 Z" id="形状" stroke="#FFFFFF" stroke-width="0.2" fill="#FFFFFF"></path>
                    <path d="M18.8107798,12.8876147 L9.69036696,12.8876147 C9.13491545,12.8876147 8.68463305,12.4373322 8.68463305,11.8818807 C8.68463305,11.3264292 9.13491545,10.8761468 9.69036696,10.8761468 L16.7178899,10.8761468 L16.0149082,9.9977064 C15.6665635,9.5648089 15.7351071,8.93148693 16.1680046,8.58314219 C16.6009021,8.23479746 17.2342241,8.30334102 17.5825688,8.73623852 L19.5940367,11.2511468 C19.8350936,11.5532421 19.881717,11.9667474 19.7139807,12.3149349 C19.5462443,12.6631224 19.1938236,12.8843916 18.8073394,12.8841743 L18.8107798,12.8876147 Z M11.7006881,20.1399084 C11.3945228,20.1400803 11.1049513,20.000782 10.9139908,19.7614679 L8.90252293,17.2465596 C8.66172342,16.9447879 8.61492054,16.5318098 8.78208066,16.1838039 C8.94924077,15.835798 9.30085647,15.6141951 9.68692659,15.6135321 L18.8073394,15.6135321 C19.362791,15.6135321 19.8130734,16.0638145 19.8130734,16.6192661 C19.8130734,17.1747176 19.362791,17.625 18.8073394,17.625 L11.7821101,17.625 L12.4850917,18.5034404 C12.7265997,18.8051963 12.7738196,19.2186541 12.6065688,19.5670934 C12.4393179,19.9155326 12.0871886,20.1373028 11.7006881,20.1376147 L11.7006881,20.1399084 Z" id="形状" stroke="#90ff00" stroke-width="0.1" fill="#90ff00"></path>
                </g>
                <rect id="矩形备份-70" x="0" y="0" width="36" height="36"></rect>
            </g>
        </g>
    </g>
</svg>