<?xml version="1.0" encoding="UTF-8"?>
<svg width="13px" height="12px" viewBox="0 0 13 12" version="1.1" xmlns="http://www.w3.org/2000/svg" xmlns:xlink="http://www.w3.org/1999/xlink">
    <title>路径</title>
    <g id="页面-1" stroke="none" stroke-width="1" fill="none" fill-rule="evenodd">
        <g id="商家信息" transform="translate(-679.000000, -235.000000)" fill="#FFCE68" fill-rule="nonzero">
            <path d="M681.091056,246.467234 C680.941913,246.218444 680.89556,245.921339 680.961828,245.638942 L681.632276,242.779769 C681.648544,242.711963 681.626267,242.640702 681.574277,242.594234 L679.379706,240.681964 C678.923869,240.285049 678.871254,239.590909 679.260939,239.128149 C679.448224,238.905153 679.716853,238.766242 680.007078,238.742311 L682.887174,238.5077 C682.949942,238.50247 683.006095,238.461086 683.031787,238.398164 L684.141457,235.684218 C684.372683,235.118845 685.015747,234.84885 685.576813,235.08623 C685.844396,235.199948 686.056112,235.414927 686.165724,235.684218 L687.275394,238.39801 C687.301086,238.461086 687.357239,238.502623 687.420007,238.5077 L690.300411,238.742465 C690.904399,238.791695 691.35162,239.325992 691.303775,239.932595 C691.2813,240.222074 691.146261,240.491213 690.927629,240.682272 L688.733057,242.594542 C688.681981,242.639002 688.658905,242.711001 688.675058,242.779923 L689.345507,245.639096 C689.484273,246.230623 689.123973,246.826611 688.53583,246.969224 C688.2526,247.037963 687.953625,246.989954 687.706155,246.835995 L685.240204,245.303718 C685.187246,245.270477 685.119935,245.270477 685.066977,245.303718 L682.600872,246.835995 C682.083036,247.157681 681.405665,246.991223 681.091056,246.467234 Z" id="路径"></path>
        </g>
    </g>
</svg>