<?xml version="1.0" encoding="UTF-8"?>
<svg width="13px" height="12px" viewBox="0 0 13 12" version="1.1" xmlns="http://www.w3.org/2000/svg" xmlns:xlink="http://www.w3.org/1999/xlink">
    <title>编组</title>
    <g id="页面-1" stroke="none" stroke-width="1" fill="none" fill-rule="evenodd">
        <g id="商家信息" transform="translate(-590.000000, -235.000000)" fill="#FFCE68" fill-rule="nonzero">
            <g id="编组" transform="translate(590.000000, 235.000000)">
                <path d="M3.15408427,12 C2.90600968,12 2.6595565,11.9254155 2.44553137,11.7794893 C2.05801617,11.5168221 1.85534085,11.0466153 1.93154677,10.5845156 L2.40823911,7.7389542 L0.355543528,5.68788002 C0.0296416225,5.36522092 -0.0838565534,4.87717876 0.0636910753,4.44426429 C0.0636910753,4.44264289 0.0653124778,4.44102148 0.0653124778,4.44102148 C0.219345717,4.00648561 0.597132502,3.69517633 1.05436801,3.63032023 L3.84642314,3.21524118 L5.05923222,0.697203081 C5.26352894,0.274017025 5.70292902,0.00162140251 6.17799995,0 L6.18286416,0 C6.65307089,0 7.08922816,0.272395622 7.29676769,0.693960276 C7.29676769,0.695581678 7.29838909,0.695581678 7.29838909,0.697203081 L8.51119817,3.21524118 L11.3032533,3.63032023 C11.7588674,3.69679773 12.1382756,4.00648561 12.2923088,4.44102148 C12.2923088,4.44264289 12.2939302,4.44426429 12.2939302,4.44588569 C12.4430993,4.88366437 12.3312225,5.35873531 12.0036992,5.68788002 L9.9477608,7.73733279 L10.4244531,10.5812728 C10.5006591,11.0449939 10.2996051,11.5152006 9.91046854,11.7794893 C9.52295334,12.0437779 9.02356136,12.0713417 8.60848232,11.8492096 L6.17799995,10.5407377 L3.75076039,11.8475882 C3.5626777,11.9497365 3.35838098,12 3.15408427,12 Z M0.828993062,4.7085529 C0.781972389,4.84961492 0.819264646,5.00689096 0.92465581,5.11228212 L0.926277212,5.11390353 L3.12814183,7.31252533 C3.22056177,7.40494528 3.26271823,7.53627888 3.24164,7.66599108 L2.73089821,10.7158492 C2.70657717,10.8666396 2.77305467,11.0222943 2.90114547,11.1082286 C2.90276688,11.1082286 2.90276688,11.10985 2.90438828,11.10985 C3.04220749,11.2038914 3.21894037,11.2136198 3.36648799,11.1341711 L5.98667446,9.72355087 C6.10665824,9.65869477 6.25096307,9.65869477 6.37094685,9.72355087 L8.99113331,11.1341711 C9.13868094,11.2119984 9.31541382,11.2038914 9.45485443,11.1082286 C9.58294523,11.0206729 9.64942273,10.8666396 9.6251017,10.7142278 L9.1143599,7.66599108 C9.09328167,7.53627888 9.13543814,7.40494528 9.22785808,7.31252533 L11.4313441,5.11390353 C11.5383567,5.00689096 11.5756489,4.85123632 11.5286282,4.7085529 C11.475122,4.55938387 11.3454098,4.4539927 11.1881337,4.43129307 L11.1865123,4.43129307 L8.18205346,3.98378597 C8.04909845,3.96432914 7.93397887,3.88001621 7.87722979,3.75841103 L6.57200076,1.04904743 C6.49903765,0.9031212 6.34824722,0.809079854 6.18610697,0.809079854 L6.18124276,0.809079854 C6.0142383,0.809079854 5.86182646,0.9031212 5.79048475,1.04742602 L4.48363433,3.75841103 C4.42526384,3.88001621 4.31014426,3.96432914 4.17881065,3.98378597 L1.17273039,4.43129307 L1.17110899,4.43129307 C1.01221155,4.4539927 0.882499344,4.55938387 0.828993062,4.7085529 Z" id="形状"></path>
            </g>
        </g>
    </g>
</svg>