<?xml version="1.0" encoding="UTF-8"?>
<svg width="42px" height="42px" viewBox="0 0 42 42" version="1.1" xmlns="http://www.w3.org/2000/svg" xmlns:xlink="http://www.w3.org/1999/xlink">
    
    <g id="页面-1" stroke="none" stroke-width="1" fill="none" fill-rule="evenodd">
        <g id="个人中心组件" transform="translate(-434.000000, -23.000000)">
            <g id="编组-116" transform="translate(434.000000, 23.000000)">
                <rect id="矩形备份-139" x="0" y="0" width="42" height="42"></rect>
                <g id="编组-108" transform="translate(5.250000, 5.250000)" fill="#96A2B2" fill-rule="nonzero" stroke="#96A2B2" stroke-width="0.25">
                    <path d="M31.5,15.75 C31.5,7.05170456 24.4482954,0 15.75,0 C7.05170456,0 0,7.05170456 0,15.75 C0,24.4482954 7.05170456,31.5 15.75,31.5 C24.4482954,31.5 31.5,24.4482954 31.5,15.75 Z M1.4318182,15.75 C1.4318182,7.8420682 7.8420682,1.4318182 15.75,1.4318182 C23.6579318,1.4318182 30.0681818,7.8420682 30.0681818,15.75 C30.0681818,23.6579318 23.6579318,30.0681818 15.75,30.0681818 C7.8420682,30.0681818 1.4318182,23.6579318 1.4318182,15.75 Z" id="形状"></path>
                    <path d="M16.3517567,7.02495746 C16.4520422,6.99168085 16.5603929,6.99168085 16.6606784,7.02495746 L23.9237829,9.42564693 C24.12538,9.49222633 24.2616475,9.68056199 24.2616475,9.89286879 L24.2616475,18.4017014 C24.2616475,20.1197705 22.4033922,21.6598503 20.8444109,22.6492265 C19.2358131,23.6693177 17.2895476,24.5 16.5059222,24.5 C15.734701,24.5 13.787451,23.6529758 12.1652677,22.6120142 C10.6072709,21.6122027 8.75,20.070154 8.75,18.4009138 L8.75,9.89286879 C8.75,9.68056199 8.88626757,9.49222633 9.0878646,9.42564693 Z M16.5059222,8.01059278 L9.73445398,10.2490442 L9.73445398,18.4003232 C9.73445398,19.3414612 10.8142031,20.5747851 12.6968729,21.782907 C14.46889,22.9207389 16.1184411,23.515546 16.5059222,23.515546 C16.9020665,23.515546 18.5600839,22.9321586 20.3167436,21.8173629 C22.198232,20.6232202 23.2771936,19.3780829 23.2771936,18.4009138 L23.2771936,10.2486505 L16.5059222,8.01059278 Z M16.3377775,10.5810021 C17.8776604,10.5810021 19.1304765,11.8336214 19.1304765,13.3737012 C19.1304765,14.7446518 18.1359811,15.8895717 16.8300045,16.1228873 L16.8300045,16.8098393 L18.2787269,16.8098393 C18.5505764,16.8098393 18.7709539,17.0302168 18.7709539,17.3020663 C18.7709539,17.5739158 18.5505764,17.7942933 18.2787269,17.7942933 L16.8300045,17.7942933 L16.8300045,18.5958357 L18.2787269,18.5958357 C18.5505764,18.5958357 18.7709539,18.8162133 18.7709539,19.0880627 C18.7709539,19.3599122 18.5505764,19.5802897 18.2787269,19.5802897 L16.8300045,19.5802897 L16.8300045,21.0309811 C16.8300045,21.3028305 16.6096269,21.5232081 16.3377775,21.5232081 C16.065928,21.5232081 15.8455505,21.3028305 15.8455505,21.0309811 L15.8455505,16.1228873 C14.5395738,15.8895717 13.5450784,14.7456362 13.5450784,13.3737012 C13.5450784,11.8336214 14.7978946,10.5810021 16.3377775,10.5810021 Z M16.3377775,11.5654561 C15.3391113,11.5654561 14.5295324,12.375035 14.5295324,13.3737012 C14.5295324,14.3723673 15.3391113,15.1819462 16.3377775,15.1819462 C17.3364436,15.1819462 18.1460225,14.3723673 18.1460225,13.3737012 C18.1449374,12.3754848 17.3359938,11.5665412 16.3377775,11.5654561 Z" id="形状结合"></path>
                </g>
            </g>
        </g>
    </g>
</svg>