<?xml version="1.0" encoding="UTF-8"?>
<svg width="24px" height="24px" viewBox="0 0 24 24" version="1.1" xmlns="http://www.w3.org/2000/svg" xmlns:xlink="http://www.w3.org/1999/xlink">
    <title>编组 46备份</title>
    <g id="页面-1" stroke="none" stroke-width="1" fill="none" fill-rule="evenodd">
        <g id="资产组件" transform="translate(-27.000000, -28.000000)">
            <g id="编组-46备份" transform="translate(27.000000, 28.000000)">
                <g id="编组-34" transform="translate(3.000000, 2.000000)" fill-rule="nonzero">
                    <path d="M17.9676871,9.71938776 L17.8146258,9.94047619 C17.2619047,10.7908163 15.5102041,11.4710884 13.1207483,11.8622449 L12.9676871,11.8622449 L12.9676871,13.494898 L13.1717687,13.494898 C16.3690476,12.9846939 18.3503401,11.9047619 18.3503401,10.6887755 C18.3451756,10.4228563 18.2591614,10.1648136 18.1037415,9.94897959 L17.9676871,9.71938776 Z M17.9676871,6.57312926 L17.8146258,6.7942177 C17.2619047,7.64455783 15.5102041,8.32482994 13.1207483,8.71598639 L12.9676871,8.71598639 L12.9676871,10.3486395 L13.1802721,10.3486395 C16.377551,9.83843537 18.3588435,8.7585034 18.3588435,7.54251701 C18.353679,7.27659783 18.2676648,7.01855515 18.1122449,6.8027211 L17.9676871,6.57312926 Z M5.17857142,10.3401361 L5.39115646,10.3401361 L5.39115646,8.7414966 L5.23809523,8.7414966 C2.85714285,8.35884354 1.10544217,7.63605442 0.544217676,6.81972789 L0.399659863,6.57312926 L0.246598633,6.7942177 C0.0911787289,7.01005175 0.00516450345,7.26809443 0,7.53401362 C0,8.75 1.98129252,9.82142858 5.17857142,10.3401361 L5.17857142,10.3401361 Z M5.17857142,13.4778912 L5.39115646,13.4778912 L5.39115646,11.8792517 L5.23809523,11.8792517 C2.85714285,11.4965986 1.10544217,10.7738095 0.544217676,9.95748299 L0.399659863,9.71938776 L0.246598633,9.97448981 C0.0911787289,10.1903239 0.00516450345,10.4483665 0,10.7142857 C0,11.8962585 1.98129252,12.9676871 5.17857142,13.4778912 Z M17.9676871,15.9268707 L17.8146258,16.1479592 C16.9642857,17.4319728 13.3163265,18.3673469 9.18367346,18.3673469 C5.05102039,18.3673469 1.42006803,17.4319728 0.544217676,16.1479592 L0.399659863,15.9268707 L0.246598633,16.1479592 C0.0911787289,16.3637932 0.00516450345,16.6218359 0,16.8877551 C0,18.6309524 4.03061225,20 9.18367346,20 C14.3367347,20 18.3673469,18.6309524 18.3673469,16.8877551 C18.3621824,16.6218359 18.2761682,16.3637932 18.1207483,16.1479592 L17.9676871,15.9268707 Z" id="形状" fill="#333333"></path>
                    <path d="M5.17857142,16.5986395 L5.39115646,16.5986395 L5.39115646,15 L5.23809523,15 C2.85714285,14.6173469 1.10544217,13.8945578 0.544217676,13.0782313 L0.399659863,12.8401361 L0.246598633,13.0612245 C0.0911787289,13.2770585 0.00516450345,13.5351012 0,13.8010204 C0,15.0085034 1.98129252,16.0884354 5.17857142,16.5986395 L5.17857142,16.5986395 Z M17.9676871,12.8401361 L17.8146258,13.0612245 C17.2619047,13.9115646 15.5102041,14.5918367 13.1207483,14.9829932 L12.9676871,14.9829932 L12.9676871,16.6156463 L13.1802721,16.6156463 C16.377551,16.1054422 18.3588435,15.0255102 18.3588435,13.8095238 C18.353679,13.5436046 18.2676648,13.2855619 18.1122449,13.0697279 L17.9676871,12.8401361 Z" id="形状" fill="#333333"></path>
                    <path d="M0.178571426,3.61394559 C0.178571426,5.60987262 4.21029294,7.22789118 9.18367346,7.22789118 C14.157054,7.22789118 18.1887755,5.60987262 18.1887755,3.61394559 C18.1887755,1.61801855 14.157054,0 9.18367346,0 C4.21029294,0 0.178571426,1.61801855 0.178571426,3.61394559 Z" id="路径" fill="#333333"></path>
                    <path d="M8.7670068,17.1768707 C8.92586539,17.214618 9.08842907,17.2345819 9.25170068,17.2363946 C9.41220395,17.2351154 9.57201158,17.2151395 9.72789115,17.1768707 L9.79591836,17.1768707 L9.79591836,16.122449 C10.3226481,16.0350564 10.8112412,15.7922405 11.1989796,15.4251701 C11.541479,15.0765229 11.7285444,14.6042594 11.7176871,14.1156463 C11.7244635,13.8539754 11.678182,13.593642 11.5816327,13.3503401 C11.4968152,13.1494435 11.3691198,12.969509 11.207483,12.8231293 C11.0339812,12.6754262 10.8390035,12.5549988 10.6292517,12.4659864 C10.4081633,12.372449 10.1615646,12.2704082 9.89795918,12.1768707 L9.26020408,11.9557823 L8.94557822,11.8367347 C8.85312242,11.8008843 8.76475412,11.7552749 8.68197277,11.7006803 C8.61274558,11.6545011 8.55465408,11.593505 8.51190474,11.5221088 C8.46982233,11.4438466 8.44928084,11.3558116 8.45238094,11.2670068 C8.4474173,11.1677127 8.47422435,11.0694202 8.52891156,10.9863946 C8.58310701,10.9170612 8.65307422,10.8616705 8.73299318,10.8248299 C8.82955298,10.7795448 8.93303339,10.7508002 9.03911564,10.7397959 C9.32177945,10.7100025 9.60679197,10.7100025 9.88945578,10.7397959 L10.297619,10.7993197 L10.6377551,10.8843538 L10.9608844,10.994898 L11.0289116,10.994898 L11.0289116,10.9268707 C11.238472,10.6036153 11.3828975,10.2425515 11.4540816,9.86394559 L11.4540816,9.78741496 L11.377551,9.78741496 C11.079932,9.70238096 10.8078231,9.63435373 10.5272109,9.58333334 C10.2719954,9.52762752 10.0135589,9.48786804 9.75340135,9.46428572 L9.75340135,8.54591836 L9.68537414,8.54591836 C9.36938248,8.47166823 9.04048144,8.47166823 8.72448978,8.54591836 L8.65646258,8.54591836 L8.65646258,9.48979592 C8.12489818,9.5329958 7.61844995,9.73439041 7.20238094,10.0680272 C6.82021107,10.4074946 6.6110008,10.9008562 6.63265305,11.4115646 C6.62655333,11.64123 6.66705059,11.8697502 6.75170068,12.0833333 C6.82998391,12.26688 6.94585119,12.4319909 7.09183672,12.5680272 C7.24346802,12.7091571 7.41545884,12.8266841 7.6020408,12.9166667 C7.80959652,13.0187316 8.0224887,13.1095656 8.23979592,13.1887755 L8.80102041,13.3928571 L9.17517006,13.5289116 C9.28761508,13.5657261 9.39591133,13.6141744 9.49829931,13.6734694 C9.58841555,13.7244746 9.6666724,13.7940362 9.72789115,13.877551 C9.78743874,13.965062 9.8172522,14.0694091 9.81292515,14.1751701 C9.82667299,14.4032552 9.7028193,14.6174887 9.49829931,14.7193878 C9.18875979,14.8583595 8.85083289,14.922449 8.51190474,14.9064626 C8.22735577,14.9083059 7.94308181,14.8884067 7.66156463,14.8469388 C7.37243098,14.8052797 7.0877713,14.7369614 6.81122449,14.6428571 L6.73469387,14.6428571 L6.73469387,14.7193878 C6.65816326,14.914966 6.59013603,15.1020408 6.53061224,15.2806122 C6.47395331,15.4578841 6.4340952,15.6400925 6.41156463,15.8248299 L6.41156463,15.8928571 L6.47959183,15.8928571 L6.98979592,16.0459184 C7.15136055,16.0884354 7.32142857,16.122449 7.4914966,16.1479592 C7.66156463,16.1734694 7.83163265,16.1989796 8.01870748,16.207483 L8.63945578,16.207483 L8.63945578,17.1428571 L8.7670068,17.1768707 Z" id="路径" fill="#90ff00"></path>
                </g>
                <rect id="矩形" x="0" y="0" width="24" height="24"></rect>
            </g>
        </g>
    </g>
</svg>