<?xml version="1.0" encoding="UTF-8"?>
<svg width="24px" height="24px" viewBox="0 0 24 24" version="1.1" xmlns="http://www.w3.org/2000/svg" xmlns:xlink="http://www.w3.org/1999/xlink">
    <g id="页面-1" stroke="none" stroke-width="1" fill="none" fill-rule="evenodd">
        <g id="首页列表组件" transform="translate(-988.000000, -52.000000)">
            <g id="编组-51备份" transform="translate(988.000000, 52.000000)">
                <g id="编组" transform="translate(3.000000, 4.000000)" fill-rule="nonzero">
                    <path d="M11.1294643,16.7853623 L3.25446429,16.7853623 C1.52678571,16.7853623 0.723214286,15.9817908 0.723214286,14.6157194 L0.723214286,6.17821942 C0.160714286,6.01750513 0,5.73625513 0,5.25411227 L0,3.44607656 C0,2.84339799 0.28125,2.56214799 1.64732143,2.56214799 L16.7946429,2.56214799 C17.71875,2.56214799 18,2.92375513 18,3.5264337 L18,5.25411227 C18,5.85679084 17.7991071,6.17821942 17.0758929,6.21839799 C17.15625,6.66036227 17.0758929,13.2094694 17.0758929,14.5353623 C17.0758929,15.9014337 16.3125,16.7853623 14.5848214,16.7853623 L11.1294643,16.7853623 Z" id="路径" fill="#A4BEFF"></path>
                    <polygon id="路径" fill="#5B79FB" points="0.763392857 6.21839799 17.15625 6.21839799 17.15625 8.8701837 0.763392857 8.8701837"></polygon>
                    <polygon id="路径" fill="#F7554D" points="8.15022321 6.21839799 10.9225446 6.21839799 10.9225446 16.7451837 8.15022321 16.7451837"></polygon>
                    <path d="M13.0881696,1.18603192 C13.0078125,0.583353344 12.8069196,-0.300575227 12.0435268,0.101210487 C11.1997768,0.583353344 9.75334821,1.30656763 9.31138393,1.58781763 C9.26316964,1.61795156 9.21897321,1.64808549 9.17879464,1.68022834 C9.140625,1.64808549 9.10044643,1.61594263 9.05424107,1.58781763 C8.61227679,1.3467462 7.20602679,0.583353344 6.32209821,0.101210487 C5.59888393,-0.300575227 5.3578125,0.583353344 5.27745536,1.18603192 C5.19709821,1.78871049 5.19709821,2.59228192 6.00066964,2.59228192 L7.55357143,2.59228192 L7.55357143,16.7853623 L10.3258929,16.7853623 L10.3258929,2.59228192 L12.3649554,2.59228192 C13.1283482,2.59228192 13.1283482,1.78871049 13.0881696,1.18603192 Z" id="路径" fill="#FF7E71"></path>
                </g>
                <rect id="矩形备份-43" x="0" y="0" width="24" height="24"></rect>
            </g>
        </g>
    </g>
</svg>