<?xml version="1.0" encoding="UTF-8"?>
<svg width="42px" height="42px" viewBox="0 0 42 42" version="1.1" xmlns="http://www.w3.org/2000/svg" xmlns:xlink="http://www.w3.org/1999/xlink">
    
    <g id="页面-1" stroke="none" stroke-width="1" fill="none" fill-rule="evenodd">
        <g id="个人中心组件" transform="translate(-244.000000, -23.000000)">
            <g id="编组-119" transform="translate(244.000000, 23.000000)">
                <rect id="矩形备份-135" x="0" y="0" width="42" height="42"></rect>
                <g id="编组-105" transform="translate(5.250000, 5.250000)" fill="#96A2B2" fill-rule="nonzero">
                    <path d="M17.97075,20.7040909 C17.97075,19.1591591 17.0758636,18.3974318 16.0907727,17.5684091 L15.2846591,16.9412728 C15.0383864,16.7408182 14.7033409,16.4716364 14.7033409,15.9790909 C14.7033409,15.4865455 15.0398182,15.1729773 15.3304772,14.8823182 C16.26975,14.1435 17.2104545,13.3602955 17.2104545,11.7036819 C17.2104545,10.0012501 16.1351591,9.10636367 15.6211363,8.68111367 L15.6211363,8.68111367 L17.0085681,8.68111367 L18.4403864,7.875 L13.8285,7.875 C12.6200454,7.875 11.0980227,8.05397728 9.82084092,9.10636364 C8.85865908,9.93395456 8.38902272,11.0765454 8.38902272,12.1060227 C8.38902272,13.8514091 9.73206817,15.6211364 12.1045909,15.6211364 C12.3293864,15.6211364 12.5742273,15.5982273 12.8219318,15.57675 C12.71025,15.8459318 12.5985682,16.0692954 12.5985682,16.4501591 C12.5985682,17.1431591 12.9565228,17.5698409 13.2700909,17.9721818 C12.2635227,18.0394772 10.3821136,18.1511591 8.99468183,19.0016591 C7.67311364,19.7848636 7.27077275,20.9274545 7.27077275,21.7335682 C7.27077275,23.3901818 8.83861367,24.9351136 12.0845455,24.9351136 C15.9332727,24.9351136 17.97075,22.8074318 17.97075,20.7040909 Z M13.1569773,14.9954318 C11.2311818,14.9954318 10.3577727,12.5097954 10.3577727,11.0106818 C10.3577727,10.4279318 10.4694545,9.82513636 10.8503182,9.35406817 C11.2082727,8.90590908 11.8354091,8.61381817 12.4181591,8.61381817 C14.2766591,8.61381817 15.2388409,11.1223636 15.2388409,12.7331591 C15.2388409,13.1369318 15.1944545,13.8528409 14.679,14.3682954 C14.3210454,14.72625 13.7168182,14.994 13.1569773,14.9954318 Z M13.1798864,23.9944091 C10.7844546,23.9944091 9.23952272,22.85325 9.23952272,21.2639318 C9.23952272,19.6746136 10.6727727,19.1376818 11.1653182,18.9587045 C12.1060227,18.6451363 13.3144772,18.5993182 13.5163636,18.5993182 C13.7397272,18.5993182 13.8514091,18.5993182 14.0303863,18.6222272 C15.7328181,19.8306818 16.4702045,20.4349091 16.4702045,21.5775 C16.4702045,22.9649318 15.3290454,23.9944091 13.1798864,23.9944091 Z" id="形状"></path>
                    <polygon id="路径" points="18.1726364 16.3556591 20.5967046 16.3556591 20.5967046 18.7782954 21.8080227 18.7782954 21.8080227 16.3556591 24.2306591 16.3556591 24.2306591 15.1443409 21.8080227 15.1443409 21.8080227 12.7217046 20.5967046 12.7217046 20.5967046 15.1443409 18.1726364 15.1443409"></polygon>
                    <path d="M31.5,15.75 C31.5,7.05170456 24.4482954,0 15.75,0 C7.05170456,0 0,7.05170456 0,15.75 C0,24.4482954 7.05170456,31.5 15.75,31.5 C24.4482954,31.5 31.5,24.4482954 31.5,15.75 Z M1.4318182,15.75 C1.4318182,7.8420682 7.8420682,1.4318182 15.75,1.4318182 C23.6579318,1.4318182 30.0681818,7.8420682 30.0681818,15.75 C30.0681818,23.6579318 23.6579318,30.0681818 15.75,30.0681818 C7.8420682,30.0681818 1.4318182,23.6579318 1.4318182,15.75 Z" id="形状" stroke="#96A2B2" stroke-width="0.25"></path>
                </g>
            </g>
        </g>
    </g>
</svg>