<?xml version="1.0" encoding="UTF-8"?>
<svg width="24px" height="24px" viewBox="0 0 24 24" version="1.1" xmlns="http://www.w3.org/2000/svg" xmlns:xlink="http://www.w3.org/1999/xlink">
    <title>编组 27</title>
    <g id="页面-1" stroke="none" stroke-width="1" fill="none" fill-rule="evenodd">
        <g id="个人-帮助中心" transform="translate(-677.000000, -773.000000)">
            <g id="编组-27" transform="translate(677.000000, 773.000000)">
                <rect id="矩形备份-29" x="0" y="0" width="24" height="24"></rect>
                <g id="编组" transform="translate(4.000000, 6.000000)" fill="#8992a6" fill-rule="nonzero">
                    <path d="M14.9333333,4.4408921e-16 L1.06666667,4.4408921e-16 C0.48,4.4408921e-16 0,0.48 0,1.06666667 L0,10.6666667 C0,11.2533333 0.48,11.7333333 1.06666667,11.7333333 L14.9333333,11.7333333 C15.52,11.7333333 16,11.2533333 16,10.6666667 L16,1.06666667 C16,0.48 15.52,4.4408921e-16 14.9333333,4.4408921e-16 L14.9333333,4.4408921e-16 Z M13.6325333,7.09653334 L12.9213333,9.22986667 C12.8488404,9.4476607 12.6450085,9.59454435 12.4154667,9.59440011 L9.27333333,9.59440011 C9.10194378,9.59435558 8.94101799,9.51194743 8.84080608,9.37290803 C8.74059418,9.23386864 8.71330757,9.05514076 8.76746667,8.89253334 L9.47866667,6.7592 C9.55120735,6.54140366 9.7549742,6.3944595 9.98453333,6.3944 L13.1269333,6.3944 C13.2983411,6.39450155 13.4592542,6.47698077 13.559417,6.61607807 C13.6595797,6.75517538 13.6867839,6.9339372 13.6325333,7.09653334 L13.6325333,7.09653334 Z M13.3306667,3.2 L2.664,3.2 C2.37066667,3.2 2.13066667,2.96 2.13066667,2.66666667 C2.13066667,2.37333334 2.37066667,2.13333334 2.664,2.13333334 L13.3306667,2.13333334 C13.624,2.13333334 13.864,2.37333334 13.864,2.66666667 C13.864,2.96 13.624,3.2 13.3306667,3.2 Z" id="形状"></path>
                </g>
            </g>
        </g>
    </g>
</svg>