<?xml version="1.0" encoding="UTF-8"?>
<svg width="24px" height="24px" viewBox="0 0 24 24" version="1.1" xmlns="http://www.w3.org/2000/svg" xmlns:xlink="http://www.w3.org/1999/xlink">
    <title>编组 26</title>
    <g id="页面-1" stroke="none" stroke-width="1" fill="none" fill-rule="evenodd">
        <g id="个人-帮助中心" transform="translate(-1149.000000, -773.000000)">
            <g id="编组-26" transform="translate(1149.000000, 773.000000)">
                <rect id="矩形备份-30" x="0" y="0" width="24" height="24"></rect>
                <g id="编组" transform="translate(4.000000, 6.000000)" fill="#8992a6" fill-rule="nonzero">
                    <path d="M0,0.875996838 C0.669657291,1.10016459 1.33309928,1.34580359 2.01118375,1.54002978 C2.39234772,1.64883059 2.77108223,1.55099523 3.11501623,1.33313097 C3.81490026,0.8899827 4.53756877,0.489120332 5.31979209,0.206973639 C5.99124477,-0.0353166375 6.62842222,0.0252887687 7.22488967,0.426873399 C7.30000621,0.477498278 7.36428866,0.54466981 7.44715324,0.61604366 C7.10991669,0.803047097 6.78935812,0.974029179 6.47589098,1.15735559 C6.09833837,1.37784631 5.7209171,1.59886231 5.35459258,1.83675329 C4.6848471,2.27235049 4.42449995,3.02390999 4.682155,3.73843648 C4.92208147,4.40470191 5.64652283,4.88613072 6.2852105,4.78251717 C6.49742789,4.74751968 6.70846339,4.67437298 6.90735152,4.58802832 C7.41773697,4.366684 7.92004608,4.12780813 8.42622921,3.89654895 C8.91606268,3.67257819 9.30517167,3.74473997 9.69001266,4.12859606 C10.6738162,5.11069246 11.6570289,6.09344546 12.6420144,7.07501655 C12.9394601,7.3716744 12.9573857,7.81114563 12.6793757,8.09591877 C12.397032,8.38522256 11.9576264,8.37025178 11.647311,8.06289114 C11.3294445,7.74745415 11.0124973,7.43103223 10.6879991,7.122621 C10.6235197,7.06004575 10.5535904,6.92333888 10.4401933,7.02695247 C10.4163582,7.04973695 10.476307,7.20601089 10.5334323,7.26832348 C10.8309438,7.59571083 11.1386984,7.91357729 11.4452711,8.23275697 C11.8125149,8.61424925 11.7360851,9.18510878 11.2868304,9.40225077 C11.0013349,9.54073049 10.6830088,9.46548262 10.4343494,9.21662622 C10.0432009,8.82730353 9.64928869,8.44076744 9.2526426,8.05704727 C9.20182074,8.00727598 9.13156312,7.97602121 9.05145632,7.92342649 C9.01672149,8.10051507 9.1142942,8.18383929 9.18960773,8.26611291 C9.48265422,8.58345408 9.78180719,8.89514837 10.0804349,9.20723664 C10.2150406,9.34696393 10.3072947,9.50225297 10.3127446,9.70192903 C10.3201644,10.0034458 10.1623146,10.2578834 9.89349709,10.3729221 C9.62014901,10.4902589 9.32027376,10.4224964 9.10694012,10.2023996 C8.76824863,9.85630815 8.42822992,9.51151801 8.0868915,9.16803683 C8.03199863,9.11320964 7.974348,9.05818544 7.90881799,9.01773807 C7.8726386,8.99521624 7.81873067,9.00283294 7.77276773,8.99685777 C7.77342434,9.04400259 7.75937282,9.09889546 7.77821763,9.13730733 C7.80743691,9.19673084 7.85576365,9.24820931 7.90231752,9.29725831 C8.1671953,9.57572799 8.44060904,9.84802548 8.70062788,10.1324703 C8.92503233,10.3752362 8.94552851,10.7431207 8.7494799,11.0093116 C8.51152327,11.3337442 8.0485453,11.393102 7.74282617,11.127896 C7.6061193,11.008655 7.48438321,10.8710945 7.36271279,10.7355696 C7.33802414,10.7078605 7.33474107,10.6509321 7.33881206,10.6097625 C7.41176178,9.84651526 7.02488527,9.20658004 6.32342539,8.92009968 C6.26682534,8.8976435 6.20963431,8.8326388 6.18908233,8.77360928 C6.02453506,8.3048531 5.72163938,7.97155623 5.26135351,7.77785534 C5.20488477,7.75388895 5.14828471,7.68967218 5.12569721,7.63189022 C4.95734158,7.19491413 4.66331019,6.88676554 4.23040509,6.70580293 C4.17288577,6.68177089 4.11050751,6.62083719 4.09008685,6.5629239 C3.79310069,5.73513163 2.96097477,5.37445399 2.12418689,5.57360477 C1.5367807,5.71333206 1.12915523,6.07112061 0.896517163,6.62851956 C0.890365544,6.64275933 0.88312117,6.65650169 0.874848927,6.66962355 C0.869202047,6.67802821 0.861585346,6.6855136 0.846877204,6.70120664 C0.567553942,6.60429053 0.283634394,6.50592988 0,6.40684694 C0,4.56301138 0,2.71937278 0,0.875996838 L0,0.875996838 Z M16,6.25024469 C15.4417474,6.35188842 14.886581,6.46587648 14.3262929,6.54860973 C13.9332443,6.60717962 13.5931186,6.4727709 13.306113,6.18806341 C12.2303835,5.12093562 11.1487446,4.05997999 10.0729495,2.99324615 C9.74549648,2.66855092 9.3607868,2.59146451 8.95670703,2.77873061 C8.33995024,3.06521095 7.73993708,3.3893809 7.13309514,3.69864572 C6.94786456,3.7927384 6.76506344,3.8925436 6.57937322,3.98591402 C6.12847692,4.21264256 5.59773647,4.04277673 5.36076476,3.59778993 C5.1293086,3.16403124 5.28551688,2.6258054 5.71894726,2.38121697 C6.98686738,1.66524591 8.25590374,0.951507352 9.52454613,0.237046512 C9.52914241,0.234354391 9.53354174,0.232187567 9.53794104,0.229167153 C10.0804349,-0.125010016 10.5885222,-0.0565909249 11.069951,0.351165901 C11.6099497,0.80902229 12.1522466,1.26431791 12.6909977,1.72361884 C12.9553502,1.94942812 13.2542405,2.0221152 13.5908205,1.94883717 C14.3480268,1.78409292 15.1043139,1.61777278 15.8610606,1.45315985 C15.905973,1.44337631 15.9531178,1.44304802 16,1.43805774 L16,6.25024469 L16,6.25024469 Z M4.75635228,10.2451452 C4.59771453,10.2872341 4.4644877,10.3316868 4.32850311,10.3561785 C4.10912862,10.3968885 3.88988547,10.4035859 3.70616511,10.2444885 C3.50268067,10.0677939 3.4269075,9.84914173 3.51134797,9.58551151 C3.55199232,9.45944177 3.59506615,9.33324071 3.6443778,9.18445216 C3.48199736,9.22595012 3.34397725,9.26580653 3.20411864,9.29417223 C2.7016782,9.39765446 2.31670587,8.96435541 2.47836405,8.47924956 C2.51605365,8.3657868 2.55755161,8.25462219 2.60771686,8.11194014 C2.50896224,8.13662879 2.43036564,8.15008938 2.35629965,8.17628823 C1.64420262,8.42599824 1.28667672,7.83399575 1.40624599,7.311069 C1.52437071,6.79359212 1.9540584,6.34505963 2.44664964,6.27460503 C3.01875672,6.19259405 3.48495211,6.66351703 3.39361721,7.23142182 C3.38724807,7.27193486 3.38041928,7.31257921 3.37011046,7.37640202 C3.6873203,7.33214628 3.981877,7.35690061 4.21549998,7.58980131 C4.45358794,7.82703566 4.46619492,8.1225116 4.41268093,8.44668155 C4.75070542,8.41529545 5.06246538,8.43860521 5.29287094,8.71116536 C5.51907419,8.97945752 5.52695355,9.2860959 5.4309567,9.61492779 C5.55531924,9.6030431 5.66247852,9.58111221 5.76904684,9.58413262 C6.33708294,9.59903775 6.70386708,10.1129689 6.55350266,10.6770653 C6.39348603,11.2766189 5.54481343,11.7099179 4.96758476,11.4862755 C4.63159577,11.3560691 4.47262971,11.037152 4.58156185,10.6907885 C4.62660552,10.5478438 4.69069096,10.4112026 4.75635228,10.2452765 L4.75635228,10.2451452 L4.75635228,10.2451452 Z" id="形状"></path>
                </g>
            </g>
        </g>
    </g>
</svg>