<?xml version="1.0" encoding="UTF-8"?>
<svg width="24px" height="24px" viewBox="0 0 24 24" version="1.1" xmlns="http://www.w3.org/2000/svg" xmlns:xlink="http://www.w3.org/1999/xlink">
    <title>编组 22</title>
    <g id="页面-1" stroke="none" stroke-width="1" fill="none" fill-rule="evenodd">
        <g id="个人-帮助中心" transform="translate(-219.000000, -843.000000)">
            <g id="编组-22" transform="translate(219.000000, 843.000000)">
                <rect id="矩形备份-33" x="0" y="0" width="24" height="24"></rect>
                <g id="编组" transform="translate(4.000000, 4.000000)" fill="#8992a6" fill-rule="nonzero">
                    <path d="M8.38116291,2.95519678 L8.38116291,6.47629574 C8.38116291,6.89714226 8.0399994,7.23830577 7.61915288,7.23830577 C7.19830637,7.23830577 6.85714286,6.89714226 6.85714286,6.47629574 L6.85714286,2.87814313 L5.42596613,4.30995145 C5.23349146,4.50242611 4.95295352,4.57759603 4.69002824,4.50714541 C4.42710295,4.43669479 4.22173492,4.23132677 4.1512843,3.96840148 C4.08083369,3.70547619 4.1560036,3.42493825 4.34847827,3.23246359 L7.58094185,0 L10.8134054,3.23246359 C11.0058801,3.42493825 11.08105,3.7054762 11.0105994,3.96840149 C10.9401488,4.23132679 10.7347808,4.43669482 10.4718555,4.50714544 C10.2089302,4.57759606 9.92839224,4.50242613 9.73591758,4.30995145 L8.38116291,2.95519678 Z M9.14285714,5.3331228 L14.4766115,5.3331228 C14.8972486,5.3331228 15.2383058,5.67417992 15.2383058,6.09481704 L15.2383058,8.38116291 L0,8.38116291 L0,6.09481704 C0,5.67417992 0.341057119,5.3331228 0.761694233,5.3331228 L6.09544862,5.3331228 L6.09544862,6.47629574 C6.08421447,7.02805764 6.37214879,7.54278296 6.84820417,7.82195796 C7.32425954,8.10113295 7.91404623,8.10113295 8.3901016,7.82195796 C8.86615698,7.54278296 9.1540913,7.02805764 9.14285714,6.47629574 L9.14285714,5.3331228 L9.14285714,5.3331228 Z M15.2383058,9.90455138 L15.2383058,15.2383058 C15.2383058,15.6589429 14.8972486,16 14.4766115,16 L0.761694233,16 C0.341057119,16 0,15.6589429 0,15.2383058 L0,9.90455138 L15.2383058,9.90455138 Z M1.52402005,12.5711128 L5.71460151,12.5711128 L5.71460151,11.0483559 L1.52402005,11.0483559 L1.52402005,12.5717444 L1.52402005,12.5711128 Z" id="形状"></path>
                </g>
            </g>
        </g>
    </g>
</svg>