<?xml version="1.0" encoding="UTF-8"?>
<svg width="24px" height="24px" viewBox="0 0 24 24" version="1.1" xmlns="http://www.w3.org/2000/svg" xmlns:xlink="http://www.w3.org/1999/xlink">
    <title>编组 23</title>
    <g id="页面-1" stroke="none" stroke-width="1" fill="none" fill-rule="evenodd">
        <g id="个人-帮助中心" transform="translate(-677.000000, -913.000000)">
            <g id="编组-23" transform="translate(677.000000, 913.000000)">
                <rect id="矩形备份-32" x="0" y="0" width="24" height="24"></rect>
                <g id="编组" transform="translate(5.000000, 4.000000)" fill="#8992a6" fill-rule="nonzero">
                    <path d="M7.19329259,0.168236688 L12.9932926,2.64927198 C13.3613115,2.8066975 13.6,3.16840952 13.6,3.56868535 L13.6,7.2728 L13.6,7.2728 C13.6,9.01120001 13.1168,10.6248 12.1496,12.124 L11.2272,13.316 C9.99599999,14.7056 8.5232,15.6 6.8,16 C4.8656,15.556 3.24880001,14.4944 1.9496,12.8216 C0.649600012,11.156 0,9.30959999 0,7.2728 L0,3.56868535 C1.73024954e-16,3.16840952 0.238688469,2.8066975 0.606707412,2.64927198 L6.40670741,0.168236688 C6.6578942,0.0607878446 6.9421058,0.0607878446 7.19329259,0.168236688 Z M7.6,8.80000001 L3.6,8.80000001 L3.6,10 L7.6,10 L7.6,8.80000001 Z M10,5.6 L3.6,5.6 L3.6,6.8 L10,6.8 L10,5.6 Z" id="形状"></path>
                </g>
            </g>
        </g>
    </g>
</svg>