<?xml version="1.0" encoding="UTF-8"?>
<svg width="24px" height="24px" viewBox="0 0 24 24" version="1.1" xmlns="http://www.w3.org/2000/svg" xmlns:xlink="http://www.w3.org/1999/xlink">
    <title>编组 15</title>
    <g id="页面-1" stroke="none" stroke-width="1" fill="none" fill-rule="evenodd">
        <g id="个人-帮助中心" transform="translate(-1149.000000, -843.000000)">
            <g id="编组-15" transform="translate(1149.000000, 843.000000)">
                <rect id="矩形备份-35" x="0" y="0" width="24" height="24"></rect>
                <g id="编组" transform="translate(4.000000, 4.000000)" fill="#8992a6" fill-rule="nonzero">
                    <path d="M15.9592792,0.87679295 L15.1276009,0.0451146353 C15.0962168,0.0137305553 15.0569867,0 15.0157951,0 C14.9746035,0 14.9353734,0.0156920485 14.9039893,0.0451146353 L13.4112836,1.53782028 C12.7623738,1.0981547 11.9962651,0.863743212 11.212436,0.865023905 C10.2081452,0.865023905 9.20385442,1.24751746 8.43690579,2.01446611 L6.43813173,4.01324017 C6.37735113,4.07462316 6.37735113,4.1735073 6.43813173,4.23489029 L11.767542,9.5643006 C11.7989261,9.59568468 11.8381562,9.60941523 11.8793479,9.60941523 C11.918578,9.60941523 11.9597696,9.59372318 11.9911537,9.5643006 L13.9899277,7.56552654 C15.341405,6.21208777 15.5002869,4.11916145 14.4665735,2.59311022 L15.9592792,1.10040456 C16.0200859,1.03763639 16.0200859,0.937599617 15.9592792,0.87679295 L15.9592792,0.87679295 Z M9.31369872,8.68162315 C9.25231573,8.62084255 9.15343159,8.62084255 9.0920486,8.68162315 L7.78568596,9.98798579 L6.01444654,8.21674636 L7.32277069,6.90842221 C7.38357735,6.84761555 7.38357735,6.74757876 7.32277069,6.68677209 L6.6087827,5.97278411 C6.54739971,5.91200351 6.44851557,5.91200351 6.38713258,5.97278411 L5.07880845,7.28110826 L4.23536111,6.43766091 C4.20577395,6.40805066 4.16540684,6.39176217 4.12355529,6.39254628 C4.08432519,6.39254628 4.04313357,6.40823833 4.01174947,6.43766091 L2.01493692,8.43643497 C0.663459668,9.78791223 0.504577724,11.8828001 1.53829109,13.4088513 L0.0455854501,14.9015569 C-0.01519515,14.9629399 -0.01519515,15.0618241 0.0455854501,15.1232071 L0.877263765,15.9548854 C0.908647845,15.9862694 0.947877966,16 0.989069564,16 C1.03026116,16 1.06949128,15.984308 1.10087538,15.9548854 L2.59358104,14.4621797 C3.25460838,14.9113645 4.02351852,15.1349761 4.79242864,15.1349761 C5.79671944,15.1349761 6.80101022,14.7524825 7.56795886,13.9855339 L9.56673292,11.9867598 C9.62753959,11.9259532 9.62753959,11.8259164 9.56673292,11.7651097 L8.72328558,10.9216624 L10.0316097,9.61333824 C10.0924164,9.55253157 10.0924164,9.45249478 10.0316097,9.39168811 L9.31369872,8.68162315 L9.31369872,8.68162315 Z" id="形状"></path>
                </g>
            </g>
        </g>
    </g>
</svg>