<?xml version="1.0" encoding="UTF-8"?>
<svg width="24px" height="24px" viewBox="0 0 24 24" version="1.1" xmlns="http://www.w3.org/2000/svg" xmlns:xlink="http://www.w3.org/1999/xlink">
    <title>编组 12</title>
    <g id="页面-1" stroke="none" stroke-width="1" fill="none" fill-rule="evenodd">
        <g id="个人-帮助中心" transform="translate(-1608.000000, -843.000000)">
            <g id="编组-12" transform="translate(1608.000000, 843.000000)">
                <rect id="矩形备份-36" x="0" y="0" width="24" height="24"></rect>
                <g id="编组" transform="translate(4.000000, 7.000000)" fill="#8992a6" fill-rule="nonzero">
                    <path d="M0.848701047,6.49181853 C0.610469174,6.49181853 0.409461031,6.41240791 0.245676619,6.25358666 C0.0818922063,6.09476541 8.8817842e-16,5.89623885 8.8817842e-16,5.65800698 L8.8817842e-16,4.54129508 C8.8817842e-16,4.3030632 0.0818922063,4.10205506 0.245676619,3.93827065 C0.409461031,3.77448623 0.610469174,3.69259403 0.848701047,3.69259403 L11.6286933,3.69259403 C11.4500194,3.80178364 11.3060876,3.9308259 11.196898,4.07972082 C11.0877084,4.22861574 11.0331136,4.37751066 11.0331136,4.52640558 L11.0331136,5.12198527 L11.0480031,5.58355952 C10.9884451,5.59348585 10.9040713,5.59844901 10.7948817,5.59844901 L9.78239628,5.59844901 C8.97836371,5.59844901 8.53664211,5.89623885 8.45723149,6.49181853 L0.848701047,6.49181853 Z M2.69499806,2.73966654 C2.46669252,2.73966654 2.26816596,2.65777433 2.09941838,2.49398992 C1.9306708,2.33020551 1.84629701,2.12919736 1.84629701,1.89096549 L1.84629701,0.863590539 C1.84629701,0.635284994 1.9306708,0.434276851 2.09941838,0.260566111 C2.26816596,0.0868553703 2.46669252,0 2.69499806,0 L14.040791,0 C14.2690965,0 14.4651415,0.0868553703 14.6289259,0.260566111 C14.7927104,0.434276851 14.8746026,0.635284994 14.8746026,0.863590539 L14.8746026,1.89096549 C14.8746026,2.12919736 14.7927104,2.33020551 14.6289259,2.49398992 C14.4651415,2.65777433 14.2690965,2.73966654 14.040791,2.73966654 L2.69499806,2.73966654 Z M10.4375339,9.32082202 C10.6162078,9.32082202 10.7526948,9.3108957 10.846995,9.29104304 C10.9412951,9.27119038 11.0107794,9.27615355 11.0554478,9.30593253 C11.1001163,9.33571152 11.1274137,9.40519581 11.1373401,9.51438542 C11.1472664,9.62357503 11.1522295,9.8072121 11.1522295,10.0652966 L11.1522295,10.1695231 C11.1522295,10.2092284 11.1571927,10.2439705 11.167119,10.2737495 L0.848701047,10.2737495 C0.610469174,10.2737495 0.409461031,10.1893757 0.245676619,10.0206282 C0.0818922063,9.85188057 0,9.65335401 0,9.42504847 L0,8.30833656 C0,8.08003102 0.0818922063,7.88150446 0.245676619,7.71275688 C0.409461031,7.54400931 0.610469174,7.45963552 0.848701047,7.45963552 L8.4274525,7.45963552 L8.4274525,7.80209383 C8.4274525,8.23885227 8.54905002,8.59868166 8.79224506,8.88158201 C9.03544009,9.16448236 9.32082202,9.30593253 9.64839085,9.30593253 L9.94618069,9.30593253 C9.985886,9.30593253 10.015665,9.30841411 10.0355176,9.31337728 C10.0553703,9.31834044 10.0901124,9.32082202 10.1397441,9.32082202 L10.4375339,9.32082202 L10.4375339,9.32082202 Z M15.7828616,6.90872431 C15.8523459,6.96828228 15.9044591,7.03776658 15.9392012,7.1171772 C15.9739434,7.19658782 15.993796,7.28096161 15.9987592,7.37029857 C16.0037224,7.45963552 15.993796,7.54152772 15.9689802,7.61597518 C15.9441644,7.69042264 15.9019775,7.74749903 15.8424195,7.78720434 C15.6835983,7.92617294 15.4677007,8.08003102 15.1947266,8.2487786 C14.9217526,8.41752617 14.6338891,8.5937185 14.3311361,8.77735556 C14.0283831,8.96099263 13.7330748,9.14214812 13.4452113,9.32082202 C13.1573478,9.49949593 12.9240791,9.65831718 12.7454052,9.79728577 C12.5170997,9.99581233 12.3483521,10.1000388 12.2391625,10.1099651 C12.1299729,10.1198914 12.0753781,9.98092284 12.0753781,9.69305933 L12.0753781,8.94858472 C12.0753781,8.75005816 12.0331912,8.61108957 11.9488174,8.53167895 C11.8644436,8.45226832 11.7428461,8.41256301 11.5840248,8.41256301 L9.79728577,8.41256301 C9.65831718,8.41256301 9.53671966,8.37533928 9.43249321,8.30089182 C9.32826677,8.22644436 9.27615355,8.09988368 9.27615355,7.92120977 L9.27615355,7.17673517 C9.27615355,6.869019 9.32330361,6.68290035 9.41760372,6.61837922 C9.51190384,6.55385808 9.683133,6.52159752 9.9312912,6.52159752 L10.2141915,6.52159752 C10.2836758,6.52159752 10.3680496,6.5240791 10.4673129,6.52904226 C10.5665762,6.53400543 10.6906553,6.53648701 10.8395502,6.53648701 L11.4797984,6.53648701 C11.7081039,6.53648701 11.8644436,6.45955797 11.9488174,6.30569988 C12.0331912,6.1518418 12.0753781,5.98061264 12.0753781,5.79201241 L12.0753781,5.09220628 C12.0753781,4.89367972 12.1150834,4.76711904 12.194494,4.71252423 C12.2739046,4.65792943 12.3979837,4.70011632 12.5667313,4.83908492 C12.7454052,4.96812718 12.9786739,5.12198527 13.2665374,5.30065917 C13.5544009,5.47933307 13.8571539,5.66297014 14.1747964,5.85157038 C14.4924389,6.04017061 14.7951919,6.22628926 15.0830554,6.40992633 C15.370919,6.5935634 15.6041877,6.75982939 15.7828616,6.90872431 L15.7828616,6.90872431 Z" id="形状"></path>
                </g>
            </g>
        </g>
    </g>
</svg>