<?xml version="1.0" encoding="UTF-8"?>
<svg width="24px" height="24px" viewBox="0 0 24 24" version="1.1" xmlns="http://www.w3.org/2000/svg" xmlns:xlink="http://www.w3.org/1999/xlink">
    <title>编组 21</title>
    <g id="页面-1" stroke="none" stroke-width="1" fill="none" fill-rule="evenodd">
        <g id="个人-帮助中心" transform="translate(-679.000000, -843.000000)">
            <g id="编组-21" transform="translate(679.000000, 843.000000)">
                <g id="矩形备份-37">
                    <rect id="矩形备份-34" x="0" y="0" width="24" height="24"></rect>
                </g>
                <path d="M13.9992958,4 C14.1260242,4 14.2479777,4.04835182 14.340254,4.1352148 L18.0874566,7.6599807 C18.1871984,7.75429719 18.2439552,7.88492136 18.2435402,8.02264013 L18.2435402,18.1942148 C18.2435402,19.1899632 17.4335011,20 16.43817,20 L6.80578523,20 C5.81003678,20 5,19.1899632 5,18.1942148 L5,5.8053679 C5,4.81003678 5.81003678,4 6.80578523,4 Z M13.8924594,16.7214586 L7.73476095,16.7214586 C7.45974073,16.7214586 7.23688672,16.9443126 7.23688672,17.2193328 C7.23688672,17.494353 7.46015806,17.717207 7.73476095,17.717207 L13.892042,17.717207 C14.1670623,17.717207 14.3903336,17.494353 14.3903336,17.2193328 C14.3903336,16.9443126 14.1670623,16.7214586 13.8924594,16.7214586 Z M12.6901328,13.7158507 L7.73476095,13.7158507 C7.45974073,13.7158507 7.23688672,13.9387047 7.23688672,14.2137249 C7.23688672,14.4887451 7.46015806,14.7115992 7.73476095,14.7115992 L12.6901328,14.7115992 C12.9647356,14.7115992 13.188007,14.4887451 13.188007,14.2137249 C13.188007,13.9387047 12.9647356,13.7158507 12.6901328,13.7158507 Z M11.7882835,10.7110775 L7.73434362,10.7110775 C7.4593234,10.7110775 7.23646939,10.9343488 7.23646939,11.2089517 C7.23646939,11.4839719 7.45974073,11.7068259 7.73434362,11.7068259 L11.7882835,11.7068259 C12.0633037,11.7068259 12.2861577,11.4839719 12.2861577,11.2089517 C12.2861577,10.9339315 12.0628864,10.7110775 11.7882835,10.7110775 Z M13.9992958,4.49787423 L13.9992958,8.0222228 L17.746081,8.0222228 L13.9992958,4.49787423 Z" id="形状结合" fill="#8992a6" fill-rule="nonzero"></path>
            </g>
        </g>
    </g>
</svg>