<?xml version="1.0" encoding="UTF-8"?>
<svg width="24px" height="24px" viewBox="0 0 24 24" version="1.1" xmlns="http://www.w3.org/2000/svg" xmlns:xlink="http://www.w3.org/1999/xlink">
    <title>编组 28</title>
    <g id="页面-1" stroke="none" stroke-width="1" fill="none" fill-rule="evenodd">
        <g id="个人-帮助中心" transform="translate(-219.000000, -773.000000)">
            <g id="编组-28" transform="translate(219.000000, 773.000000)">
                <rect id="矩形" x="0" y="0" width="24" height="24"></rect>
                <g id="编组" transform="translate(5.000000, 4.000000)" fill="#8992a6" fill-rule="nonzero">
                    <path d="M10.933624,5.72564617 C10.9124179,5.94831018 10.8514504,6.12591124 10.7507214,6.25844934 C10.6499924,6.39098745 10.5466127,6.49436717 10.4405822,6.56858851 C10.3133456,6.6534129 10.175506,6.71172966 10.0270633,6.7435388 C9.94223895,6.92379063 9.85211304,7.0934394 9.75668561,7.25248512 C9.67186122,7.39032475 9.58438607,7.52551361 9.49426016,7.65805172 C9.40413426,7.79058983 9.31665911,7.89396955 9.23183472,7.96819089 C9.13640729,8.05301528 9.04628138,8.12458586 8.96145699,8.18290262 C8.8766326,8.24121939 8.80241126,8.30218692 8.73879297,8.36580521 C8.67517468,8.4294235 8.62215944,8.50629559 8.57974725,8.5964215 C8.53733506,8.6865474 8.50552591,8.79522865 8.48431981,8.92246523 C8.46311371,9.07090791 8.43925685,9.21935058 8.41274924,9.36779325 C8.38624162,9.51623592 8.3809401,9.6646786 8.39684466,9.81312128 C8.41274923,9.96156396 8.46311371,10.1073559 8.5479381,10.250497 C8.63276249,10.3936382 8.78120516,10.5235255 8.99326612,10.640159 L8.99326612,15.3161033 C8.99326612,15.4009277 9.00917069,15.4831014 9.04097983,15.5626242 C9.07278897,15.6421471 9.11520117,15.7084161 9.16821642,15.7614314 C8.6592701,15.8144466 8.16622835,15.8568588 7.68909118,15.888668 C7.21195401,15.9204771 6.7931336,15.9363817 6.43262996,15.9363817 C6.12514156,15.9363817 5.76728868,15.9231279 5.35907133,15.8966202 C4.95085397,15.8701126 4.5293828,15.8383035 4.09465782,15.8011928 C3.65993284,15.7640821 3.23050938,15.7216699 2.80638745,15.6739562 C2.38226552,15.6262425 1.99525426,15.575878 1.64535367,15.5228628 C1.29545308,15.4698475 0.998567724,15.4168323 0.754697614,15.3638171 C0.510827503,15.3108018 0.357083302,15.2577866 0.293465012,15.2047713 C0.176831482,15.1199469 0.0893563341,14.8601723 0.0310395689,14.4254473 C-0.0272771963,13.9907223 -0.00342033872,13.4287607 0.102610141,12.7395626 C0.145022331,12.4744864 0.232497479,12.2571239 0.365035585,12.0874751 C0.49757369,11.9178263 0.659270178,11.7720344 0.850125049,11.6500994 C1.04097992,11.5281643 1.25304089,11.4300861 1.48630795,11.3558648 C1.71957501,11.2816434 1.95814359,11.2100729 2.2020137,11.1411531 C2.44588381,11.0722332 2.68180164,10.9980119 2.90976717,10.918489 C3.13773271,10.8389662 3.34714291,10.740888 3.53799778,10.6242544 C3.76066179,10.4864148 3.93296133,10.3512259 4.05489638,10.2186878 C4.17683144,10.0861497 4.26165582,9.95626239 4.30936954,9.82902581 C4.35708325,9.70178923 4.38094011,9.56925112 4.38094011,9.43141149 C4.38094011,9.29357186 4.37563858,9.14512918 4.36503553,8.98608346 C4.34382943,8.7316103 4.25900505,8.53545391 4.11056238,8.39761428 C3.96211971,8.25977465 3.80307398,8.1166335 3.6334252,7.96819083 C3.54860081,7.89396949 3.46377643,7.79058976 3.37895205,7.65805166 C3.29412767,7.52551355 3.21990633,7.39032468 3.15628802,7.25248505 C3.08206668,7.09343933 3.00784534,6.92379056 2.933624,6.74353874 C2.81699047,6.72233264 2.70565847,6.68522197 2.59962799,6.63220673 C2.50420056,6.57919149 2.40877312,6.50497015 2.31334568,6.40954271 C2.21791824,6.31411527 2.1436969,6.17627564 2.09068166,5.99602382 C2.02706337,5.815772 2.01380956,5.65142475 2.05092022,5.50298207 C2.08803089,5.35453939 2.14369689,5.22730281 2.21791823,5.12127233 C2.30274262,5.0046388 2.40877311,4.89330679 2.53600969,4.78727631 C2.54661274,4.38436048 2.58902493,3.98144464 2.66324627,3.5785288 C2.72686456,3.23923126 2.81964124,2.87342609 2.94157629,2.4811133 C3.06351135,2.08880051 3.23581088,1.73889992 3.45847489,1.43141151 C3.65993281,1.13452616 3.88524759,0.893306815 4.13441923,0.70775347 C4.38359086,0.522200124 4.63806402,0.376408211 4.89783871,0.270377731 C5.15761339,0.164347251 5.41738808,0.0927766728 5.67716277,0.0556659974 C5.93693745,0.018555322 6.18875985,0 6.43262996,0 C6.74011836,0 7.03700371,0.0344599076 7.32328601,0.103379723 C7.60956831,0.172299538 7.87464452,0.265076211 8.11851463,0.381709741 C8.36238474,0.498343272 8.57974723,0.630881377 8.7706021,0.779324058 C8.96145697,0.927766738 9.11520117,1.07620941 9.2318347,1.22465208 C9.50751397,1.56394962 9.72222569,1.94035784 9.87596989,2.35387673 C10.0297141,2.76739562 10.1489984,3.15440689 10.2338228,3.51491052 C10.3292502,3.93903245 10.3928685,4.36315438 10.4246776,4.78727631 C10.5307081,4.84029155 10.6261356,4.90921137 10.7109599,4.99403576 C10.7851813,5.0682571 10.8461488,5.16368453 10.8938625,5.28031806 C10.9415762,5.39695159 10.9548301,5.54539427 10.933624,5.72564609 L10.933624,5.72564617 Z M13.3829281,10.9900597 C13.5525769,10.9900597 13.6930673,11.0483764 13.8043993,11.1650099 C13.9157313,11.2816435 13.9713973,11.4194831 13.9713973,11.5785288 L13.9713973,14.2823062 C13.9713973,14.3671306 13.9157313,14.5023194 13.8043993,14.6878728 C13.6930673,14.8734261 13.5631799,15.064281 13.4147373,15.2604374 C13.2662946,15.4565938 13.1178519,15.6288933 12.9694092,15.777336 C12.8209666,15.9257786 12.704333,16 12.6195087,16 L10.5678188,16 C10.39817,16 10.2576796,15.944334 10.1463476,15.833002 C10.0350156,15.72167 9.97934963,15.5811796 9.97934963,15.4115308 L9.97934963,11.5785289 C9.97934963,11.4194832 10.0350156,11.2816435 10.1463476,11.16501 C10.2576796,11.0483764 10.39817,10.9900597 10.5678188,10.9900597 L13.3829281,10.9900597 L13.3829281,10.9900597 Z M11.2040017,11.9761431 C11.1191773,11.9761431 11.0502575,12.010603 10.9972423,12.0795229 C10.944227,12.1484427 10.9177194,12.2730285 10.9177194,12.4532803 C10.9177194,12.5805169 10.944227,12.6944997 10.9972423,12.7952286 C11.0502575,12.8959576 11.1191773,12.9463221 11.2040017,12.9463221 L12.794459,12.9463221 C12.8792834,12.9463221 12.9269971,12.8853545 12.9376001,12.7634195 C12.9482031,12.6414844 12.9535047,12.5381047 12.9535047,12.4532803 C12.9535047,12.3684559 12.9482032,12.267727 12.9376001,12.1510934 C12.926997,12.0344599 12.8792833,11.9761431 12.794459,11.9761431 L11.2040017,11.9761431 L11.2040017,11.9761431 Z M12.6990315,14.8389662 C12.7838559,14.8389662 12.850125,14.7753479 12.8978387,14.6481113 C12.9455524,14.5208747 12.9694093,14.4148442 12.9694093,14.3300199 C12.9694093,14.2451955 12.9455524,14.1550696 12.8978387,14.0596421 C12.850125,13.9642147 12.7838559,13.916501 12.6990315,13.916501 L11.1721926,13.916501 C11.0873682,13.916501 11.0210991,13.9695162 10.9733854,14.0755467 C10.9256717,14.1815772 10.9018148,14.2770046 10.9018148,14.361829 C10.9018148,14.4466534 10.9256717,14.5473824 10.9733854,14.6640159 C11.0210991,14.7806494 11.0873682,14.8389662 11.1721926,14.8389662 L12.6990315,14.8389662 L12.6990315,14.8389662 Z" id="形状"></path>
                </g>
            </g>
        </g>
    </g>
</svg>