<?xml version="1.0" encoding="UTF-8"?>
<svg width="24px" height="24px" viewBox="0 0 24 24" version="1.1" xmlns="http://www.w3.org/2000/svg" xmlns:xlink="http://www.w3.org/1999/xlink">
    <title>编组 97备份 2</title>
    <g id="页面-1" stroke="none" stroke-width="1" fill="none" fill-rule="evenodd">
        <g id="头部下拉" transform="translate(-471.000000, -434.000000)">
            <g id="编组-97备份-2" transform="translate(471.000000, 434.000000)">
                <rect id="矩形备份-134" x="0" y="0" width="24" height="24"></rect>
                <g id="编组-96" transform="translate(3.000000, 3.000000)" fill-rule="nonzero">
                    <path d="M9,18 C4.03740202,18 0,13.962598 0,9 C0,4.03740202 4.03740202,0 9,0 C10.9652856,0 12.8318029,0.620828667 14.3979843,1.79798432 C14.7043673,2.02777156 14.7648376,2.46114222 14.5350504,2.7675252 C14.3052632,3.07390817 13.8718925,3.1343785 13.5655095,2.90660694 C12.2412094,1.91086226 10.6629339,1.38477044 9,1.38477044 C4.80134378,1.38477044 1.38477044,4.80134378 1.38477044,9 C1.38477044,13.1986562 4.80134378,16.6152296 9,16.6152296 C13.1986562,16.6152296 16.6152296,13.1986562 16.6152296,9 C16.6152296,8.01836506 16.4318029,7.06494961 16.068981,6.16192609 C15.9258679,5.80716685 16.0992161,5.40403135 16.4539754,5.26091825 C16.8087346,5.11780515 17.2118701,5.29115342 17.3549832,5.64591265 C17.7843225,6.71220605 18,7.84098544 18,9 C18,13.962598 13.962598,18 9,18 Z" id="路径" fill="#333333"></path>
                    <path d="M14.6459127,4.04546473 C14.6459127,4.48630299 15.0032827,4.84367301 15.4441209,4.84367301 C15.8849592,4.84367301 16.2423292,4.48630299 16.2423292,4.04546473 C16.2423292,3.60462646 15.8849592,3.24725644 15.4441209,3.24725644 C15.0032827,3.24725644 14.6459127,3.60462646 14.6459127,4.04546473 L14.6459127,4.04546473 Z" id="路径" fill="#333333"></path>
                    <path d="M7.16573348,7.77245241 L7.16573348,7.78656215 C7.15968645,8.02038074 7.03068309,8.23202688 6.82508399,8.34490482 C6.61948488,8.45778275 6.3675252,8.45173572 6.16595745,8.33281075 C5.95632699,8.20985442 5.83135498,7.97805151 5.8474804,7.73415454 C5.8474804,6.77267637 6.12161254,5.97849944 6.66181411,5.35363942 C7.25442329,4.68040314 8.07278835,4.34983203 9.10683091,4.34983203 C10.0279955,4.34983203 10.7717805,4.61388578 11.3402016,5.14804031 C11.8844345,5.65599104 12.1545353,6.34132139 12.1545353,7.19193729 C12.1545353,7.8087346 11.9610302,8.37513998 11.5840985,8.86898096 C11.4268757,9.06651736 11.0862262,9.39305711 10.4694289,9.94535274 C10.2194849,10.1509518 10.0017917,10.3928331 9.82642777,10.6649496 C9.65912654,10.9431131 9.57043673,11.2595745 9.56842105,11.5840985 L9.59462486,11.9771557 C9.59865622,12.0396417 9.57446809,12.1021277 9.53213886,12.1484882 C9.48779395,12.1948488 9.42732363,12.2210526 9.36483763,12.2210526 L8.50212766,12.2210526 C8.44165733,12.2210526 8.38118701,12.1968645 8.33885778,12.1545353 C8.29652856,12.112206 8.27234043,12.0537514 8.27234043,11.9932811 L8.27234043,11.600224 C8.27234043,11.168869 8.36506159,10.7677492 8.54244121,10.4150056 C8.7581187,9.95744681 9.2055991,9.42732363 9.85464726,8.86898096 C10.2577828,8.46987682 10.3827548,8.33885778 10.4674132,8.23605823 C10.731467,7.90145577 10.8584546,7.5668533 10.8584546,7.22015677 C10.8584546,6.70212766 10.7072788,6.29092945 10.419037,5.99462486 C10.1166853,5.69428891 9.6712206,5.54512878 9.06853303,5.54512878 C8.39731243,5.54512878 7.91556551,5.75879059 7.5849944,6.19417693 C7.30683091,6.53885778 7.17379619,7.04277716 7.17379619,7.74020157 L7.16573348,7.77245241 L7.16573348,7.77245241 Z M9,14.4403239 C8.63919373,14.4423292 8.34288914,14.150056 8.34087346,13.787234 C8.34288914,13.4264278 8.63717805,13.1341545 9,13.1361598 C9.36080627,13.1341545 9.65509518,13.4264278 9.65912654,13.787234 C9.65711086,14.150056 9.36282195,14.4403239 9,14.4403239 Z" id="形状" fill="#90ff00"></path>
                </g>
            </g>
        </g>
    </g>
</svg>