<?xml version="1.0" encoding="UTF-8"?>
<svg width="24px" height="24px" viewBox="0 0 24 24" version="1.1" xmlns="http://www.w3.org/2000/svg" xmlns:xlink="http://www.w3.org/1999/xlink">
    <title>编组 25</title>
    <g id="页面-1" stroke="none" stroke-width="1" fill="none" fill-rule="evenodd">
        <g id="个人-帮助中心" transform="translate(-1608.000000, -773.000000)">
            <g id="编组-25" transform="translate(1608.000000, 773.000000)">
                <rect id="矩形备份-31" x="0" y="0" width="24" height="24"></rect>
                <g id="编组" transform="translate(4.000000, 5.000000)" fill="#8992a6" fill-rule="nonzero">
                    <path d="M14.6325851,1.36770251 C13.7202019,0.45531932 12.5164842,6.20211321e-16 11.3162554,6.20211321e-16 C10.1160267,6.20211321e-16 8.91230893,0.455319337 7.99992575,1.36770251 L4.81443495,4.55144878 C4.38004984,4.98583388 4.38004984,5.69236388 4.81443495,6.12500447 C5.24882005,6.55938958 5.95535005,6.55938958 6.38799065,6.12500447 L9.49497811,3.01801701 C9.63628411,2.87671101 9.86656055,2.87671101 10.0096111,3.01801701 L14.8052924,7.8136984 C16.4538624,5.98020945 16.3962933,3.1296662 14.6325851,1.36770251 L14.6325851,1.36770251 Z" id="路径"></path>
                    <path d="M9.7392107,3.80479486 L6.9026236,6.64138196 C6.1856265,7.35837906 5.0167991,7.35837906 4.29980199,6.64138196 C3.58280489,5.92438485 3.58280489,4.75555745 4.29980199,4.03856035 L7.44516886,0.893193468 C6.62698967,0.29831266 5.65354835,1.24042264e-15 4.68359606,1.24042264e-15 C3.48336732,1.24042264e-15 2.27964955,0.455319337 1.36726638,1.36770251 C-0.455755461,3.19072435 -0.455755461,6.17734003 1.36726638,8.00036187 L4.28759036,10.9206859 C4.28759036,10.9206859 4.28933487,10.9224304 4.28933489,10.9241749 L7.35619841,13.9910384 C7.71033567,14.3451757 8.2877713,14.3451757 8.64190855,13.9910384 C8.98208966,13.6508573 8.99081226,13.1030785 8.67505441,12.7471967 L6.43509265,10.5037459 C6.33042154,10.3990748 6.33042154,10.2263675 6.43509265,10.1199519 C6.53976375,10.0152808 6.71247109,10.0152808 6.81888671,10.1199519 L9.02395811,12.3232787 C9.37809536,12.677416 9.955531,12.677416 10.3096683,12.3232787 C10.662061,11.970886 10.662061,11.3969394 10.3131573,11.0428022 L8.11331945,8.84296431 C8.00864834,8.73829321 8.00864834,8.56558587 8.11331945,8.45917025 C8.21799056,8.35449914 8.39069789,8.35449914 8.49711351,8.45917025 L10.709163,10.6712197 C11.0633002,11.0079118 11.6285242,11.0026782 11.9756834,10.6555191 C12.3298207,10.3013818 12.3298207,9.72394616 11.9756834,9.36980891 L9.77235655,7.162993 C9.66768544,7.05832189 9.66768544,6.88561455 9.77235655,6.77919892 C9.87702766,6.67452781 10.049735,6.67452781 10.1561506,6.77919892 L12.3961124,9.01916068 C12.7519942,9.33840757 13.303262,9.33142949 13.6451876,8.98950387 C13.9993249,8.63536661 13.9993249,8.05793098 13.6451876,7.70379372 L9.7392107,3.80479486 Z" id="路径"></path>
                </g>
            </g>
        </g>
    </g>
</svg>