<?xml version="1.0" encoding="UTF-8"?>
<svg width="24px" height="24px" viewBox="0 0 24 24" version="1.1" xmlns="http://www.w3.org/2000/svg" xmlns:xlink="http://www.w3.org/1999/xlink">
    <title>编组 31</title>
    <g id="页面-1" stroke="none" stroke-width="1" fill="none" fill-rule="evenodd">
        <g id="个人-帮助中心" transform="translate(-220.000000, -913.000000)">
            <g id="编组-31" transform="translate(220.000000, 913.000000)">
                <rect id="矩形备份-32" x="0" y="0" width="24" height="24"></rect>
                <g id="编组" transform="translate(3.000000, 4.000000)" fill="#8992a6" fill-rule="nonzero">
                    <path d="M8.00024203,16 C7.72698041,16.0003748 7.45387208,15.9870199 7.18195234,15.9599695 C6.65197209,15.9081877 6.12875004,15.8018537 5.6205996,15.6426572 C4.87697803,15.41124 4.17124608,15.0721921 3.52585802,14.6363009 C2.67413783,14.0607474 1.94064655,13.3272561 1.36509307,12.4755359 C1.22144222,12.2630607 1.08499391,12.0409821 0.964951404,11.8157023 C0.844908901,11.5904226 0.728067538,11.3535387 0.627631983,11.1158546 C0.423609056,10.6315516 0.26747645,10.1284428 0.161466953,9.6137228 C0.108159832,9.35100825 0.0680950954,9.08577966 0.0414244659,8.81904147 C-0.0138081553,8.27491304 -0.0138081553,7.72659052 0.0414244659,7.18246209 C0.0680950949,6.91572389 0.108159832,6.65049531 0.161466953,6.38778075 C0.214285649,6.13008953 0.281509455,5.87199814 0.358736792,5.6207092 C0.435964129,5.36942026 0.526396152,5.12493369 0.627631983,4.88564898 C0.728867815,4.64636427 0.841307632,4.41268154 0.964951404,4.1858012 C1.08859518,3.95892087 1.22224249,3.73844283 1.36509307,3.52596762 C1.94064655,2.67424743 2.67413783,1.94075616 3.52585802,1.36520267 C3.73873337,1.22155182 3.960812,1.08510351 4.18569162,0.965061007 C4.41057123,0.845018505 4.64785523,0.728577288 4.88513923,0.628141733 C5.36936357,0.423903428 5.87249387,0.267764164 6.38727101,0.161976703 C6.64991344,0.10826268 6.91516287,0.0681947874 7.18195234,0.0419342002 C7.99364974,-0.0411207625 8.81324779,-0.000646783036 9.61281292,0.161976703 C9.87090429,0.214795399 10.1285955,0.282019205 10.3798845,0.359246542 C10.6311734,0.436473879 10.8752598,0.526905902 11.1153448,0.628141733 C11.3554298,0.729377565 11.5883123,0.841817382 11.8147925,0.965061007 C12.0412726,1.08830463 12.2617507,1.2223521 12.4742259,1.36520267 C13.3260601,1.940618 14.0595755,2.67413345 14.6349909,3.52596762 C14.7786417,3.73844284 14.91509,3.96052145 15.0351325,4.1858012 C15.155175,4.41108095 15.2720164,4.64796482 15.3720518,4.88564898 C15.4720872,5.12333314 15.5641198,5.37262138 15.6413471,5.6207092 C15.7185745,5.86879702 15.7857983,6.1296894 15.838617,6.38778075 C15.8919534,6.65049012 15.9320184,6.91572019 15.9586595,7.18246209 C16.0138921,7.72659052 16.0138921,8.27491304 15.9586595,8.81904147 C15.9320184,9.08578337 15.8919534,9.35101343 15.838617,9.6137228 C15.7857983,9.87141402 15.7185745,10.1295054 15.6413471,10.3807944 C15.5641198,10.6320833 15.4736878,10.8765699 15.3720518,11.1158546 C15.1709587,11.5918727 14.9241132,12.047237 14.6349909,12.4755359 C14.0595755,13.3273701 13.3260601,14.0608856 12.4742259,14.6363009 C12.2617507,14.7799517 12.0396721,14.9164001 11.8147925,15.0364425 C11.5899129,15.156485 11.3526288,15.2729263 11.1153448,15.3733618 C10.8780608,15.4737974 10.6279723,15.5650297 10.3798845,15.6426572 C10.1317966,15.7202846 9.87090427,15.7871083 9.61281292,15.839927 C9.35472157,15.8927457 9.08462594,15.9339603 8.81853172,15.9599695 C8.54661198,15.9870199 8.27350366,16.0003748 8.00024203,16 L8.00024203,16 Z M3.77314556,8.78983112 C3.51948471,8.78376093 3.28245094,8.91561693 3.15383578,9.13433779 C3.02522062,9.35305864 3.02522062,9.62429842 3.15383578,9.84301927 C3.28245094,10.0617401 3.51948471,10.1935961 3.77314556,10.1875259 L10.5755537,10.1875259 L10.1325969,10.6304828 C9.95633113,10.80682 9.88752963,11.0637991 9.95210929,11.3046184 C10.0166889,11.5454376 10.2048386,11.733511 10.445684,11.797993 C10.6865295,11.862475 10.9434806,11.7935694 11.1197464,11.6172321 L12.7543251,9.98265341 C12.7587266,9.978652 12.7623279,9.97425044 12.7659292,9.97024902 L12.7775333,9.95744448 C12.7794314,9.95559213 12.7811713,9.95358444 12.7827351,9.95144237 L12.787937,9.94544023 C12.7903662,9.94319746 12.792639,9.94079098 12.7947394,9.93823768 L12.8015418,9.93023485 C12.8060146,9.92555699 12.810034,9.92046577 12.813546,9.91502946 L12.8175475,9.90982762 C12.8187684,9.90789948 12.8202495,9.90614902 12.821949,9.90462578 L12.8283513,9.89582266 L12.835954,9.88621928 L12.8391551,9.88101742 L12.8423562,9.87621573 C12.8440878,9.87298063 12.846096,9.8699014 12.8483584,9.86701247 C12.8507533,9.86422068 12.8527713,9.86112647 12.8543605,9.8578092 C12.8559154,9.85404211 12.8582312,9.85063653 12.8611629,9.84780567 C12.8626268,9.8447199 12.8643679,9.84177343 12.8663647,9.83900255 C12.8683307,9.83607187 12.8700697,9.83299515 12.8715666,9.82979929 C12.8733381,9.82605392 12.875779,9.82266374 12.8787691,9.81979575 L12.88117,9.81459391 C12.8835993,9.8103113 12.8854814,9.80574062 12.886772,9.80098909 C12.8879655,9.7975588 12.8898751,9.79442163 12.8923739,9.79178584 C12.894962,9.7875334 12.89698,9.7829593 12.8983761,9.77818102 C12.8985275,9.7773879 12.8985275,9.7765733 12.8983761,9.77578017 C12.8994136,9.77317196 12.9006165,9.77063257 12.9019773,9.76817747 C12.9033442,9.76572547 12.9045472,9.76318569 12.9055786,9.76057479 L12.9107805,9.74496926 L12.9139816,9.73656629 C12.9139816,9.7337653 12.9163824,9.73056416 12.9171827,9.72816332 C12.917983,9.72576247 12.9171827,9.72336162 12.9199837,9.72136091 L12.9223846,9.71495865 C12.9237189,9.71072566 12.9253227,9.70658239 12.9271863,9.70255425 L12.9295871,9.69615197 C12.9298052,9.69415721 12.9298052,9.69214462 12.9295871,9.69014986 C12.9293781,9.68815461 12.9293781,9.68614298 12.9295871,9.68414773 L12.9351891,9.6637405 C12.9359294,9.66044708 12.9359294,9.6570304 12.9351891,9.65373697 L12.93759,9.64333328 L12.9399908,9.6329296 C12.9397941,9.63133508 12.9397941,9.62972242 12.9399908,9.62812789 C12.940237,9.62573336 12.940237,9.62331989 12.9399908,9.62092535 C12.9420839,9.61362713 12.943293,9.60610396 12.9435921,9.59851741 C12.9433808,9.59638856 12.9433808,9.59424401 12.9435921,9.59211515 C12.9438043,9.58985265 12.9438043,9.58757524 12.9435921,9.58531274 C12.9445552,9.57854443 12.9445552,9.57167383 12.9435921,9.56490552 C12.9434081,9.56210755 12.9434081,9.55930051 12.9435921,9.55650254 C12.9437845,9.55370485 12.9437845,9.55089725 12.9435921,9.54809956 C12.9434133,9.54583562 12.9434133,9.5435611 12.9435921,9.54129715 C12.943834,9.53810059 12.943834,9.53489032 12.9435921,9.53169375 L12.9435921,9.51488781 L12.9435921,9.49808186 C12.9443144,9.48675877 12.9443144,9.47539291 12.9435921,9.46406982 C12.9444371,9.4584997 12.9444371,9.45283398 12.9435921,9.44726386 C12.9443144,9.44168717 12.9443144,9.43603462 12.9435921,9.43045792 C12.9438029,9.42699323 12.9438029,9.42351892 12.9435921,9.42005423 C12.9434067,9.4167223 12.9434067,9.41338263 12.9435921,9.4100507 C12.9438043,9.4077882 12.9438043,9.40551079 12.9435921,9.40324829 C12.9433564,9.40098694 12.9433564,9.39870723 12.9435921,9.39644588 L12.9435921,9.38564206 C12.9440185,9.38191957 12.9440185,9.37816057 12.9435921,9.37443809 C12.9437929,9.37284382 12.9437929,9.37123066 12.9435921,9.36963639 C12.943128,9.36725796 12.943128,9.36481227 12.9435921,9.36243384 L12.9411912,9.35203016 L12.9387904,9.34162647 C12.9380501,9.33833304 12.9380501,9.33491636 12.9387904,9.33162294 L12.9331884,9.31121571 C12.9329286,9.30922344 12.9329286,9.30720586 12.9331884,9.30521358 C12.9334065,9.30321882 12.9334065,9.30120622 12.9331884,9.29921145 C12.931719,9.29275107 12.9292912,9.2865469 12.9259858,9.28080494 L12.923585,9.27480281 C12.9227954,9.2723484 12.9218601,9.26994328 12.920784,9.26760027 L12.9175829,9.25919729 C12.9175829,9.2563963 12.915182,9.25319516 12.9143817,9.25079431 L12.9091799,9.23558893 C12.9081789,9.23296494 12.9069748,9.23042301 12.9055786,9.22798624 C12.9042178,9.22553114 12.9030149,9.22299175 12.9019773,9.22038354 L12.8987762,9.21198058 C12.8987762,9.20917959 12.8963754,9.20597845 12.8955751,9.2035776 L12.8955751,9.20117676 C12.8941269,9.19778215 12.8920956,9.19466735 12.889573,9.19197349 C12.8897094,9.19064317 12.8897094,9.18930239 12.889573,9.18797207 C12.8869849,9.18371964 12.8849669,9.17914554 12.8835708,9.17436725 C12.8817011,9.17068074 12.8792714,9.1673062 12.8763683,9.16436372 C12.8763683,9.16076245 12.872767,9.15796146 12.8711664,9.15516045 L12.8663647,9.14635734 C12.8645432,9.14264171 12.8621082,9.1392598 12.8591622,9.1363538 C12.857563,9.13325713 12.8556881,9.13031085 12.8535602,9.12755069 C12.8512563,9.12469168 12.8492455,9.12160844 12.8475581,9.11834742 C12.8465469,9.11648983 12.8453396,9.11474594 12.8439568,9.11314558 C12.8426979,9.11153727 12.8416241,9.10979233 12.8407557,9.10794374 C12.838229,9.10340915 12.8352817,9.09912211 12.8319525,9.09513922 C12.8303114,9.09341536 12.8288376,9.09153962 12.827551,9.08953723 C12.8259183,9.08809669 12.8244428,9.08648712 12.8231494,9.08473552 L12.8187479,9.07953369 L12.8127457,9.071931 L12.8063435,9.06392817 C12.8045565,9.06148075 12.8025472,9.05920361 12.8003414,9.05712576 C12.7980424,9.05513994 12.7960233,9.05285164 12.7943392,9.05032335 C12.7923436,9.04856533 12.7905939,9.04654646 12.7891374,9.04432122 L12.7843357,9.03831909 C12.7800791,9.03429749 12.7760704,9.03002146 12.7723314,9.02551457 L12.7611275,9.01311017 L12.7483229,9.00110593 L12.7355184,8.98910168 L12.7295163,8.98429997 L12.723114,8.97909813 C12.720787,8.97731367 12.7186425,8.97530315 12.7167118,8.973096 L12.7099093,8.96709388 C12.705332,8.96279001 12.7003769,8.95890635 12.6951041,8.95548977 C12.6936187,8.95375179 12.6918621,8.95226542 12.6899023,8.95108822 L12.6847004,8.94708679 L12.6758973,8.94028438 L12.6662939,8.93308184 L12.6610921,8.9298807 L12.6562904,8.92667956 C12.6530833,8.92490107 12.6500077,8.92289524 12.6470871,8.92067745 C12.6441794,8.91844144 12.6411024,8.91643469 12.6378838,8.91467532 C12.6342239,8.91292792 12.6308508,8.91063424 12.6278803,8.90787291 L12.618677,8.90267107 L12.6094738,8.89746923 C12.6057757,8.89578885 12.6023924,8.8934882 12.5994702,8.89066682 L12.5942684,8.88826598 C12.5900417,8.88562893 12.5854607,8.88360789 12.5806636,8.88226385 L12.5778626,8.88226385 C12.5745071,8.88091638 12.5713975,8.87902354 12.5686593,8.87666186 C12.5642908,8.8740236 12.5595776,8.87200367 12.5546544,8.87065975 L12.5522535,8.87065975 C12.5494462,8.86979773 12.5467577,8.86858791 12.5442507,8.86705846 L12.5362479,8.86385734 L12.5210425,8.8586555 L12.5126395,8.85545436 L12.5038364,8.85225322 L12.4974341,8.84985237 L12.4906317,8.84745153 C12.4863786,8.84634188 12.4822286,8.84486929 12.4782273,8.84304997 L12.4718251,8.84064912 L12.4654228,8.84064912 C12.463435,8.84097044 12.4614085,8.84097044 12.4594207,8.84064912 L12.4390134,8.83544728 L12.426609,8.83544728 L12.4162054,8.83304642 L12.4050014,8.83064557 L12.3929971,8.83064557 C12.3856989,8.82855248 12.3781758,8.8273434 12.3705892,8.8270443 L12.3565843,8.8270443 C12.3498097,8.82617344 12.3429516,8.82617344 12.336177,8.8270443 L12.2697535,8.8270443 L3.77314556,8.78983112 Z M5.37091121,4.17219639 C5.18587958,4.1718129 5.00837744,4.24543595 4.87793667,4.37666878 L3.24295786,6.01124745 L3.23095361,6.02445213 C3.22719288,6.02868602 3.22332356,6.03282219 3.21934951,6.03685653 L3.2145478,6.0424585 C3.21297839,6.04459608 3.21123878,6.04660332 3.20934597,6.04846063 C3.20766185,6.05098891 3.20564275,6.05327722 3.20334383,6.05526304 C3.20103035,6.05723408 3.19900936,6.05952454 3.19734172,6.06206544 C3.19287254,6.06674643 3.18885343,6.0718373 3.18533747,6.07727083 L3.18093591,6.08247267 L3.17653435,6.08727438 L3.16973194,6.09647763 L3.16252939,6.10608103 C3.16166096,6.10792962 3.16058715,6.10967456 3.15932826,6.11128287 C3.1579455,6.11288323 3.15673818,6.11462713 3.15572698,6.11648471 C3.15395206,6.11969393 3.15194607,6.1227698 3.14972486,6.12568796 C3.14750717,6.12846837 3.14550085,6.13141098 3.14372273,6.13449109 C3.14213885,6.13836073 3.13982996,6.14189197 3.13692032,6.14489477 L3.13171848,6.15409802 C3.12981825,6.15706877 3.12808171,6.1601411 3.12651664,6.16330129 C3.12482262,6.16720871 3.12237514,6.17074396 3.11931409,6.17370497 L3.11691324,6.17850666 C3.11449464,6.18284549 3.11248526,6.18740009 3.11091111,6.19211148 C3.10971754,6.19554178 3.10780796,6.19867895 3.10530913,6.20131475 C3.10275223,6.20558336 3.10073606,6.21015337 3.09930701,6.21491956 L3.09930701,6.21732041 C3.09841558,6.21992505 3.09734601,6.22246528 3.09610587,6.2249231 C3.09464165,6.22732375 3.09343455,6.22987206 3.0925046,6.2325258 L3.08730276,6.24773117 C3.08637006,6.25063948 3.08516425,6.25345301 3.08370148,6.25613414 L3.08050036,6.26453712 L3.07769936,6.27133953 L3.07489837,6.27814194 C3.07383802,6.28241002 3.07236386,6.2865645 3.07049681,6.29054633 L3.06809596,6.29694859 C3.06788699,6.29894385 3.06788699,6.30095547 3.06809596,6.30295073 C3.06848434,6.30493258 3.06848434,6.30697098 3.06809596,6.30895284 L3.06289412,6.32936007 C3.06216693,6.33265494 3.06216693,6.33606874 3.06289412,6.33936361 C3.06289412,6.34336503 3.06289412,6.34776659 3.06009313,6.35136786 L3.06009313,6.36017098 C3.06028986,6.3617655 3.06028986,6.36337816 3.06009313,6.36497268 C3.05982882,6.36736625 3.05982882,6.36978165 3.06009313,6.37217523 C3.05831907,6.37939081 3.05724704,6.38676105 3.05689199,6.39418303 C3.05711665,6.39644493 3.05711665,6.39872353 3.05689199,6.40098543 C3.0564598,6.40323231 3.0564598,6.40554097 3.05689199,6.40778784 C3.05619244,6.41456865 3.05619244,6.42141425 3.05689199,6.42819507 C3.0570654,6.43085986 3.0570654,6.43353311 3.05689199,6.4361979 C3.05672378,6.43899636 3.05672378,6.44180241 3.05689199,6.44460088 C3.05708183,6.44699797 3.05708183,6.44940632 3.05689199,6.45180341 C3.05650646,6.45499294 3.05650646,6.45821729 3.05689199,6.46140682 L3.05689199,6.49461858 C3.05607564,6.50594123 3.05607564,6.51730797 3.05689199,6.52863062 C3.05619244,6.53313231 3.05619244,6.53773375 3.05689199,6.54223544 C3.05708476,6.5438302 3.05708476,6.54544237 3.05689199,6.54703713 C3.05595926,6.55260029 3.05595926,6.55827993 3.05689199,6.56384309 C3.05669705,6.56717475 3.05669705,6.57051497 3.05689199,6.57384663 C3.05707989,6.5771785 3.05707989,6.5805183 3.05689199,6.58385016 C3.05667973,6.58611267 3.05667973,6.58839007 3.05689199,6.59065257 C3.05712767,6.59291392 3.05712767,6.59519363 3.05689199,6.59745498 C3.05715374,6.60118505 3.05715374,6.60492888 3.05689199,6.60865895 C3.05664863,6.61225611 3.05664863,6.61586561 3.05689199,6.61946277 C3.05669526,6.62105729 3.05669526,6.62266995 3.05689199,6.62426447 C3.05713818,6.62665901 3.05713818,6.62907248 3.05689199,6.63146702 L3.05929284,6.64027015 L3.05929284,6.65387496 C3.05908336,6.65560258 3.05908336,6.65734918 3.05929284,6.6590768 C3.05947462,6.6606722 3.05947462,6.66228309 3.05929284,6.66387849 L3.06449468,6.68428572 C3.06475448,6.68627799 3.06475448,6.68829557 3.06449468,6.69028785 C3.0641063,6.69226971 3.0641063,6.69430811 3.06449468,6.69628997 C3.06571598,6.70288934 3.0680141,6.70924298 3.07129709,6.71509664 L3.07369795,6.72189904 L3.07609879,6.72870145 C3.07609879,6.7311023 3.07849964,6.73390329 3.07970006,6.73710441 C3.07970006,6.73990541 3.08250106,6.74310655 3.08330135,6.74550739 L3.08850319,6.76071278 C3.0893926,6.76344805 3.09046198,6.7661215 3.09170431,6.76871561 C3.09293782,6.77117649 3.0940072,6.77371627 3.09490545,6.77631831 L3.09810659,6.78432114 C3.09930362,6.78679865 3.10037208,6.78933625 3.10130771,6.79192383 L3.10130771,6.79472482 C3.10244071,6.79818336 3.10435796,6.80133312 3.1069097,6.80392807 L3.10971069,6.80912991 C3.11231564,6.81337349 3.11433466,6.81794992 3.11571282,6.82273473 C3.11741314,6.82642154 3.11971164,6.82980168 3.12251523,6.83273828 L3.12771707,6.84194153 L3.13251876,6.85074466 C3.13431488,6.8545944 3.13675018,6.85811206 3.13972131,6.86114833 C3.14148872,6.86436207 3.14349508,6.86743848 3.14572345,6.87035159 C3.14807549,6.87317531 3.15008983,6.87626398 3.15172556,6.87955486 L3.15532685,6.8847567 C3.15666268,6.88639287 3.15786687,6.88813226 3.15892812,6.88995854 C3.16133504,6.89434701 3.16414836,6.8985 3.16733109,6.90236293 L3.17213279,6.90836504 L3.17653435,6.9135669 C3.17777659,6.91535999 3.1792574,6.91697542 3.18093591,6.91836859 C3.1827193,6.92119248 3.18472645,6.92386868 3.18693803,6.92637142 C3.18915298,6.92872891 3.19116109,6.93127251 3.19294016,6.93397412 C3.19467653,6.93646179 3.19669018,6.93874392 3.19894229,6.94077653 L3.2049444,6.94757894 L3.21014624,6.95358106 L3.21534808,6.95958319 C3.21974964,6.9635846 3.22335091,6.96798616 3.2269522,6.97198758 L3.2385563,6.98439196 L3.25136084,6.99639622 C3.25559081,6.99987822 3.25959998,7.00362011 3.26336509,7.00760018 L3.26936722,7.01280203 L3.27576948,7.01800387 C3.2782228,7.01978353 3.2805006,7.02179335 3.28257189,7.02400598 C3.28478266,7.02622437 3.28719377,7.02823362 3.28977444,7.03000812 C3.29435183,7.03431198 3.29930685,7.03819564 3.30457968,7.04161222 L3.30978152,7.04601378 C3.31169563,7.04725374 3.31344369,7.04873287 3.31498336,7.05041534 L3.32418661,7.05721775 L3.33338988,7.06402016 L3.33859172,7.0672213 L3.34379356,7.07082257 C3.34705458,7.07251001 3.35013781,7.07452081 3.35299682,7.07682468 L3.36179994,7.08282681 C3.36567423,7.08440183 3.36920708,7.08671177 3.37220362,7.08962922 L3.38140687,7.09483106 L3.39061014,7.1000329 C3.39430819,7.10171328 3.3976915,7.10401394 3.40061367,7.10683531 L3.40581551,7.10923617 C3.41004219,7.11187321 3.41462321,7.11389424 3.41942033,7.11523828 L3.42182119,7.11523828 C3.42509892,7.11650157 3.4280917,7.11840607 3.4306243,7.12084027 C3.43499283,7.12347854 3.43970601,7.12549847 3.44462926,7.1268424 L3.44783039,7.1268424 L3.45543309,7.13004352 L3.46303577,7.13324466 L3.47824116,7.1384465 L3.48664414,7.14204777 L3.49504711,7.14524891 L3.50184952,7.14764976 L3.50905206,7.15005062 L3.52105632,7.15445216 L3.52785873,7.15685303 C3.52984653,7.15717435 3.53187304,7.15717435 3.53386085,7.15685303 C3.53584366,7.15647454 3.53788017,7.15647454 3.53986298,7.15685303 L3.56067033,7.16205487 L3.5726746,7.16205487 L3.58307827,7.16445571 L3.59348195,7.16685656 L3.59828366,7.16685656 C3.60080332,7.1672409 3.60336669,7.1672409 3.60588634,7.16685656 C3.61305511,7.16891835 3.6204421,7.17012713 3.62789414,7.17045784 L3.6418991,7.17045784 C3.64867364,7.1713287 3.65553179,7.1713287 3.66230633,7.17045784 L12.2193357,7.17045784 C12.4729965,7.17652804 12.7100303,7.04467203 12.8386455,6.82595118 C12.9672606,6.60723032 12.9672606,6.33599055 12.8386455,6.11726969 C12.7100303,5.89854884 12.4729965,5.76669283 12.2193357,5.77276303 L5.41692749,5.77276303 L5.85988431,5.32980621 C6.05968788,5.13026369 6.11954442,4.82997626 6.0115216,4.56907445 C5.90349879,4.30817263 5.64889002,4.13808525 5.36650964,4.13818432 L5.37091121,4.17219639 Z" id="形状"></path>
                </g>
            </g>
        </g>
    </g>
</svg>