<?xml version="1.0" encoding="UTF-8"?>
<svg width="24px" height="24px" viewBox="0 0 24 24" version="1.1" xmlns="http://www.w3.org/2000/svg" xmlns:xlink="http://www.w3.org/1999/xlink">
    <g id="页面-1" stroke="none" stroke-width="1" fill="none" fill-rule="evenodd">
        <g id="tab栏" transform="translate(-317.000000, -42.000000)">
            <g id="编组-112备份-2" transform="translate(317.000000, 42.000000)">
                <g id="编组-77" transform="translate(3.000000, 3.000000)" fill-rule="nonzero">
                    <path d="M5.77777778,1.75925927 C6.09876543,1.75925927 6.37345679,1.87037038 6.60185185,2.09259259 C6.83024691,2.31481481 6.94444444,2.58641976 6.94444444,2.90740742 L6.94444444,7.53703705 C6.94444444,7.8580247 6.83024691,8.13271605 6.60185185,8.36111111 C6.37345679,8.58950618 6.09876543,8.70370371 5.77777778,8.70370371 L1.14814815,8.70370371 C0.827160502,8.70370371 0.555555561,8.58950618 0.333333329,8.36111111 C0.111111097,8.13271605 0,7.8580247 0,7.53703705 L0,2.90740742 C0,2.58641977 0.11111111,2.31481483 0.333333329,2.09259259 C0.555555549,1.87037036 0.82716049,1.75925927 1.14814815,1.75925927 L5.77777778,1.75925927 Z" id="路径" fill="#1A1A1A"></path>
                    <path d="M5.77777778,11.0185185 C6.09876543,11.0185185 6.37345679,11.1296296 6.60185185,11.3518519 C6.83024691,11.5740741 6.94444444,11.845679 6.94444444,12.1666667 L6.94444444,16.8148148 C6.94444444,17.1358025 6.83024691,17.4074074 6.60185185,17.6296297 C6.37345679,17.8518519 6.09876543,17.962963 5.77777778,17.962963 L1.14814815,17.962963 C0.827160502,17.962963 0.555555561,17.8518519 0.333333329,17.6296297 C0.111111097,17.4074074 0,17.1358025 0,16.8148148 L0,12.1666667 C0,11.845679 0.11111111,11.5740741 0.333333329,11.3518519 C0.555555549,11.1296296 0.82716049,11.0185185 1.14814815,11.0185185 L5.77777778,11.0185185 Z" id="路径" fill="#1A1A1A"></path>
                    <path d="M15.0555556,11.0185185 C15.3765432,11.0185185 15.6481482,11.1296296 15.8703704,11.3518519 C16.0925926,11.5740741 16.2037037,11.845679 16.2037037,12.1666667 L16.2037037,16.8148148 C16.2037037,17.1358025 16.0925926,17.4074074 15.8703704,17.6296297 C15.6481482,17.8518519 15.3765432,17.962963 15.0555556,17.962963 L10.4259259,17.962963 C10.1049383,17.962963 9.83024693,17.8518519 9.60185187,17.6296297 C9.37345681,17.4074074 9.25925927,17.1358025 9.25925927,16.8148148 L9.25925927,12.1666667 C9.25925927,11.845679 9.37345681,11.5740741 9.60185187,11.3518519 C9.83024693,11.1296296 10.1049383,11.0185185 10.4259259,11.0185185 L15.0555556,11.0185185 Z" id="路径" fill="#1A1A1A"></path>
                    <path d="M17.6296296,3.7962963 C17.8765432,4.04320987 18,4.33333333 18,4.66666666 C18,5 17.8765432,5.28395062 17.6296296,5.51851852 L14.1851852,8.96296296 C13.9382716,9.20987654 13.6512346,9.33333333 13.3240741,9.33333333 C12.9969136,9.33333333 12.7098766,9.20987654 12.462963,8.96296296 L9.01851855,5.51851852 C8.78395064,5.28395062 8.66666669,5 8.66666669,4.66666666 C8.66666669,4.33333333 8.78395064,4.04320987 9.01851855,3.7962963 L12.462963,0.351851857 C12.7098766,0.117283952 12.9969136,0 13.3240741,0 C13.6512346,0 13.9382716,0.117283952 14.1851852,0.351851857 L17.6296296,3.7962963 Z" id="路径" fill="#90ff00"></path>
                </g>
                <rect id="矩形" x="0" y="0" width="24" height="24"></rect>
            </g>
        </g>
    </g>
</svg>