<?xml version="1.0" encoding="UTF-8"?>
<svg width="24px" height="24px" viewBox="0 0 24 24" version="1.1" xmlns="http://www.w3.org/2000/svg" xmlns:xlink="http://www.w3.org/1999/xlink">
    <g id="页面-1" stroke="none" stroke-width="1" fill="none" fill-rule="evenodd">
        <g id="一键买币组件" transform="translate(-22.000000, -88.000000)">
            <g id="编组-2备份-2" transform="translate(22.000000, 88.000000)">
                <rect id="矩形备份-6" x="0" y="0" width="24" height="24"></rect>
                <g id="编组" transform="translate(3.000000, 3.000000)" fill="#00082D" fill-rule="nonzero">
                    <path d="M13.8477607,10.8795418 C13.6142241,10.8795418 13.3806874,10.7895552 13.2007142,10.6117246 C12.8429103,10.2539207 12.8429103,9.67543531 13.2007142,9.31977395 L15.2554084,7.26507971 C15.846749,6.67373914 16.1724148,5.88528504 16.1724148,5.0496951 C16.1724148,4.21410516 15.846749,3.42565106 15.2554084,2.83431048 L15.1632793,2.74218133 C13.9420324,1.51879196 11.9516143,1.5209345 10.7303675,2.74218133 L8.67567326,4.79687558 C8.31786936,5.15467947 7.73938402,5.15467947 7.38372266,4.79687558 C7.02591876,4.44121422 7.02591876,3.86058633 7.38372266,3.50492497 L9.4384169,1.45023073 C11.373129,-0.482338826 14.5205178,-0.484481365 16.4552299,1.45023073 L16.547359,1.54235988 C17.4857908,2.48079166 18,3.72560642 18,5.05183764 C18,6.37806885 17.4836483,7.62288361 16.547359,8.56131539 L14.4926648,10.6160096 C14.3169766,10.7895552 14.08344,10.8795418 13.8477607,10.8795418 Z M5.05264098,17.9970541 C3.72640976,17.9970541 2.481595,17.4807024 1.54316322,16.5444131 L1.45103407,16.452284 C-0.483678024,14.5175719 -0.483678024,11.3680406 1.45103407,9.43547102 L3.50572831,7.38077678 C3.86353221,7.02297288 4.44201756,7.02297288 4.79767892,7.38077678 C5.15548282,7.73858068 5.15548282,8.31706602 4.79767892,8.67272738 L2.74512721,10.7252791 C1.52388037,11.9465259 1.52388037,13.9348015 2.74512721,15.1581909 L2.83725636,15.25032 C4.02208005,16.4330012 6.08534444,16.4330012 7.27016813,15.25032 L9.32486237,13.1956258 C9.68266627,12.8378219 10.2611516,12.8378219 10.616813,13.1956258 C10.9746169,13.5534297 10.9746169,14.131915 10.616813,14.4875764 L8.56211873,16.5422706 C7.62368695,17.4807024 6.37887219,17.9970541 5.05264098,17.9970541 Z" id="形状"></path>
                    <path d="M7.17161137,11.7365572 C6.93807469,11.7365572 6.70453802,11.6465706 6.5245648,11.4687399 C6.1667609,11.110936 6.1667609,10.5324506 6.5245648,10.1767893 L10.1818777,6.51947638 C10.5396816,6.16167248 11.1181669,6.16167248 11.4738283,6.51947638 C11.8316322,6.87728028 11.8316322,7.45576562 11.4738283,7.81142698 L7.81865794,11.4687399 C7.64082726,11.6487131 7.40514804,11.7365572 7.17161137,11.7365572 Z" id="路径"></path>
                </g>
            </g>
        </g>
    </g>
</svg>