<?xml version="1.0" encoding="UTF-8"?>
<svg width="128" height="128" viewBox="0 0 128 128" version="1.1" xmlns="http://www.w3.org/2000/svg" xmlns:xlink="http://www.w3.org/1999/xlink">
    <title>编组 132</title>
    <g id="页面-1" stroke="none" stroke-width="1" fill="none" fill-rule="evenodd">
        <g id="编组-132" fill="#90ff00">
            <circle id="椭圆形" opacity="0.1" cx="32" cy="32" r="32"></circle>
            <g id="编组" transform="translate(12.000000, 12.000000)" fill-rule="nonzero">
                <path d="M25.1277385,27.8711582 C25.1712862,27.6681593 24.9208872,27.5293743 24.7554062,27.6640165 C23.9671938,28.3082274 22.2557714,29.4930782 20.322256,29.4930782 C18.3321287,29.4930782 16.3877264,28.7929391 15.5407247,28.4449409 C15.3578246,28.3682985 15.166215,28.5402261 15.2358912,28.718368 C15.582095,29.6173633 16.7404623,31.5044248 20.3374977,31.5044248 C23.9323557,31.5023534 24.879517,29.045652 25.1277385,27.8711582 L25.1277385,27.8711582 Z" id="路径"></path>
                <path d="M37.2341633,13.6684504 C35.3845273,5.84184639 28.3632403,0 20.001075,0 C11.6410654,0 4.61762261,5.84184639 2.76798666,13.6684504 C1.19428708,13.9516783 0,15.3267391 0,16.9871899 L0,23.1144262 C0,24.9781093 1.50687124,26.489379 3.3651302,26.489379 C4.46671991,26.489379 5.43896445,25.9575158 6.05335401,25.1381006 C7.51064294,28.781147 10.4165978,31.7020702 14.0705989,33.2090157 C14.322822,33.3127939 14.514684,32.9711907 14.2969529,32.8068753 C11.8437062,30.9496784 9.45513201,27.9509216 9.61896923,23.3565753 C9.61896923,22.3620345 10.6106155,20.7491487 12.6327117,20.4594346 C14.6548079,20.1697206 23.8620283,20.336198 25.0175119,15.4499757 C25.2654234,14.1246419 25.1490128,13.1387493 25.9940679,13.8219556 C26.3648574,14.1462624 29.2276972,17.3958164 29.6135769,22.6949895 C29.8442425,25.8818442 29.4066247,29.354089 27.0288293,31.9053024 C26.847746,32.0998865 27.0870346,32.4004108 27.3133886,32.2642019 C30.2301223,30.5345657 32.4871955,27.8363332 33.6297445,24.6213718 C34.0070013,25.3759256 34.6558829,25.968326 35.4491999,26.2710124 C35.0352954,27.9574077 34.1298792,30.2470137 32.1465865,32.1863683 C29.7041186,34.5775904 26.1945529,35.894276 21.7041197,36.1104805 C21.2751249,35.1353981 20.3050361,34.4521918 19.1732659,34.4521918 C17.6469929,34.4521918 16.407435,35.6932058 16.407435,37.2260959 C16.407435,38.756824 17.6448371,40 19.1732659,40 C20.3309052,40 21.3225515,39.284363 21.7343003,38.2725258 C26.8024752,38.0390249 30.8057083,36.5191071 33.651302,33.7343927 C36.1713771,31.2674991 37.2147615,28.3595481 37.6480678,26.3358737 C39.0105036,25.9056267 40,24.627858 40,23.1165883 L40,16.9871899 C40.0021499,15.3289011 38.8078629,13.9516783 37.2341633,13.6684504 Z M19.7445404,5.29484893 C13.4023155,5.29484893 7.99784308,9.25571591 5.9304761,14.8056862 C5.64532292,14.4691436 5.29751402,14.191553 4.90649349,13.9884331 C6.59444798,7.20393492 12.7210976,2.16204529 20.001075,2.16204529 C27.2810523,2.16204529 33.407702,7.20393492 35.0956564,13.9884331 C34.5239802,14.2851221 34.0489596,14.7397721 33.7267534,15.2986325 C31.8038218,9.49137884 26.27216,5.29484893 19.7445404,5.29484893 Z" id="形状"></path>
            </g>
        </g>
    </g>
</svg>