<?xml version="1.0" encoding="UTF-8"?>
<svg width="24px" height="24px" viewBox="0 0 24 24" version="1.1" xmlns="http://www.w3.org/2000/svg" xmlns:xlink="http://www.w3.org/1999/xlink">
    <title>编组 129</title>
    <defs>
        <polygon id="path-1" points="0 0 17.9999153 0 17.9999153 7.78628299 0 7.78628299"></polygon>
    </defs>
    <g id="页面-1" stroke="none" stroke-width="1" fill="none" fill-rule="evenodd">
        <g id="头部下拉" transform="translate(-977.000000, -40.000000)">
            <g id="编组-129" transform="translate(977.000000, 40.000000)">
                <g id="编组-89" transform="translate(3.000000, 3.000000)">
                    <rect id="矩形备份-112" x="0" y="0" width="18" height="17.7601645"></rect>
                    <g id="编组-34">
                        <g id="编组">
                            <mask id="mask-2" fill="white">
                                <use xlink:href="#path-1"></use>
                            </mask>
                            <g id="Clip-12"></g>
                            <path d="M17.4483678,7.78628299 C17.1954455,7.78628299 16.9675974,7.61346085 16.9109079,7.35960591 C16.1575919,3.9813274 13.1912059,1.41337678 9.69717158,1.11506138 C6.58215735,0.85977224 3.64520623,2.33808282 2.04082127,4.97666821 C1.638544,5.67190086 1.32784204,6.456413 1.12325117,7.29757639 C1.10762522,7.36139867 1.08109745,7.41984268 1.04621162,7.47183274 C0.956816668,7.65433579 0.768578523,7.78126326 0.550905457,7.78126326 L0.548725092,7.78126326 C0.245291018,7.77982905 0,7.54210896 0,7.24271791 C0,7.10897795 0.0327054691,6.99639257 0.086487796,6.90567887 C0.31542608,6.01611094 0.652655805,5.18283571 1.0901823,4.42736629 C2.91841802,1.42126493 6.25037854,-0.256759206 9.79056387,0.0318752876 C13.7613712,0.371065637 17.1311247,3.28824606 17.9869178,7.1258299 C18.0523288,7.41912557 17.864454,7.70919427 17.5671976,7.77373366 C17.5272243,7.78198036 17.4876143,7.78628299 17.4483678,7.78628299 L17.4483678,7.78628299 Z" id="Fill-11" fill="#90ff00" mask="url(#mask-2)"></path>
                        </g>
                        <path d="M17.4489128,7.7863547 C17.144752,7.7863547 16.8980074,7.54289778 16.8980074,7.24278962 L16.8980074,3.44213665 C16.8980074,3.14166994 17.144752,2.89857157 17.4489128,2.89857157 C17.7530737,2.89857157 17.9998183,3.14166994 17.9998183,3.44213665 L17.9998183,7.24278962 C17.9998183,7.54289778 17.7530737,7.7863547 17.4489128,7.7863547" id="Fill-13" stroke-opacity="0" stroke="#979797" fill="#90ff00"></path>
                        <path d="M8.99945491,18 C8.73744776,18 8.47398704,17.9888849 8.20907274,17.9673718 C4.23862879,17.6281814 0.868875295,14.711001 0.0130821876,10.8734171 C-0.0523287505,10.5801215 0.135546,10.2900528 0.432802374,10.2255134 C0.730422143,10.1620496 1.02368118,10.3463455 1.08909212,10.6396411 C1.84240809,14.0179196 4.80843074,16.5858703 8.30246502,16.8841857 C11.418206,17.1423432 14.3544304,15.6611642 15.9588153,13.0225788 C16.3610926,12.3280633 16.6717946,11.5435511 16.8767488,10.7013121 C16.8923748,10.6378484 16.9189025,10.5794044 16.9537884,10.5274143 C17.0431833,10.3449112 17.2317849,10.2179838 17.4490945,10.2179838 L17.4512749,10.2179838 C17.754709,10.219418 18,10.4571381 18,10.7565291 C18,10.8902691 17.9672945,11.0028545 17.9135122,11.0935682 C17.6842105,11.9838532 17.3469808,12.8167699 16.9094543,13.5718807 C15.2185816,16.3531699 12.2398401,17.9996414 8.99945491,18 L8.99945491,18 Z" id="Fill-15" stroke-opacity="0" stroke="#979797" fill="#333333"></path>
                        <path d="M0.551087154,15.100783 C0.246926292,15.100783 0.000181697051,14.8573261 0.000181697051,14.557218 L0.000181697051,10.756565 C0.000181697051,10.4560983 0.246926292,10.2129999 0.551087154,10.2129999 C0.855248016,10.2129999 1.10199261,10.4560983 1.10199261,10.756565 L1.10199261,14.557218 C1.10199261,14.8573261 0.855248016,15.100783 0.551087154,15.100783" id="Fill-17" stroke-opacity="0" stroke="#979797" fill="#333333"></path>
                        <path d="M8.10964811,5.1631512 C6.76508994,5.1631512 5.71124705,6.23880769 5.71124705,7.52959549 C5.71124705,8.85623851 6.80142935,9.89603979 8.10964811,9.89603979 C9.41786688,9.89603979 10.5080492,8.82038329 10.5080492,7.52959549 C10.5080492,6.23880769 9.41786688,5.1631512 8.10964811,5.1631512 M8.10964811,6.05953161 C8.94545455,6.05953161 9.59956393,6.70492551 9.59956393,7.52959549 C9.59956393,8.35426548 8.94545455,8.99965938 8.10964811,8.99965938 C7.27384168,8.99965938 6.6197323,8.35426548 6.6197323,7.52959549 C6.6197323,6.74078073 7.27384168,6.05953161 8.10964811,6.05953161" id="Fill-19" fill="#333333"></path>
                        <path d="M11.3075889,13.4456345 C11.0063352,13.4456345 10.7624977,13.205046 10.7624977,12.9078063 C10.7624977,11.4843542 9.58873478,10.3262307 8.1460602,10.3262307 C6.70338562,10.3262307 5.52962268,11.4843542 5.52962268,12.9078063 C5.52962268,13.205046 5.28542184,13.4456345 4.98453152,13.4456345 C4.68327781,13.4456345 4.43944037,13.205046 4.43944037,12.9078063 C4.43944037,10.8913089 6.10196838,9.25057418 8.1460602,9.25057418 C10.1897886,9.25057418 11.85268,10.8913089 11.85268,12.9078063 C11.85268,13.205046 11.6088426,13.4456345 11.3075889,13.4456345" id="Fill-21" fill="#333333"></path>
                        <path d="M11.0895161,9.75261892 C10.7882624,9.75261892 10.5444249,9.51203042 10.5444249,9.21479068 C10.5444249,8.91755093 10.7882624,8.67696243 11.0895161,8.67696243 C11.6280661,8.67696243 12.0343407,8.2761011 12.0343407,7.74472679 C12.0343407,7.21299393 11.6280661,6.81249116 11.0895161,6.81249116 C10.7882624,6.81249116 10.5444249,6.5715441 10.5444249,6.27466291 C10.5444249,5.97742317 10.7882624,5.73683466 11.0895161,5.73683466 C12.2305736,5.73683466 13.124523,6.61887299 13.124523,7.74472679 C13.124523,8.8705806 12.2305736,9.75261892 11.0895161,9.75261892" id="Fill-23" fill="#333333"></path>
                        <path d="M13.8513476,12.8720945 C13.5500939,12.8720945 13.3062564,12.631506 13.3062564,12.3342662 C13.3062564,10.9108141 12.3283629,9.75269064 11.1258918,9.75269064 C10.8246381,9.75269064 10.5808007,9.51174358 10.5808007,9.21486239 C10.5808007,8.91762264 10.8246381,8.67703414 11.1258918,8.67703414 C12.9290534,8.67703414 14.3964387,10.3174103 14.3964387,12.3342662 C14.3964387,12.631506 14.1526013,12.8720945 13.8513476,12.8720945" id="Fill-25" fill="#333333"></path>
                    </g>
                </g>
                <rect id="矩形备份-71" x="0" y="0" width="24" height="24"></rect>
            </g>
        </g>
    </g>
</svg>