<?xml version="1.0" encoding="UTF-8"?>
<svg width="30px" height="30px" viewBox="0 0 30 30" version="1.1" xmlns="http://www.w3.org/2000/svg" xmlns:xlink="http://www.w3.org/1999/xlink">
    
    <g id="页面-1" stroke="none" stroke-width="1" fill="none" fill-rule="evenodd">
        <g id="tab栏" transform="translate(-1871.000000, -39.000000)">
            <g id="编组-18" transform="translate(1871.000000, 39.000000)">
                <rect id="矩形备份-35" fill="#F8F9FB" x="0" y="0" width="30" height="30" rx="15"></rect>
                <g id="编组-27备份-2" transform="translate(7.000000, 7.000000)" fill="#1A1A1A" fill-rule="nonzero">
                    <g id="编组-21">
                        <path d="M8.08290909,0.727272716 L9.4850909,1.0530909 C9.31345455,1.78327272 9.65527272,2.46327273 10.6450909,3.17236364 C12.9549091,4.82618182 13.5003636,5.75854546 12.8436364,7.81963637 C12.4567273,9.03418182 12.9258182,9.47781819 14.5454546,9.47781819 L14.5454546,10.9090909 C12.0581818,10.9090909 10.744,9.66545455 11.4705455,7.38763637 C11.8945455,6.05818182 11.6654545,5.66763636 9.8029091,4.33309091 C8.38036364,3.3149091 7.76218182,2.08581818 8.08290909,0.727272716 L8.08290909,0.727272716 Z" id="路径"></path>
                        <path d="M1.568,6.77818182 C1.13559566,9.04953352 1.93360715,11.3805064 3.66733189,12.9102811 C5.40105663,14.4400558 7.81324721,14.9416467 10.0130909,14.2298182 C9.61090908,13.3003636 9.17236363,13.0923636 8.35490909,13.1156364 C8.25527273,13.1178182 8.17018182,13.1229091 7.98399999,13.1338182 C6.57454545,13.2189091 5.87345453,13.0429091 5.21090908,12.0356364 C4.46981818,10.9112727 4.70181817,10.0981818 5.59636364,9.06690909 L5.70254545,8.94472727 C6.36872728,8.18109091 6.432,7.94254545 5.94836363,7.24727273 C5.40727272,6.46909091 5.10690909,6.42763637 3.97672727,6.75127272 C2.91490909,7.05454545 2.23418182,7.12145453 1.568,6.77818182 L1.568,6.77818182 Z M2.01745454,5.33963636 C2.38254546,5.61818181 2.70690909,5.60145454 3.57672726,5.35272727 C5.2370909,4.87781818 6.16145453,5.00654545 7.14254545,6.41672728 C8.09381818,7.784 7.85236364,8.69309092 6.79854546,9.90109092 L6.69527273,10.0196364 C6.1789091,10.616 6.12945454,10.7869091 6.42618181,11.2363636 C6.71563635,11.6770909 6.95999999,11.7381818 7.89600001,11.6821818 C8.09818182,11.6698182 8.19345456,11.6647273 8.31345454,11.6610909 C9.70545454,11.6218182 10.6625454,12.1410909 11.3345455,13.6334545 C13.7660373,12.1924542 14.9979331,9.35348246 14.3894107,6.5933493 C13.7808883,3.83321613 11.4694151,1.77544562 8.65740065,1.49047321 C5.84538619,1.2055008 3.16807471,2.75770279 2.01818182,5.33963636 L2.01745454,5.33963636 Z M8,16 C3.58181818,16 0,12.4181818 0,8 C0,3.58181818 3.58181818,0 8,0 C12.4181818,0 16,3.58181818 16,8 C16,12.4181818 12.4181818,16 8,16 Z" id="形状"></path>
                    </g>
                </g>
            </g>
        </g>
    </g>
</svg>