<?xml version="1.0" encoding="UTF-8"?>
<svg width="24px" height="24px" viewBox="0 0 24 24" version="1.1" xmlns="http://www.w3.org/2000/svg" xmlns:xlink="http://www.w3.org/1999/xlink">
    <g id="页面-1" stroke="none" stroke-width="1" fill="none" fill-rule="evenodd">
        <g id="首页列表组件" transform="translate(-1772.000000, -172.000000)">
            <g id="编组-33" transform="translate(1772.000000, 172.000000)">
                <path d="M12.0070858,6.85404061 C14.8594762,6.85404061 17.1717955,9.1663599 17.1717955,12.0187503 C17.1685814,14.8698083 14.8581438,17.1802459 12.0070858,17.18346 C9.15469541,17.18346 6.84237612,14.8711407 6.84237612,12.0187503 C6.84237612,9.1663599 9.15469541,6.85404061 12.0070858,6.85404061 Z M12.0070858,8.21285162 L12.0070858,8.2132609 C10.4677932,8.21313676 9.08000976,9.14031606 8.49090974,10.5624212 C7.90180971,11.9845263 8.22741799,13.6214697 9.31589154,14.7098847 C10.4043651,15.7982997 12.0413259,16.1238199 13.4633994,15.5346434 C14.8854728,14.9454669 15.8125775,13.5576337 15.8123706,12.018341 C15.8100025,9.91768881 14.1077379,8.21533266 12.0070858,8.21285162 Z" id="形状结合备份-3" fill="#90ff00" fill-rule="nonzero"></path>
                <path d="M12.0298009,5.64175199 C11.8495665,5.64175199 11.6767155,5.57014714 11.5492801,5.44269258 C11.4218447,5.31523801 11.3502659,5.14237625 11.350293,4.96214184 L11.350293,3.67127137 C11.3548585,3.29921352 11.6577662,3 12.029852,3 C12.4019379,3 12.7048456,3.29921352 12.709411,3.67127137 L12.709411,4.96234648 C12.709298,5.33760488 12.4050593,5.64175199 12.0298009,5.64175199 L12.0298009,5.64175199 Z" id="路径备份" fill="#FFFFFF" fill-rule="nonzero"></path>
                <path d="M12.0298009,21 C11.6545191,21 11.3502931,20.695774 11.3502931,20.3204922 L11.3502931,19.0293147 C11.3472895,18.7845446 11.4761518,18.5570714 11.6876426,18.4338111 C11.8991333,18.3105507 12.1605708,18.3105507 12.3720615,18.4338111 C12.5835523,18.5570714 12.7124146,18.7845446 12.709411,19.0293147 L12.709411,20.3204922 C12.709411,20.5007266 12.6378062,20.6735776 12.5103516,20.8010129 C12.3828971,20.9284483 12.2100353,21.0000271 12.0298009,21 L12.0298009,21 Z" id="路径备份-2" fill="#FFFFFF" fill-rule="nonzero"></path>
                <path d="M20.3204922,12.6754408 L19.0293147,12.6754408 C18.7845446,12.6784443 18.5570714,12.549582 18.4338111,12.3380912 C18.3105507,12.1266005 18.3105507,11.865163 18.4338111,11.6536723 C18.5570714,11.4421815 18.7845446,11.3133192 19.0293147,11.3163228 L20.3204922,11.3163228 C20.69255,11.3208882 20.9917635,11.6237959 20.9917635,11.9958818 C20.9917635,12.3679676 20.69255,12.6708753 20.3204922,12.6754408 L20.3204922,12.6754408 Z" id="路径备份-3" fill="#FFFFFF" fill-rule="nonzero"></path>
                <path d="M4.96224416,12.6754408 L3.67127137,12.6754408 C3.29921352,12.6708753 3,12.3679676 3,11.9958818 C3,11.6237959 3.29921352,11.3208882 3.67127137,11.3163228 L4.96234648,11.3163228 C5.33440434,11.3208882 5.63361785,11.6237959 5.63361785,11.9958818 C5.63361785,12.3679676 5.33440434,12.6708753 4.96234648,12.6754408 L4.96224416,12.6754408 Z" id="路径备份-4" fill="#FFFFFF" fill-rule="nonzero"></path>
                <path d="M16.9692017,7.7019678 C16.6942853,7.70214157 16.4463508,7.53664541 16.3410672,7.28268793 C16.2357836,7.02873045 16.2938976,6.73635519 16.4882972,6.54196428 L17.4014018,5.62896197 C17.6673746,5.3671809 18.0946942,5.36888922 18.3585654,5.63278849 C18.6224365,5.89668776 18.6240994,6.32400757 18.36229,6.58995241 L17.4494923,7.50295472 C17.3222527,7.63055555 17.1494012,7.70217807 16.9692017,7.7019678 L16.9692017,7.7019678 Z" id="路径备份-5" fill="#FFFFFF" fill-rule="nonzero"></path>
                <path d="M6.10945719,18.561712 C5.83449945,18.5618689 5.58653791,18.3963324 5.48125431,18.1423301 C5.37597072,17.8883278 5.4341117,17.5959122 5.62855269,17.4015042 L6.541555,16.4886042 C6.71320113,16.3168666 6.96342958,16.2497467 7.1979817,16.3125279 C7.43253383,16.375309 7.61577558,16.5584533 7.67868157,16.792972 C7.74158756,17.0274906 7.67460086,17.2777548 7.50295472,17.4494923 L6.58995241,18.3623923 C6.46267466,18.4900985 6.28975828,18.5618278 6.10945719,18.561712 L6.10945719,18.561712 Z" id="路径备份-6" fill="#FFFFFF" fill-rule="nonzero"></path>
                <path d="M17.8823063,18.5617122 C17.7020826,18.5618932 17.5292102,18.4902773 17.4019134,18.3626992 L16.4887065,17.4494923 C16.3151033,17.2782123 16.2465832,17.0270447 16.3091568,16.7913342 C16.3717304,16.5556237 16.5558034,16.3715114 16.7915006,16.3088876 C17.0271978,16.2462638 17.27838,16.3147305 17.4496969,16.4882972 L18.3626992,17.4011972 C18.5573072,17.5955237 18.6156139,17.8879827 18.5104074,18.1420823 C18.4052009,18.3961819 18.1572222,18.5618276 17.882204,18.5617122 L17.8823063,18.5617122 Z" id="路径备份-7" fill="#FFFFFF" fill-rule="nonzero"></path>
                <path d="M7.0224595,7.70196859 C6.84203261,7.70231452 6.6689279,7.63064181 6.541555,7.5028524 L5.62855269,6.58985009 C5.45464208,6.4186438 5.38589733,6.16732581 5.44845251,5.93143739 C5.51100769,5.69554897 5.69525453,5.51132174 5.93114961,5.44879168 C6.16704469,5.38626163 6.41835535,5.45503313 6.58954313,5.62896197 L7.50295472,6.54216892 C7.69715528,6.73652632 7.75520221,7.02870726 7.65004218,7.28253795 C7.54488215,7.53636865 7.29721148,7.70189322 7.0224595,7.70196859 Z" id="路径备份-8" fill="#FFFFFF" fill-rule="nonzero"></path>
                <rect id="矩形备份-62" x="0" y="0" width="24" height="24"></rect>
            </g>
        </g>
    </g>
</svg>