<?xml version="1.0" encoding="UTF-8"?>
<svg width="50px" height="53px" viewBox="0 0 50 53" version="1.1" xmlns="http://www.w3.org/2000/svg" xmlns:xlink="http://www.w3.org/1999/xlink">
    <title>编组</title>
    <g id="页面-1" stroke="none" stroke-width="1" fill="none" fill-rule="evenodd">
        <g id="个人-注销账户" transform="translate(-935.000000, -359.000000)" fill="#FFBF3A" fill-rule="nonzero">
            <g id="编组" transform="translate(935.000000, 359.000000)">
                <path d="M25.182904,9.47769852 C17.0380531,9.47769852 10.4150344,16.1010939 10.4150344,24.2457295 C10.4150344,29.914139 13.6371904,35.0457825 18.7087269,37.5219011 L18.7087269,43.9063213 C18.7087269,45.696402 19.783012,47.2479918 21.3344404,47.9340297 L21.3344404,49.3064285 C21.3344404,50.8579107 22.5873247,52.1109026 24.1388069,52.1109026 L26.2869467,52.1109026 C27.8382675,52.1109026 29.0914208,50.8579645 29.0914208,49.3064285 L29.0914208,47.934245 C30.6426877,47.2480994 31.7168115,45.6965634 31.7168115,43.9063751 L31.7168115,37.5219549 C36.7586442,35.0458363 40.0105577,29.9142466 40.0105577,24.2457834 C39.950935,16.1009863 33.3277549,9.47769852 25.1830116,9.47769852 L25.1830116,9.47769852 L25.182904,9.47769852 Z M26.2566511,50.0227083 L24.1086188,50.0227083 C23.7210173,50.0227083 23.3925005,49.6943528 23.3925005,49.3066437 L23.3925005,48.3219541 L26.9729847,48.3219541 L26.9729847,49.3066437 C26.9729847,49.694299 26.6446292,50.0227083 26.2566511,50.0227083 L26.2566511,50.0227083 Z M27.2414483,46.2335446 L23.124252,46.2335446 C21.8416102,46.2335446 20.7970826,45.1894474 20.7970826,43.9063751 L20.7970826,41.4004451 L29.598483,41.4004451 L29.598483,43.9063751 C29.5685102,45.1893936 28.5241978,46.2335446 27.2413945,46.2335446 L27.2413945,46.2335446 L27.2414483,46.2335446 Z M25.182904,31.0181817 L22.9452224,26.931012 L27.3905051,26.931012 L25.1828502,31.0181817 L25.182904,31.0181817 Z M30.195033,35.8810925 L29.5686178,36.14961 L29.5686178,39.312197 L26.2270549,39.312197 L26.2270549,33.1663754 C26.4061383,33.0468609 26.525599,32.8679927 26.6447907,32.6891246 L29.6878632,27.0801764 C29.9563269,26.6326832 29.9264617,26.0658906 29.6581057,25.6183436 C29.3598845,25.1409851 28.8226342,24.842441 28.2260842,24.842441 L22.1100739,24.842441 C21.5132548,24.842441 20.9763812,25.1406085 20.6781062,25.6183436 C20.4095349,26.0658368 20.3796159,26.6027642 20.6482948,27.0801764 L23.7213402,32.7188283 C23.840478,32.8975888 23.9599387,33.0766722 24.1388607,33.1961867 L24.1388607,39.312197 L20.7974054,39.312197 L20.7974054,36.14961 L20.1708826,35.8810925 C15.5169204,33.8824937 12.5334705,29.2877776 12.5334705,24.2459448 C12.5334705,17.2645979 18.2317451,11.5664309 25.2129844,11.5664309 C32.1940623,11.5664309 37.8926059,17.2647055 37.8926059,24.2459448 C37.8628484,29.2877776 34.8495333,33.8527362 30.1953559,35.8810925 L30.1953559,35.8810925 L30.195033,35.8810925 Z M0,21.294674 L5.53867082,21.294674 L5.53867082,23.433666 L0,23.433666 L0,21.294674 Z M11.1329823,11.0988123 L7.21660912,7.18243906 L8.72934729,5.67007757 L12.6457205,9.58645079 L11.1329823,11.0988123 L11.1329823,11.0988123 Z M37.4109964,9.5865046 L41.3273696,5.67013139 L42.8397849,7.18249288 L38.9234655,11.0988661 L37.4109964,9.5865046 Z M44.461383,21.294674 L50,21.294674 L50,23.433666 L44.461383,23.433666 L44.461383,21.294674 Z M23.9303964,0 L26.0693884,0 L26.0693884,5.53861701 L23.9303964,5.53861701 L23.9303964,0 Z" id="形状"></path>
            </g>
        </g>
    </g>
</svg>