<?xml version="1.0" encoding="UTF-8"?>
<svg width="42px" height="42px" viewBox="0 0 42 42" version="1.1" xmlns="http://www.w3.org/2000/svg" xmlns:xlink="http://www.w3.org/1999/xlink">
    
    <g id="页面-1" stroke="none" stroke-width="1" fill="none" fill-rule="evenodd">
        <g id="个人中心组件" transform="translate(-377.000000, -23.000000)">
            <g id="编组-117" transform="translate(377.000000, 23.000000)">
                <rect id="矩形备份-141" x="0" y="0" width="42" height="42"></rect>
                <g id="编组-107" transform="translate(5.250000, 5.250000)" fill="#96A2B2" fill-rule="nonzero" stroke="#96A2B2" stroke-width="0.25">
                    <path d="M31.5,15.75 C31.5,7.05170456 24.4482954,0 15.75,0 C7.05170456,0 0,7.05170456 0,15.75 C0,24.4482954 7.05170456,31.5 15.75,31.5 C24.4482954,31.5 31.5,24.4482954 31.5,15.75 Z M1.4318182,15.75 C1.4318182,7.8420682 7.8420682,1.4318182 15.75,1.4318182 C23.6579318,1.4318182 30.0681818,7.8420682 30.0681818,15.75 C30.0681818,23.6579318 23.6579318,30.0681818 15.75,30.0681818 C7.8420682,30.0681818 1.4318182,23.6579318 1.4318182,15.75 Z" id="形状"></path>
                    <path d="M15.9503578,7 C18.799195,7 21.1471377,9.31663685 21.1158318,12.1654741 C21.1158318,12.4159213 20.8966905,12.6350626 20.6462433,12.6350626 C20.3957961,12.6350626 20.1766547,12.4159213 20.1766547,12.1654741 C20.1766547,9.84883721 18.2669946,7.9391771 15.9503578,7.9391771 C13.6337209,7.9391771 11.7240608,9.84883721 11.7240608,12.1654741 L11.7240608,14.4821109 L21.2097496,14.4821109 C22.2741503,14.4821109 23.1507156,15.3586762 23.1507156,16.4230769 L23.1507156,22.559034 C23.1507156,23.6234347 22.2741503,24.5 21.2097496,24.5 L10.690966,24.5 C9.6265653,24.5 8.75,23.6234347 8.75,22.559034 L8.75,16.4230769 C8.75,15.3586762 9.6265653,14.4821109 10.690966,14.4821109 L10.7848837,14.4821109 L10.7848837,12.1654741 C10.7848837,9.31663685 13.1015206,7 15.9503578,7 Z M21.2097496,15.421288 L10.690966,15.421288 C10.1274597,15.421288 9.6891771,15.8595707 9.6891771,16.4230769 L9.6891771,22.559034 C9.6891771,23.1225403 10.1274597,23.5608229 10.690966,23.5608229 L21.2097496,23.5608229 C21.7732558,23.5608229 22.2115385,23.1225403 22.2115385,22.559034 L22.2115385,16.4230769 C22.2115385,15.8595707 21.7732558,15.421288 21.2097496,15.421288 Z M15.9503578,16.9552773 C16.8895349,16.9552773 17.6721825,17.706619 17.6721825,18.677102 C17.6721825,19.4597496 17.1086762,20.1484794 16.3573345,20.3363148 L16.3573345,21.8076923 C16.3573345,22.0268336 16.200805,22.1833631 15.9816637,22.1833631 L15.9190519,22.1833631 C15.6999106,22.1833631 15.543381,22.0268336 15.543381,21.8076923 L15.543381,20.3363148 C14.7920394,20.1797853 14.2285331,19.4910555 14.2285331,18.677102 C14.2285331,17.7379249 15.0111807,16.9552773 15.9503578,16.9552773 Z M15.9503578,17.7692308 C15.4494633,17.7692308 15.0424866,18.1762075 15.0424866,18.677102 C15.0424866,19.1779964 15.4494633,19.5849732 15.9503578,19.5849732 C16.4512522,19.5849732 16.858229,19.1779964 16.858229,18.677102 C16.858229,18.1762075 16.4512522,17.7692308 15.9503578,17.7692308 Z" id="形状结合"></path>
                </g>
            </g>
        </g>
    </g>
</svg>