<?xml version="1.0" encoding="UTF-8"?>
<svg width="24px" height="24px" viewBox="0 0 24 24" version="1.1" xmlns="http://www.w3.org/2000/svg" xmlns:xlink="http://www.w3.org/1999/xlink">
    <title>编组 133备份</title>
    <g id="页面-1" stroke="none" stroke-width="1" fill="none" fill-rule="evenodd">
        <g id="头部下拉" transform="translate(-1212.000000, -485.000000)">
            <g id="编组-7" transform="translate(1212.000000, 485.000000)">
                <g id="编组-18" transform="translate(4.000000, 4.000000)" fill-rule="nonzero" stroke-width="0.2">
                    <path d="M8.42857143,14.5714286 L1.78571429,14.5714286 C1.58846973,14.5714286 1.42857143,14.4115303 1.42857143,14.2142857 L1.42857143,1.78571429 C1.42857143,1.58846973 1.58846973,1.42857143 1.78571429,1.42857143 L8.42857143,1.42857143 C8.82306054,1.42857143 9.14285714,1.10877482 9.14285714,0.714285714 C9.14285714,0.319796607 8.82306054,0 8.42857143,0 L0.714285714,0 C0.319796607,0 0,0.319796607 0,0.714285714 L0,15.2857143 C0,15.6802034 0.319796607,16 0.714285714,16 L8.42857143,16 C8.82306054,16 9.14285714,15.6802034 9.14285714,15.2857143 C9.14285714,14.8912252 8.82306054,14.5714286 8.42857143,14.5714286 Z" id="路径" stroke="#FFFFFF" fill="#FFFFFF"></path>
                    <path d="M15.9960714,7.92857143 L15.995,7.92 C15.995,7.91303571 15.9935714,7.90607143 15.9925,7.89928571 C15.9925,7.89696429 15.9925,7.89464286 15.9916071,7.89232143 C15.991522,7.89095371 15.991522,7.88958201 15.9916071,7.88821429 C15.9684777,7.73847966 15.8981609,7.60003564 15.7908929,7.49303571 L13.0766071,4.78017857 C12.9426515,4.64621605 12.7609646,4.57095612 12.5715179,4.57095612 C12.3820711,4.57095612 12.2003842,4.64621605 12.0664286,4.78017857 C11.9324661,4.91413419 11.8572061,5.09582113 11.8572061,5.28526786 C11.8572061,5.47471458 11.9324661,5.65640153 12.0664286,5.79035714 L13.5625,7.28571429 L4.14285714,7.28571429 C3.74836804,7.28571429 3.42857143,7.60551089 3.42857143,8 C3.42857143,8.39448911 3.74836804,8.71428571 4.14285714,8.71428571 L13.5598214,8.71428571 L12.0598214,10.2092857 C11.9258589,10.3432413 11.850599,10.5249283 11.850599,10.714375 C11.850599,10.9038217 11.9258589,11.0855087 12.0598214,11.2194643 C12.3387499,11.4983085 12.790893,11.4983085 13.0698214,11.2194643 L15.7907143,8.50732143 C15.9430353,8.35530392 16.0185094,8.14259846 15.9960714,7.92857143 L15.9960714,7.92857143 Z" id="路径" stroke="#90ff00" fill="#90ff00"></path>
                </g>
                <rect id="矩形" x="0" y="0" width="24" height="24"></rect>
            </g>
        </g>
    </g>
</svg>