<?xml version="1.0" encoding="UTF-8"?>
<svg width="24px" height="24px" viewBox="0 0 24 24" version="1.1" xmlns="http://www.w3.org/2000/svg" xmlns:xlink="http://www.w3.org/1999/xlink">
    <title>编组 2</title>
    <g id="页面-1" stroke="none" stroke-width="1" fill="none" fill-rule="evenodd">
        <g id="个人-设备" transform="translate(-428.000000, -333.000000)">
            <g id="编组-2" transform="translate(428.000000, 333.000000)">
                <rect id="矩形备份-6" x="0" y="0" width="24" height="24"></rect>
                <g id="编组" transform="translate(4.000000, 3.000000)" fill="#333333" fill-rule="nonzero">
                    <path d="M2.51428571,3.89783444e-16 L13.4857143,3.89783444e-16 C14.8742857,3.89783444e-16 16,1.12571428 16,2.51428573 L16,15.7714286 C16,17.16 14.8742857,18.2857143 13.4857143,18.2857143 L2.51428571,18.2857143 C1.12571428,18.2857143 -3.89783444e-16,17.16 -3.89783444e-16,15.7714286 L-3.89783444e-16,2.51428573 C-3.89783444e-16,1.1257143 1.12571428,3.89783444e-16 2.51428571,3.89783444e-16 Z M2.51428571,1.37142857 C2.21118115,1.37142857 1.92049096,1.49183639 1.70616367,1.70616369 C1.49183638,1.92049098 1.37142857,2.21118117 1.37142857,2.51428573 L1.37142857,15.7714286 C1.37142857,16.0745331 1.49183638,16.3652233 1.70616367,16.5795506 C1.92049096,16.7938779 2.21118115,16.9142857 2.51428571,16.9142857 L13.4857143,16.9142857 C13.7888189,16.9142857 14.079509,16.7938779 14.2938363,16.5795506 C14.5081636,16.3652233 14.6285714,16.0745331 14.6285714,15.7714286 L14.6285714,2.51428573 C14.6285714,2.21118117 14.5081636,1.92049098 14.2938363,1.70616369 C14.079509,1.49183639 13.7888189,1.37142857 13.4857143,1.37142857 L2.51428571,1.37142857 Z M6.17142858,14.6285714 C5.79271903,14.6285714 5.48571429,14.3215667 5.48571429,13.9428572 C5.48571429,13.5641476 5.79271903,13.2571429 6.17142858,13.2571429 L9.82857142,13.2571429 C10.207281,13.2571429 10.5142857,13.5641476 10.5142857,13.9428572 C10.5142857,14.3215667 10.207281,14.6285714 9.82857142,14.6285714 L6.17142858,14.6285714 L6.17142858,14.6285714 Z" id="形状"></path>
                </g>
            </g>
        </g>
    </g>
</svg>