<?xml version="1.0" encoding="UTF-8"?>
<svg width="24px" height="24px" viewBox="0 0 24 24" version="1.1" xmlns="http://www.w3.org/2000/svg" xmlns:xlink="http://www.w3.org/1999/xlink">
    <g id="页面-1" stroke="none" stroke-width="1" fill="none" fill-rule="evenodd">
        <g id="首页列表组件" transform="translate(-1772.000000, -52.000000)">
            <g id="编组-31" transform="translate(1772.000000, 52.000000)">
                <rect id="矩形备份-61" x="0" y="0" width="24" height="24"></rect>
                <polygon id="路径" fill="#FF962F" fill-rule="nonzero" transform="translate(7.953561, 10.202578) scale(-1, 1) translate(-7.953561, -10.202578) " points="7.95356066 8.09875621 8.47576131 9.70588235 10.1656458 9.70588235 8.7985352 10.6992412 9.32067131 12.3063997 7.95356066 11.3130085 6.58638547 12.3063997 7.10861838 10.6992412 5.74147547 9.70588235 7.43136001 9.70588235"></polygon>
                <path d="M16.2144298,19.0713905 C17.2678329,19.0713905 18.2754527,18.8759323 19.2037018,18.5201841 C17.5891548,20.0567801 15.4048171,21 13.0001775,21 C8.02944672,21 4,16.970521 4,11.9998548 C4,7.03093087 8.0269301,3.00251662 12.9952733,3.00003226 C9.97776977,4.26060559 7.85725118,7.23958529 7.85725118,10.714212 C7.85725118,15.3297108 11.5987697,19.0713906 16.2144298,19.0713905 L16.2144298,19.0713905 Z" id="路径" fill="#333333" fill-rule="nonzero" transform="translate(11.601851, 12.000016) scale(-1, 1) translate(-11.601851, -12.000016) "></path>
                <polygon id="路径" fill="#90ff00" fill-rule="nonzero" transform="translate(7.953561, 10.202562) scale(-1, 1) translate(-7.953561, -10.202562) " points="7.43136001 9.70588235 5.74147547 9.70588235 7.10861838 10.6992412 6.58638547 12.3063997 7.95356066 11.3130085 9.32067131 12.3063997 8.7985352 10.6992412 10.1656458 9.70588235 8.47576131 9.70588235 7.95356066 8.09872393 7.43136001 9.70588235"></polygon>
            </g>
        </g>
    </g>
</svg>