<?xml version="1.0" encoding="UTF-8"?>
<svg width="24px" height="24px" viewBox="0 0 24 24" version="1.1" xmlns="http://www.w3.org/2000/svg" xmlns:xlink="http://www.w3.org/1999/xlink">
    <g id="页面-1" stroke="none" stroke-width="1" fill="none" fill-rule="evenodd">
        <g id="OTC切图" transform="translate(-195.000000, -39.000000)">
            <g id="编组-10" transform="translate(195.000000, 39.000000)">
                <rect id="矩形备份-6" x="0" y="0" width="24" height="24"></rect>
                <g id="编组" transform="translate(5.000000, 5.000000)" fill="#333333" fill-rule="nonzero">
                    <path d="M10.6842105,1.10526316 L11.9744211,1.10526316 C13.0936842,1.10526316 14,2.01231578 14,3.13323684 L14,11.9718421 C14,13.0920263 13.0933158,14 11.9744211,14 L2.02557894,14 C0.90631579,14 6.28269367e-16,13.0929474 6.28269367e-16,11.9720263 L6.28269367e-16,3.13342106 C6.28269367e-16,2.01323684 0.906684206,1.10526316 2.02557894,1.10526316 L3.31578948,1.10526316 L3.31578948,0.552631579 C3.31578948,0.247421586 3.56321106,-6.28269367e-16 3.86842106,-6.28269367e-16 C4.17363105,-6.28269367e-16 4.42105264,0.247421586 4.42105264,0.552631579 L4.42105264,1.10526316 L9.57894736,1.10526316 L9.57894736,0.552631579 C9.57894736,0.247421586 9.82636895,-6.28269367e-16 10.1315789,-6.28269367e-16 C10.4367889,-6.28269367e-16 10.6842105,0.247421586 10.6842105,0.552631579 L10.6842105,1.10526316 Z M10.6842105,2.21052632 L10.6842105,2.7631579 C10.6842105,3.06836789 10.4367889,3.31578948 10.1315789,3.31578948 C9.82636895,3.31578948 9.57894736,3.06836789 9.57894736,2.7631579 L9.57894736,2.21052632 L4.42105264,2.21052632 L4.42105264,2.7631579 C4.42105264,3.06836789 4.17363105,3.31578948 3.86842106,3.31578948 C3.56321106,3.31578948 3.31578948,3.06836789 3.31578948,2.7631579 L3.31578948,2.21052632 L2.02557894,2.21052632 C1.78117087,2.21081926 1.54689222,2.30820363 1.3742942,2.48125077 C1.20169618,2.65429791 1.10492095,2.88882884 1.10526004,3.13323684 L1.10526004,11.9718421 C1.10462703,12.2163566 1.20130181,12.4510771 1.37395818,12.6242173 C1.54661456,12.7973575 1.7810636,12.8947368 2.02557894,12.8947368 L11.9744211,12.8947368 C12.2188291,12.8944439 12.4531078,12.7970595 12.6257058,12.6240124 C12.7983038,12.4509653 12.895079,12.2164343 12.89474,11.9720263 L12.89474,3.13342106 C12.895373,2.88890654 12.7986982,2.65418605 12.6260418,2.48104585 C12.4533854,2.30790565 12.2189364,2.21052632 11.9744211,2.21052632 L10.6842105,2.21052632 Z M10.5,6.07894737 C10.80521,6.07894737 11.0526316,6.32636896 11.0526316,6.63157895 C11.0526316,6.93678895 10.80521,7.18421053 10.5,7.18421053 L3.49999999,7.18421053 C3.19479,7.18421053 2.94736841,6.93678895 2.94736841,6.63157895 C2.94736841,6.32636896 3.19479,6.07894737 3.49999999,6.07894737 L10.5,6.07894737 L10.5,6.07894737 Z M8.28947369,8.84210527 C8.59468368,8.84210527 8.84210527,9.08952686 8.84210527,9.39473685 C8.84210527,9.69994684 8.59468368,9.94736843 8.28947369,9.94736843 L3.49999999,9.94736843 C3.19479,9.94736843 2.94736841,9.69994684 2.94736841,9.39473685 C2.94736841,9.08952686 3.19479,8.84210527 3.49999999,8.84210527 L8.28947369,8.84210527 Z" id="形状"></path>
                </g>
            </g>
        </g>
    </g>
</svg>