<?xml version="1.0" encoding="UTF-8"?>
<svg width="15px" height="14px" viewBox="0 0 15 14" version="1.1" xmlns="http://www.w3.org/2000/svg" xmlns:xlink="http://www.w3.org/1999/xlink">
    <g id="页面-1" stroke="none" stroke-width="1" fill="none" fill-rule="evenodd">
        <g id="一键买币组件" transform="translate(-220.000000, -32.000000)" fill="#90ff00" fill-rule="nonzero">
            <g id="编组备份-8" transform="translate(220.958371, 32.000000)">
                <path d="M11.0418513,1.64899783 L9.49589151,1.52463564 C9.38808721,1.51596584 9.28598684,1.47262772 9.20486207,1.40110358 L8.04148045,0.375413142 C7.48120844,-0.118542809 6.64311068,-0.12585731 6.07430247,0.358246775 L4.89317496,1.36348167 C4.81081667,1.43357362 4.7079805,1.47512021 4.60004671,1.48190768 L3.05214473,1.57928296 C2.3066921,1.62616155 1.70890782,2.21362408 1.64899783,2.95813694 L1.52463564,4.50411241 C1.51596254,4.61191123 1.47262463,4.71400561 1.40110358,4.79512619 L0.375413142,5.95852347 C-0.118542809,6.51881114 -0.12585731,7.35689324 0.358246775,7.92571711 L1.36348167,9.10681329 C1.4335705,9.18916737 1.47511688,9.29199755 1.48190768,9.39992588 L1.57928296,10.9478435 C1.62616155,11.6933118 2.21362408,12.2911118 2.95813694,12.3509904 L4.50411241,12.4753526 C4.61191123,12.4840257 4.71400561,12.5273636 4.79512619,12.5988847 L5.95852347,13.6245751 C6.51881114,14.1185467 7.35689324,14.1258612 7.92571711,13.6417415 L9.10681329,12.6365222 C9.18916737,12.5664334 9.29199755,12.524887 9.39992588,12.5180962 L10.9478435,12.420721 C11.6933118,12.3738267 12.2911118,11.7863798 12.3509904,11.0418513 L12.4753526,9.49589151 C12.4840224,9.38808721 12.5273605,9.28598684 12.5988847,9.20486207 L13.6245751,8.04148045 C14.1185467,7.48120844 14.1258612,6.64311068 13.6417415,6.07430247 L12.6365222,4.89317496 C12.5664303,4.81081667 12.5248837,4.7079805 12.5180962,4.60004671 L12.420721,3.05214473 C12.3738267,2.3066921 11.7863798,1.70890782 11.0418513,1.64899783 L11.0418513,1.64899783 Z M11.4211716,3.11503065 L11.5185313,4.66293263 C11.5389014,4.98673036 11.6635465,5.29523308 11.8738249,5.54230172 L12.8790442,6.72342923 C13.0404174,6.91302674 13.0379897,7.19237178 12.8733273,7.37913434 L11.8476525,8.54253162 C11.633095,8.78589543 11.5030869,9.09217836 11.477072,9.41557296 L11.3526785,10.9615328 C11.3327241,11.2097246 11.1334627,11.4055246 10.8849733,11.4211716 L9.33707129,11.5185313 C9.0132681,11.5388981 8.70475939,11.6635434 8.45768654,11.8738249 L7.27657469,12.8790442 C7.08697718,13.0404174 6.80760081,13.0379897 6.62085392,12.8733273 L5.4574723,11.8476525 C5.21410849,11.633095 4.90782555,11.5030869 4.58443096,11.477072 L3.03845549,11.3526785 C2.79027932,11.3327241 2.5944637,11.1334627 2.57884794,10.8849733 L2.481457,9.33707129 C2.46109459,9.01326994 2.33645484,8.70476143 2.12617898,8.45768654 L1.12094408,7.27657469 C0.959586498,7.08697718 0.962014223,6.80760081 1.12667665,6.62085392 L2.15236709,5.4574723 C2.36691886,5.21410642 2.49692142,4.90782369 2.52293194,4.58443096 L2.64729413,3.03845549 C2.66727979,2.79027932 2.86655688,2.5944637 3.11503065,2.57884794 L4.66293263,2.481457 C4.98672852,2.46109126 5.29523104,2.33645172 5.54230172,2.12617898 L6.72342923,1.12094408 C6.91302674,0.959586498 7.19237178,0.962014223 7.37913434,1.12667665 L8.54253162,2.15236709 C8.78589749,2.36691886 9.09218022,2.49692142 9.41557296,2.52293194 L10.9615328,2.64729413 C11.2097246,2.66727979 11.4055246,2.86655688 11.4211716,3.11503065 Z" id="形状"></path>
                <path d="M10.1343363,5.44577223 C10.3294314,5.63787578 10.3338013,5.95055114 10.1455821,6.14799568 L10.1398026,6.15394753 L7.17591023,9.16409194 C6.98748743,9.35549067 6.68211091,9.36383892 6.48352298,9.18445351 L6.47752415,9.17897155 L4.41311187,7.25355046 C4.21084319,7.06490837 4.19981662,6.7480354 4.38844305,6.54578239 C4.57518994,6.34554987 4.88761469,6.33272208 5.09010264,6.51552197 L5.09621111,6.52112923 L6.80423332,8.11410859 L9.42617664,5.45128551 C9.61826453,5.25617471 9.93093988,5.25182047 10.1283844,5.440024 L10.1343363,5.44578789 L10.1343363,5.44577223 Z" id="路径"></path>
            </g>
        </g>
    </g>
</svg>