<?xml version="1.0" encoding="UTF-8"?>
<svg width="30px" height="30px" viewBox="0 0 30 30" version="1.1" xmlns="http://www.w3.org/2000/svg" xmlns:xlink="http://www.w3.org/1999/xlink">
    
    <g id="页面-1" stroke="none" stroke-width="1" fill="none" fill-rule="evenodd">
        <g id="tab栏" transform="translate(-1771.000000, -129.000000)">
            <g id="编组-13" transform="translate(1771.000000, 129.000000)">
                <rect id="矩形备份-44" fill="#F8F9FB" x="0" y="0" width="30" height="30" rx="15"></rect>
                <g id="编组-82备份-3" transform="translate(7.000000, 7.000000)" fill="#90ff00" fill-rule="nonzero" stroke="#90ff00" stroke-width="0.3">
                    <path d="M8,0 C8.63118257,0 9.14285714,0.511674572 9.14285714,1.14285714 C9.14285714,1.18285714 9.12342857,1.216 9.12,1.256 C11.7904575,1.78976236 13.7131857,4.13386461 13.7142857,6.85714286 L13.7142857,10.8571429 L15.4285714,10.8571429 C15.7441627,10.8571429 16,11.1129801 16,11.4285714 C16,11.7441627 15.7441627,12 15.4285714,12 L0.571428571,12 C0.255837286,12 0,11.7441627 0,11.4285714 C0,11.1129801 0.255837286,10.8571429 0.571428571,10.8571429 L2.28571429,10.8571429 L2.28571429,6.85714286 C2.28636779,4.13370485 4.20929848,1.78935577 6.88,1.256 C6.87657143,1.216 6.85714286,1.18285714 6.85714286,1.14285714 C6.85714286,0.511674572 7.36881743,0 8,0 Z M8,2.28571429 C5.47542857,2.28571429 3.42857143,4.30971429 3.42857143,6.80685714 L3.42857143,10.8571429 L12.5714286,10.8571429 L12.5714286,6.80685714 C12.5714286,4.30971429 10.5245714,2.28571429 8,2.28571429 Z" id="形状结合"></path>
                    <path d="M6.28571429,13.1428571 L5.14285714,13.1428571 C5.14285714,14.7208136 6.42204357,16 8,16 C9.57795643,16 10.8571429,14.7208136 10.8571429,13.1428571 L9.71428571,13.1428571 C9.71428571,14.089631 8.94677386,14.8571429 8,14.8571429 C7.05322614,14.8571429 6.28571429,14.089631 6.28571429,13.1428571 Z" id="路径"></path>
                </g>
            </g>
        </g>
    </g>
</svg>