<?xml version="1.0" encoding="UTF-8"?>
<svg style="margin-right:20px;" width="24px" height="24px" viewBox="0 0 24 24" version="1.1" xmlns="http://www.w3.org/2000/svg" xmlns:xlink="http://www.w3.org/1999/xlink">
  
    <g id="页面-1" stroke="none" stroke-width="1" fill="none" fill-rule="evenodd">
        <g id="个人-设备" transform="translate(-428.000000, -413.000000)">
            <g id="编组-4" transform="translate(428.000000, 413.000000)">
                <rect id="矩形备份-6" x="0" y="0" width="24" height="24"></rect>
                <g id="编组备份" transform="translate(4.000000, 4.000000)" fill="#333333" fill-rule="nonzero">
                    <path d="M13.936143,12.3014049 L2.06385696,12.3014049 C0.91954023,12.3014049 0,11.3818646 0,10.2375479 L0,2.06385696 C0,0.91954023 0.91954023,0 2.06385696,0 L13.936143,0 C15.0804598,0 16,0.939974457 16,2.06385696 L16,10.2171137 C16,11.3614304 15.0804598,12.3014049 13.936143,12.3014049 Z M2.06385696,1.04214559 C1.4916986,1.04214559 1.02171137,1.51213282 1.02171137,2.08429119 L1.02171137,10.2375479 C1.02171137,10.8097063 1.4916986,11.2796935 2.06385696,11.2796935 L13.936143,11.2796935 C14.5083014,11.2796935 14.9782886,10.8097063 14.9782886,10.2375479 L14.9782886,2.06385696 C14.9782886,1.4916986 14.5083014,1.02171137 13.936143,1.02171137 L2.06385696,1.02171137 L2.06385696,1.04214559 Z M13.3844189,15.284802 L2.71775223,15.284802 C2.26819923,15.284802 2.00255428,14.8148148 2.20689655,14.4265645 L2.71775223,13.4252874 C2.81992337,13.2413793 3.02426564,13.1187739 3.22860792,13.1187739 L12.853129,13.1187739 C13.0779055,13.1187739 13.2618135,13.2413793 13.3639847,13.4252874 L13.8952746,14.4265645 C14.0996169,14.8148148 13.8135377,15.284802 13.3844189,15.284802 L13.3844189,15.284802 Z" id="形状"></path>
                    <polygon id="路径" points="6.39591315 11.8722861 9.60408685 11.8722861 9.60408685 14.3448276 6.39591315 14.3448276"></polygon>
                </g>
            </g>
        </g>
    </g>
</svg>