<?xml version="1.0" encoding="UTF-8"?>
<svg width="42px" height="42px" viewBox="0 0 42 42" version="1.1" xmlns="http://www.w3.org/2000/svg" xmlns:xlink="http://www.w3.org/1999/xlink">
    <title>编组 120</title>
    <g id="页面-1" stroke="none" stroke-width="1" fill="none" fill-rule="evenodd">
        <g id="个人中心组件" transform="translate(-174.000000, -23.000000)">
            <g id="编组-120" transform="translate(174.000000, 23.000000)">
                <g id="编组-104" transform="translate(5.250000, 5.250000)">
                    <g id="编组-103" transform="translate(10.500000, 7.000000)" fill="#96A2B2" fill-rule="nonzero">
                        <path d="M8.46534546,0 L3.16352691,0 C1.4191357,0 0,1.4191357 0,3.16352691 L0,14.3364731 C0,16.0808643 1.4191357,17.5 3.16352691,17.5 L8.46534546,17.5 C10.2097367,17.5 11.6288724,16.0808643 11.6288724,14.3364731 L11.6288724,3.16352691 C11.6288724,1.4191357 10.2097367,0 8.46534546,0 L8.46534546,0 Z M10.5743764,14.3364731 C10.5743764,15.4993681 9.62825995,16.4454845 8.46536493,16.4454845 L3.16352691,16.4454845 C2.00063188,16.4454845 1.05451546,15.4993681 1.05451546,14.3364731 L1.05451546,3.16352691 C1.05451546,2.00063188 2.00063188,1.05449599 3.16352691,1.05449599 L4.25701774,1.05449599 C4.25993797,1.34315125 4.49439371,1.5764389 4.78373036,1.5764389 L6.84512254,1.5764389 C7.13447866,1.5764389 7.36891493,1.34315125 7.37183516,1.05449599 L8.46532599,1.05449599 C9.62822102,1.05449599 10.5743764,2.00061241 10.5743764,3.16352691 L10.5743764,14.3364731 L10.5743764,14.3364731 Z" id="形状" stroke="#96A2B2" stroke-width="0.25"></path>
                        <path d="M6.84514201,14.7695047 L4.78374982,14.7695047 C4.49258317,14.7695047 4.25649209,15.0055763 4.25649209,15.2967624 C4.25649209,15.5879485 4.4925637,15.8240201 4.78374982,15.8240201 L6.84514201,15.8240201 C7.13630867,15.8240201 7.37239974,15.5879485 7.37239974,15.2967624 C7.37239974,15.0055763 7.13630867,14.7695047 6.84514201,14.7695047 Z" id="路径"></path>
                    </g>
                    <circle id="椭圆形" stroke="#96A2B2" cx="15.75" cy="15.75" r="15.25"></circle>
                </g>
                <rect id="矩形" x="0" y="0" width="42" height="42"></rect>
            </g>
        </g>
    </g>
</svg>