<?xml version="1.0" encoding="UTF-8"?>
<svg width="24px" height="24px" viewBox="0 0 24 24" version="1.1" xmlns="http://www.w3.org/2000/svg" xmlns:xlink="http://www.w3.org/1999/xlink">
    <title>编组 9</title>
    <g id="页面-1" stroke="none" stroke-width="1" fill="none" fill-rule="evenodd">
        <g id="头部下拉" transform="translate(-1212.000000, -385.000000)">
            <g id="编组-9" transform="translate(1212.000000, 385.000000)">
                <g id="编组-8" transform="translate(3.000000, 4.000000)" fill-rule="nonzero">
                    <path d="M12.3753047,9.75088025 C13.9506825,9.75088025 15.3167236,10.8402543 15.6673519,12.3761172 L17.2507448,12.3761172 C17.6476007,12.3765574 17.9754338,12.6860531 17.9986914,13.0822271 C18.021949,13.4784011 17.7325811,13.8241298 17.3385028,13.8710022 L17.2507448,13.8762527 L15.6666018,13.8770027 C15.3146244,15.411189 13.9493491,16.4987088 12.3753047,16.4987088 C10.8012603,16.4987088 9.43598499,15.411189 9.08400758,13.8770027 L0.749255171,13.8762527 C0.352399301,13.8758125 0.0245661619,13.5663168 0.0013085797,13.1701428 C-0.0219490025,12.7739688 0.267418884,12.4282401 0.661497249,12.3813677 L0.749255171,12.3761172 L9.08325752,12.3761172 C9.4338858,10.8402543 10.7999269,9.75088025 12.3753047,9.75088025 Z" id="路径" fill="#FFFFFF"></path>
                    <path d="M12.3753047,11.2510157 C11.3396773,11.2510157 10.5001354,12.0905576 10.5001354,13.126185 C10.5001354,14.1618124 11.3396773,15.0013542 12.3753047,15.0013542 C13.4109321,15.0013542 14.250474,14.1618124 14.250474,13.126185 C14.250474,12.0905576 13.4109321,11.2510157 12.3753047,11.2510157 L12.3753047,11.2510157 Z" id="路径" fill="#90ff00"></path>
                    <path d="M5.6246953,0 C7.24484155,0 8.59721364,1.14010292 8.92499323,2.66274038 L17.2507448,2.66274038 C17.6476007,2.66318056 17.9754338,2.9726762 17.9986914,3.36885023 C18.021949,3.76502426 17.7325811,4.11075298 17.3385028,4.15762533 L17.2507448,4.1628758 L8.90774167,4.16362587 C8.54255551,5.68086426 7.18526355,6.75022983 5.6246953,6.75022983 C4.06412705,6.75022983 2.70683508,5.68086426 2.34164892,4.16362587 L0.749255171,4.1628758 C0.352399301,4.16243562 0.0245661619,3.85293997 0.0013085797,3.45676595 C-0.0219490025,3.06059192 0.267418884,2.7148632 0.661497249,2.66799085 L0.749255171,2.66274038 L2.32439737,2.66274038 C2.66056498,1.10895628 4.03496146,6.82146506e-05 5.6246953,0 Z" id="路径" fill="#FFFFFF"></path>
                    <path d="M5.6246953,1.50013542 C4.5890679,1.50013542 3.74952602,2.33967731 3.74952602,3.3753047 C3.74952602,4.4109321 4.5890679,5.25047398 5.6246953,5.25047398 C6.66032269,5.25047398 7.49986458,4.4109321 7.49986458,3.3753047 C7.49986458,2.33967731 6.66032269,1.50013542 5.6246953,1.50013542 L5.6246953,1.50013542 Z" id="路径" fill="#90ff00"></path>
                </g>
                <rect id="矩形备份-134" x="0" y="0" width="24" height="24"></rect>
            </g>
        </g>
    </g>
</svg>