<?xml version="1.0" encoding="UTF-8"?>
<svg width="24px" height="24px" viewBox="0 0 24 24" version="1.1" xmlns="http://www.w3.org/2000/svg" xmlns:xlink="http://www.w3.org/1999/xlink">
    <g id="页面-1" stroke="none" stroke-width="1" fill="none" fill-rule="evenodd">
        <g id="公告" transform="translate(-80.000000, -253.000000)">
            <g id="编组-149" transform="translate(80.000000, 253.000000)">
                <g id="编组" transform="translate(4.000000, 3.000000)" fill="#5271FF" fill-rule="nonzero">
                    <path d="M9.91278409,1.43181818 C10.0048295,1.43181818 10.0764205,1.47620455 10.0962614,1.4985 L10.0962614,16.5015 C10.0764205,16.5237955 10.0049318,16.5681818 9.91278409,16.5681818 C9.838125,16.5681818 9.79619318,16.5383182 9.76806818,16.5123409 L5.06188636,12.1631932 L4.65044318,11.7829432 L1.43181818,11.7829432 L1.43181818,6.21705682 L4.65044318,6.21705682 L5.06188636,5.83680682 L9.76806818,1.48765909 C9.79619318,1.46168182 9.838125,1.43181818 9.91278409,1.43181818 M9.91278409,0 C9.52138636,0 9.12231818,0.134897727 8.79627273,0.436090909 L4.09009091,4.78523864 L1.20293182,4.78523864 C0.538568182,4.78523864 0,5.28842045 0,5.90921591 L0,12.0907841 C0,12.7114773 0.538568182,13.2147614 1.20293182,13.2147614 L4.09009091,13.2147614 L8.79627273,17.5639091 C9.12221591,17.8651023 9.52148864,18 9.91278409,18 C10.7376136,18 11.5280795,17.4011932 11.5280795,16.4984318 L11.5280795,1.50156818 C11.5280795,0.598806818 10.7376136,0 9.91278409,0 Z M16.0425,9.51136364 L13.3834091,9.51136364 C12.9880234,9.51136364 12.6675,9.19084022 12.6675,8.79545455 C12.6675,8.40006887 12.9880234,8.07954545 13.3834091,8.07954545 L16.0425,8.07954545 C16.4378857,8.07954545 16.7584091,8.40006887 16.7584091,8.79545455 C16.7584091,9.19084022 16.4378857,9.51136364 16.0425,9.51136364 L16.0425,9.51136364 Z M16.2550227,4.04611364 L13.9521477,5.37565909 C13.7305235,5.50558541 13.4562737,5.50680168 13.2335057,5.37884622 C13.0107377,5.25089075 12.8736085,5.01338288 12.8741715,4.75648242 C12.874738,4.49958196 13.0129102,4.26267931 13.2362386,4.13570455 L15.5391136,2.80615909 C15.7607379,2.67623278 16.0349877,2.6750165 16.2577557,2.80297196 C16.4805236,2.93092743 16.6176529,3.1684353 16.6170898,3.42533576 C16.6165233,3.68223622 16.4783511,3.91913887 16.2550227,4.04611364 L16.2550227,4.04611364 Z M15.5391136,14.6824773 L13.2362386,13.3529318 C13.0129102,13.225957 12.874738,12.9890544 12.8741715,12.7321539 C12.8736085,12.4752535 13.0107377,12.2377456 13.2335057,12.1097901 C13.4562737,11.9818347 13.7305235,11.983051 13.9521477,12.1129773 L16.2550227,13.4425227 C16.4783511,13.5694975 16.6165233,13.8064001 16.6170898,14.0633006 C16.6176529,14.3202011 16.4805236,14.5577089 16.2577557,14.6856644 C16.0349877,14.8136199 15.7607379,14.8124036 15.5391136,14.6824773 Z" id="形状"></path>
                </g>
                <rect id="矩形备份-177" x="0" y="0" width="24" height="24"></rect>
            </g>
        </g>
    </g>
</svg>