<?xml version="1.0" encoding="UTF-8"?>
<svg width="24px" height="24px" viewBox="0 0 24 24" version="1.1" xmlns="http://www.w3.org/2000/svg" xmlns:xlink="http://www.w3.org/1999/xlink">
    <title>编组 99备份</title>
    <g id="页面-1" stroke="none" stroke-width="1" fill="none" fill-rule="evenodd">
        <g id="头部下拉" transform="translate(-471.000000, -284.000000)">
            <g id="编组-99备份" transform="translate(471.000000, 284.000000)">
                <rect id="矩形备份-132" x="0" y="0" width="24" height="24"></rect>
                <g id="编组-94" transform="translate(3.000000, 3.000000)" fill-rule="nonzero">
                    <path d="M14.1046316,11.7446301 L5.96778947,11.7446301 C5.55899291,11.7438227 5.16661774,11.9054397 4.87698243,12.1939301 C4.58734713,12.4824204 4.42417723,12.8741524 4.42336842,13.2829489 L4.42336842,16.9000046 L14.1045263,16.9000046 C14.5133229,16.900812 14.9056981,16.739195 15.1953334,16.4507046 C15.4849687,16.1622143 15.6481386,15.7704824 15.6489474,15.3616858 L15.6489474,13.2829489 C15.6472631,12.4317152 14.9558655,11.7430038 14.1046316,11.7446301 L14.1046316,11.7446301 Z" id="路径" fill="#90ff00"></path>
                    <path d="M15.772,3.78852789 L15.1644211,3.78852789 C15.8211831,2.71415159 15.5708318,1.31837987 14.5816143,0.539233153 C13.5923968,-0.239913562 12.1768184,-0.156293776 11.2862105,0.733896314 L9.16768421,2.84789631 L7.04926316,0.734001577 C6.15985486,-0.161650177 4.74028162,-0.248232897 3.74861567,0.532688232 C2.75694971,1.31360936 2.50827438,2.71391123 3.17042105,3.78852789 L2.228,3.78852789 C0.999381014,3.78858304 0.00267002633,4.78317496 0,6.01179105 L0,8.14252789 C0.00174138393,8.94483963 0.652633746,9.59431926 1.45494737,9.59431737 L1.5,9.59431737 L1.5,15.4674753 C1.50272788,16.6960673 2.49940497,17.6907384 3.728,17.6907384 L14.272,17.6907384 C15.500595,17.6907384 16.4972721,16.6960673 16.5,15.4674753 L16.5,9.59431737 L16.5450526,9.59431737 C17.3473663,9.59431926 17.9982586,8.94483963 18,8.14252789 L18,6.01179105 C17.99733,4.78317496 17.000619,3.78858304 15.772,3.78852789 L15.772,3.78852789 Z M12.2505263,1.69610684 C12.6873836,1.25523827 13.3989209,1.25198644 13.8397895,1.68884368 C14.280658,2.12570092 14.2839099,2.83723827 13.8470526,3.27810684 L13.3073684,3.78863316 L10.1535789,3.78863316 L12.2505263,1.69610684 Z M4.48842105,3.27810684 C4.20582397,2.99289608 4.09685163,2.57858672 4.20255285,2.19124509 C4.30825408,1.80390345 4.61257034,1.50237596 5.00086864,1.40024509 C5.38916695,1.29811421 5.80245555,1.41089608 6.08505263,1.69610684 L8.18189474,3.78852789 L5.02810526,3.78852789 L4.48842105,3.27810684 Z M1.36368421,8.14252789 L1.36368421,6.01179105 C1.36472893,5.53516568 1.75137349,5.14932163 2.228,5.14926473 L8.47726316,5.14926473 L8.47726316,8.23347526 L1.45494737,8.23347526 C1.40466718,8.23347526 1.36385819,8.19280778 1.36368421,8.14252789 L1.36368421,8.14252789 Z M2.86315789,15.4674753 L2.86315789,9.59431737 L8.47726316,9.59431737 L8.47726316,16.3300017 L3.728,16.3300017 C3.25116805,16.330235 2.86420301,15.9443061 2.86315789,15.4674753 Z M15.1357895,15.4674753 C15.1347448,15.9441006 14.7481002,16.3300016 14.2714737,16.3300016 L9.83989474,16.3300016 L9.83989474,9.59431737 L15.1353684,9.59431737 L15.1353684,15.4674753 L15.1357895,15.4674753 Z M16.6357895,8.14252789 C16.6356734,8.19284891 16.5948475,8.23358052 16.5445263,8.23358052 L9.84031579,8.23358052 L9.84031579,5.14937 L15.7714737,5.14937 C16.2481242,5.14937 16.6348026,5.53524687 16.6357895,6.01189631 L16.6357895,8.14252789 L16.6357895,8.14252789 Z" id="形状" fill="#333333"></path>
                </g>
            </g>
        </g>
    </g>
</svg>