<?xml version="1.0" encoding="UTF-8"?>
<svg width="24px" height="24px" viewBox="0 0 24 24" version="1.1" xmlns="http://www.w3.org/2000/svg" xmlns:xlink="http://www.w3.org/1999/xlink">
    <g id="页面-1" stroke="none" stroke-width="1" fill="none" fill-rule="evenodd">
        <g id="个人-组件" transform="translate(-404.000000, -188.000000)">
            <g id="编组-4备份-3" transform="translate(404.000000, 188.000000)">
                <g id="编组-4备份">
                    <rect id="矩形备份-2" x="0" y="0" width="24" height="24"></rect>
                </g>
                <g id="编组-3" transform="translate(6.000000, 5.000000)" fill-rule="nonzero">
                    <path d="M5.25000514,14.2499342 L5.25000514,0.750053378 C5.25000514,0.335843472 4.91422167,5.99980021e-05 4.50001176,5.99980021e-05 C4.08580185,5.99980021e-05 3.75001838,0.335843472 3.75001838,0.750053378 L3.75001838,12.6149486 L1.23754056,10.4549677 C0.922741028,10.1857313 0.449286328,10.2226674 0.180049887,10.537467 C-0.089186553,10.8522665 -0.0522503706,11.3257212 0.26254916,11.5949576 L4.01251605,14.8199292 C4.23499605,15.0102246 4.54786847,15.0536685 4.81377891,14.9311886 C5.07968934,14.8087086 5.25000514,14.5426964 5.25000514,14.2499342 Z" id="路径" fill="#F75F52"></path>
                    <path d="M6.74999188,0.750053378 L6.74999188,14.2499342 C6.74999188,14.6641441 7.08577536,14.9999276 7.49998526,14.9999276 C7.91419517,14.9999276 8.24997864,14.6641441 8.24997864,14.2499342 L8.24997864,2.38503894 L10.7624565,4.54501988 C10.9660961,4.71918532 11.2471829,4.77148039 11.4998344,4.68220606 C11.7524859,4.59293172 11.9383182,4.37565086 11.9873301,4.11221108 C12.036342,3.84877131 11.9410875,3.57919538 11.7374479,3.40502994 L7.98748097,0.180058421 C7.76500098,-0.0102370109 7.45212855,-0.053680927 7.18621812,0.0687990276 C6.92030768,0.191278982 6.74999188,0.45729119 6.74999188,0.750053378 Z" id="路径" fill="#90ff00"></path>
                </g>
            </g>
        </g>
    </g>
</svg>