<?xml version="1.0" encoding="UTF-8"?>
<svg width="24px" height="24px" viewBox="0 0 24 24" version="1.1" xmlns="http://www.w3.org/2000/svg" xmlns:xlink="http://www.w3.org/1999/xlink">
    <title>编组 11</title>
    <g id="一级页面" stroke="none" stroke-width="1" fill="none" fill-rule="evenodd">
        <g id="广场切图" transform="translate(-136.000000, -68.000000)">
            <g id="编组-11" transform="translate(136.000000, 68.000000)">
                <g id="编组备份-8" transform="translate(4.000000, 3.000000)" fill-rule="nonzero">
                    <path d="M9.58883053,13.5155979 C9.59075115,14.6796285 9.28396402,15.8233525 8.69974003,16.830156 C8.45831315,17.2518765 8.1691486,17.6444076 7.83795495,18 L1.55979202,18 C0.698342675,18 0,17.3016573 0,16.440208 L0,7.59228769 C0.373120144,7.40015959 0.765166922,7.24726135 1.16984403,7.13604853 C1.75582851,6.9694489 2.36219762,6.88544971 2.97140381,6.8864724 C6.62799419,6.89293461 9.58883053,9.85900184 9.58883053,13.5155979 Z" id="路径" fill-opacity="0.6" fill="#90ff00"></path>
                    <path d="M12.6460139,18 L1.55979202,18 C0.698342675,18 0,17.3016573 0,16.440208 L0,2.41377817 C0,2.0000956 0.164334752,1.60335639 0.4568525,1.31083864 C0.749370247,1.01832089 1.14610945,0.853986129 1.55979202,0.853986129 L8.32538995,0.853986129 C8.64843346,0.853986129 8.91031197,1.11586464 8.91031197,1.43890814 C8.91031197,1.76195165 8.64843346,2.02383016 8.32538995,2.02383016 L1.55979202,2.02383016 C1.34442969,2.02383017 1.16984403,2.19841584 1.16984403,2.41377817 L1.16984403,16.4285095 C1.16984403,16.6438719 1.34442969,16.8184575 1.55979202,16.8184575 L12.6460139,16.8184575 C12.8613762,16.8184575 13.0359619,16.6438719 13.0359619,16.4285095 L13.0359619,7.22183709 C13.0359619,6.8987936 13.2978404,6.63691512 13.6208839,6.63691512 C13.9439274,6.63691512 14.2058498,6.8987936 14.2058498,7.22183709 L14.2058498,16.4285095 C14.2089238,16.8442153 14.0459665,17.2439665 13.7531101,17.5390193 C13.4602537,17.834072 13.0617313,18 12.6460139,18 Z" id="路径" fill="#8992A6"></path>
                    <path d="M13.3401213,13.9055459 L0.861785104,13.9055459 C0.5387416,13.9055459 0.276863098,13.6436674 0.276863098,13.3206239 C0.276863098,12.9975804 0.5387416,12.7357019 0.861785104,12.7357019 L13.3401213,12.7357019 C13.6631648,12.7357019 13.9250433,12.9975804 13.9250433,13.3206239 C13.9250433,13.6436674 13.6631648,13.9055459 13.3401213,13.9055459 Z M5.23310226,10.7001967 C5.07132891,10.7016243 4.9162757,10.6355613 4.80525906,10.5178837 C4.69424242,10.400206 4.63731602,10.2415706 4.64818024,10.080156 L4.76126517,8.26689774 C4.76851909,8.12022912 4.82960936,7.98138761 4.93284229,7.87694975 L12.6382149,0.171577125 C12.7478038,0.0618516111 12.8964811,0.000136519468 13.0515598,0 C13.2066385,0.000136524127 13.3553158,0.0618516154 13.4649047,0.171577125 L15.1182842,1.82495667 C15.2287846,1.93411633 15.290977,2.08297557 15.290977,2.23830156 C15.290977,2.39362754 15.2287846,2.54248679 15.1182842,2.65164645 L7.41291161,10.3570191 C7.31604862,10.4545945 7.18734103,10.5141045 7.05025997,10.5246967 L5.2837955,10.6845754 L5.23310226,10.7001967 Z M5.91551126,8.56325823 L5.85701907,9.47573657 L6.73830156,9.39384749 L13.8782496,2.25389948 L13.0515598,1.4272097 L5.91551126,8.56325823 Z" id="形状" fill="#8992A6"></path>
                </g>
                <rect id="矩形备份-16" x="0" y="0" width="24" height="24"></rect>
            </g>
        </g>
    </g>
</svg>