<?xml version="1.0" encoding="UTF-8"?>
<svg width="24px" height="24px" viewBox="0 0 24 24" version="1.1" xmlns="http://www.w3.org/2000/svg" xmlns:xlink="http://www.w3.org/1999/xlink">
    <title>编组 7</title>
    <g id="一级页面" stroke="none" stroke-width="1" fill="none" fill-rule="evenodd">
        <g id="广场切图" transform="translate(-16.000000, -20.000000)">
            <g id="编组-7" transform="translate(16.000000, 20.000000)">
                <g id="编组" transform="translate(3.000000, 3.000000)" fill-rule="nonzero">
                    <polygon id="路径" fill="#90ff00" points="17.0774676 3.83169485 3.16869839 3.83169485 3.16869839 13.1702713 4.64569406 13.1702713 4.64569406 16.3602045 7.82854896 13.1726308 17.0774676 13.1726308"></polygon>
                    <path d="M3.90719622,18 L3.90719622,13.8238301 L0,13.8238301 L0,0 L17.7310263,0 L17.7310263,13.8238301 L8.6331105,13.8238301 L3.90719622,18 Z M1.30239874,12.5214314 L5.20959497,12.5214314 L5.20959497,15.1120724 L8.13999214,12.5214314 L16.4286276,12.5214314 L16.4286276,1.30239874 L1.30239874,1.30239874 L1.30239874,12.519072 L1.30239874,12.5214314 Z" id="形状" fill="#333333"></path>
                    <path d="M3.18521431,3.87652379 L13.8639402,3.87652379 L13.8639402,5.17892253 L3.18521431,5.17892253 L3.18521431,3.87652379 Z M3.18521431,8.12583563 L11.6932757,8.12583563 L11.6932757,9.42823437 L3.18521431,9.42823437 L3.18521431,8.12583563 Z" id="形状" fill="#333333"></path>
                </g>
                <rect id="矩形" x="0" y="0" width="24" height="24"></rect>
            </g>
        </g>
    </g>
</svg>