<?xml version="1.0" encoding="UTF-8"?>
<svg width="24px" height="24px" viewBox="0 0 24 24" version="1.1" xmlns="http://www.w3.org/2000/svg" xmlns:xlink="http://www.w3.org/1999/xlink">
    <title>编组 8</title>
    <g id="一级页面" stroke="none" stroke-width="1" fill="none" fill-rule="evenodd">
        <g id="广场切图" transform="translate(-16.000000, -68.000000)">
            <g id="编组-8" transform="translate(16.000000, 68.000000)">
                <g id="编组备份" transform="translate(3.000000, 3.000000)" fill-rule="nonzero">
                    <polygon id="路径" fill-opacity="0.6" fill="#90ff00" points="17.5087692 3.6 3.6 3.6 3.6 12.9385765 5.07699567 12.9385765 5.07699567 16.1285096 8.25985057 12.9409359 17.5087692 12.9409359"></polygon>
                    <path d="M3.90719622,18 L3.90719622,13.8238301 L0,13.8238301 L0,0 L17.7310263,0 L17.7310263,13.8238301 L8.6331105,13.8238301 L3.90719622,18 Z M1.30239874,12.5214314 L5.20959497,12.5214314 L5.20959497,15.1120724 L8.13999214,12.5214314 L16.4286276,12.5214314 L16.4286276,1.30239874 L1.30239874,1.30239874 L1.30239874,12.519072 L1.30239874,12.5214314 Z" id="形状" fill="#8992A6"></path>
                    <path d="M3.6,3.6 L14.2787259,3.6 L14.2787259,4.90239874 L3.6,4.90239874 L3.6,3.6 Z M3.6,7.84931184 L12.1080613,7.84931184 L12.1080613,9.15171058 L3.6,9.15171058 L3.6,7.84931184 Z" id="形状" fill="#8992A6"></path>
                </g>
                <rect id="矩形备份-13" x="0" y="0" width="24" height="24"></rect>
            </g>
        </g>
    </g>
</svg>