<?xml version="1.0" encoding="UTF-8"?>
<svg width="24px" height="24px" viewBox="0 0 24 24" version="1.1" xmlns="http://www.w3.org/2000/svg" xmlns:xlink="http://www.w3.org/1999/xlink">
    <title>编组 9</title>
    <g id="一级页面" stroke="none" stroke-width="1" fill="none" fill-rule="evenodd">
        <g id="广场切图" transform="translate(-56.000000, -68.000000)">
            <g id="编组-9" transform="translate(56.000000, 68.000000)">
                <g id="编组备份-2" transform="translate(4.000000, 3.000000)" fill-rule="nonzero">
                    <path d="M14.8403176,15.1565051 L3.90348088,15.1565051 C2.65335333,15.1565051 1.6895268,14.0551531 1.8555217,12.8160459 L2.64738395,6.90084184 C3.14284313,3.19936224 6.00332782,0.459183673 9.37189925,0.459183673 C12.7404707,0.459183673 15.6009554,3.19936224 16.0966441,6.90084184 L16.8885064,12.8160459 C17.0542717,14.0551531 16.0906748,15.1565051 14.8403176,15.1565051 L14.8403176,15.1565051 Z M12.3035574,15.4389031 C12.0310319,16.6421939 10.9551646,17.5408163 9.66922068,17.5408163 L9.66394007,17.5408163 C8.34470537,17.5408163 7.24633803,16.5951276 7.01008803,15.3445408" id="形状" fill-opacity="0.6" fill="#90ff00"></path>
                    <path d="M8.29166966,18 L8.28638905,18 C6.76878701,18 5.46286864,16.9190816 5.18138905,15.429949 C5.13432272,15.1808418 5.2980217,14.9406888 5.54735843,14.8933929 C5.79646558,14.8463265 6.03684823,15.0100255 6.08391456,15.2593622 C6.28342986,16.3152551 7.20983292,17.0816327 8.28661864,17.0816327 L8.29189925,17.0816327 C8.8107768,17.0816327 9.29774109,16.9096684 9.70021558,16.5841071 C10.0916697,16.2675 10.3678686,15.8248469 10.4783023,15.3374235 C10.5343227,15.0901531 10.7802156,14.934949 11.027486,14.9909694 C11.2747564,15.0469898 11.4299605,15.2928827 11.3739401,15.5401531 C11.2182768,16.2280102 10.828889,16.8522704 10.277639,17.2981378 C9.71812374,17.7506633 9.01281762,18 8.29166966,18 L8.29166966,18 Z" id="路径" stroke="#8992A6" stroke-width="0.3" fill="#8992A6"></path>
                    <path d="M16.1189146,15.6156888 L0.459144149,15.6156888 C0.326669659,15.6156888 0.200853333,15.5585204 0.113608435,15.4588776 C0.026378188,15.3592945 -0.0135507838,15.2268676 0.00409312879,15.0956633 L1.10934823,6.84 C1.36281762,4.94701531 2.22309823,3.21405612 3.5317717,1.96048469 C4.85146558,0.696122449 6.5410319,0 8.28914415,0 C10.0372564,0 11.7268227,0.696122449 13.0465166,1.96048469 C14.3551901,3.21405612 15.2154707,4.94701531 15.4689401,6.84 L16.5741952,15.0956633 C16.5918698,15.2268701 16.5519371,15.3593095 16.4646799,15.4588776 C16.377435,15.5585204 16.251389,15.6156888 16.1189146,15.6156888 Z M0.983991088,14.6973214 L15.5942972,14.6973214 L14.5586084,6.96168367 C14.3326901,5.27441327 13.569986,3.73362245 12.4110064,2.62354592 C11.2630472,1.52403061 9.79916966,0.918367347 8.28891456,0.918367347 C6.77865946,0.918367347 5.3147819,1.52403061 4.16682272,2.62354592 C3.00784313,3.73362245 2.24513905,5.27441327 2.01922068,6.96168367 L0.983991088,14.6973214 Z" id="形状" stroke="#8992A6" stroke-width="0.3" fill="#8992A6"></path>
                    <path d="M11.9855727,6.24994898 L11.9782258,6.24994898 C11.7247564,6.24604592 11.5222564,6.03711735 11.526389,5.78364796 C11.5374095,5.08316327 11.3197564,4.44512755 10.8793993,3.8869898 C10.5396033,3.4565051 10.187639,3.23563776 10.1841952,3.23334184 C9.96746048,3.10178571 9.8992717,2.81984694 10.0310574,2.60311224 C10.1626135,2.38637755 10.4459299,2.31795918 10.6626646,2.44951531 C10.7368227,2.49451531 12.4796544,3.57887755 12.4447564,5.79811224 C12.4406237,6.04928571 12.2358278,6.24994898 11.9855727,6.24994898 L11.9855727,6.24994898 Z" id="路径" stroke="#8992A6" stroke-width="0.3" fill="#8992A6"></path>
                </g>
                <rect id="矩形备份-14" x="0" y="0" width="24" height="24"></rect>
            </g>
        </g>
    </g>
</svg>