<?xml version="1.0" encoding="UTF-8"?>
<svg width="24px" height="24px" viewBox="0 0 24 24" version="1.1" xmlns="http://www.w3.org/2000/svg" xmlns:xlink="http://www.w3.org/1999/xlink">
    <title>编组 10</title>
    <g id="一级页面" stroke="none" stroke-width="1" fill="none" fill-rule="evenodd">
        <g id="广场切图" transform="translate(-96.000000, -68.000000)">
            <g id="编组-10" transform="translate(96.000000, 68.000000)">
                <g id="编组备份-7" transform="translate(3.000000, 3.000000)" fill-rule="nonzero">
                    <path d="M9.94825094,1.3688213 C12.1986157,1.3688213 14.0228897,3.23034913 14.0228897,5.52661597 C14.0228897,7.14349916 13.1184862,8.54484229 11.797638,9.23254152 C15.3610344,10.0680919 18.0143726,13.2667665 18.0143726,17.0852852 L18.0143726,18 L1.88212928,18 L1.88212928,17.0852852 C1.88212928,13.2667665 4.53546754,10.0680919 8.09886387,9.23204259 C6.77801567,8.54500859 5.87361216,7.14366548 5.87361216,5.52661597 C5.87361216,3.23034913 7.69788616,1.3688213 9.94825094,1.3688213 Z" id="路径" fill-opacity="0.6" fill="#90ff00"></path>
                    <path d="M8.81007604,0 C11.2660836,0 13.2570342,1.99214829 13.2570342,4.44952472 C13.2570342,6.90690115 11.2660836,8.89887832 8.81007604,8.89887832 C6.35406844,8.89887832 4.36311787,6.90690115 4.36311787,4.44952472 C4.36311787,1.9921483 6.35406844,0 8.81007604,0 Z M8.81007604,1.3688213 C7.11034219,1.3688213 5.73193915,2.74790875 5.73193915,4.44952472 C5.73193915,6.15096958 7.11034219,7.53005703 8.81007604,7.53005703 C10.509981,7.53005703 11.8882129,6.15096958 11.8882129,4.44952472 C11.8882129,2.74790875 10.5101521,1.3688213 8.81007604,1.3688213 Z" id="形状" fill="#8992A6"></path>
                    <path d="M6.90895436,5.12948669 C7.13613593,4.95999716 7.45769455,5.00672198 7.62724334,5.23385932 C7.92555563,5.63346131 8.39541901,5.86826608 8.89408744,5.86693917 C9.40055131,5.86693917 9.86560835,5.62927758 10.1607605,5.23385932 C10.330336,5.00664035 10.6520016,4.95991114 10.8792205,5.12948671 C11.1064395,5.29906227 11.1531687,5.6207278 10.9835931,5.84794678 C10.4915233,6.50728519 9.71663017,6.89508072 8.89391635,6.89372978 C8.06047529,6.89372978 7.29171103,6.50070343 6.80441065,5.84794678 C6.7229638,5.73883731 6.68820308,5.60183896 6.70777736,5.46709731 C6.72735164,5.33235566 6.79965705,5.21091109 6.90878327,5.12948669 L6.90895436,5.12948669 Z M8.72623573,8.22730038 C13.5456844,8.22730038 17.4524715,12.1342585 17.4524715,16.9535361 L17.4524715,17.9657795 L0,17.9657795 L0,16.9535361 C0,12.1342585 3.90678707,8.22730038 8.72623573,8.22730038 Z M8.72623573,9.59612167 C4.82423954,9.59612167 1.63163497,12.6338783 1.38422053,16.473422 L1.37720533,16.5967871 L16.075095,16.5967871 L16.0747528,16.589943 C15.8872243,12.7356844 12.7338023,9.66028517 8.84788972,9.59697719 L8.72623573,9.59629278 L8.72623573,9.59612167 Z" id="形状" fill="#8992A6"></path>
                </g>
                <rect id="矩形备份-15" x="0" y="0" width="24" height="24"></rect>
            </g>
        </g>
    </g>
</svg>