<?xml version="1.0" encoding="UTF-8"?>
<svg width="24px" height="24px" viewBox="0 0 24 24" version="1.1" xmlns="http://www.w3.org/2000/svg" xmlns:xlink="http://www.w3.org/1999/xlink">
    <g id="页面-1" stroke="none" stroke-width="1" fill="none" fill-rule="evenodd">
        <g id="一键买币组件" transform="translate(-66.000000, -88.000000)">
            <g id="编组-3备份-2" transform="translate(66.000000, 88.000000)">
                <rect id="矩形备份-6" x="0" y="0" width="24" height="24"></rect>
                <g id="编组" transform="translate(12.000000, 12.005978) rotate(-270.000000) translate(-12.000000, -12.005978) translate(3.000000, 3.000000)" fill="#00082D" fill-rule="nonzero">
                    <path d="M9.7529382,7.75474171 L9.7529382,14.7590245 C9.7529382,15.2593304 9.50278524,15.5094834 9.00247933,15.5094834 L9.00247933,15.5094834 C8.50217341,15.5094834 8.25202045,15.2593304 8.25202045,14.7590245 L8.25202045,7.75474171 C8.25202045,7.2544358 8.50217341,7.00428284 9.00247933,7.00428284 L9.00247933,7.00428284 C9.50278524,7.00428284 9.7529382,7.2544358 9.7529382,7.75474171 Z" id="路径"></path>
                    <path d="M9.00247933,1.90116249 L16.3569763,16.6101564 L10.9336602,16.6101564 L10.2532441,15.2493243 L9.64287091,14.0085657 C9.52124064,13.7633747 9.27117779,13.6082818 8.99747628,13.6082818 C8.72377476,13.6082818 8.47371191,13.7633747 8.35208164,14.0085657 L7.74170842,15.2293121 L7.08130461,16.5901442 L1.64798236,16.5901442 L9.00247933,1.90116249 M9.00247933,0 C8.62569073,0.00114200854 8.28148872,0.213851119 8.1119348,0.550336516 L0.107040126,16.5601258 C-0.0490245463,16.8698335 -0.0335911223,17.2382683 0.147828144,17.5338391 C0.329247411,17.8294098 0.650779404,18.0099635 0.997584673,18.011013 L7.28142697,18.011013 C7.70497111,18.0288345 8.09844877,17.7927479 8.28203881,17.4106459 L9.00247933,15.8697037 L9.77295043,17.420652 C9.96143615,17.797027 10.352973,18.0280338 10.7735623,18.011013 L17.007374,18.011013 C17.3513063,18.0082676 17.6697237,17.8290719 17.85055,17.5364991 C18.0313763,17.2439263 18.0492645,16.8789869 17.8979185,16.570132 L9.89302385,0.560342619 C9.72626307,0.219969077 9.38149659,0.00303735743 9.00247933,0 Z" id="形状"></path>
                </g>
            </g>
        </g>
    </g>
</svg>