<?xml version="1.0" encoding="UTF-8"?>
<svg width="24px" height="24px" viewBox="0 0 24 24" version="1.1" xmlns="http://www.w3.org/2000/svg" xmlns:xlink="http://www.w3.org/1999/xlink">
    <title>编组 101备份</title>
    <g id="页面-1" stroke="none" stroke-width="1" fill="none" fill-rule="evenodd">
        <g id="头部下拉" transform="translate(-471.000000, -184.000000)">
            <g id="编组-101备份" transform="translate(471.000000, 184.000000)">
                <rect id="矩形备份-130" x="0" y="0" width="24" height="24"></rect>
                <g id="编组-92" transform="translate(3.000000, 3.000000)" fill-rule="nonzero">
                    <path d="M15.1436224,10.7264814 C15.1978574,10.5075326 15.3947104,10.3548711 15.6196853,10.3548711 L17.021761,10.3548711 L17.021761,7.6471376 L15.5272849,7.6471376 C15.3123535,7.6471376 15.1215266,7.50652829 15.0572481,7.30164044 C14.9206562,6.85972548 14.7197857,6.4137931 14.4646803,5.97991296 C14.3521928,5.78707734 14.3823234,5.5420154 14.541011,5.38332775 L15.6317375,4.29260127 L14.3521928,3.01305658 L14.1995313,3.16571811 C13.9183127,3.01506528 13.6230331,2.8844995 13.3197188,2.77402076 L12.5805156,3.51322397 C12.427854,3.6658855 12.1908269,3.70204218 12,3.59959826 C11.6083026,3.3886843 11.1784399,3.21794443 10.7204553,3.08938735 C10.5075326,3.02912621 10.3608972,2.83629059 10.3608972,2.61533311 L10.3608972,0.986273853 L9.12755273,0.986273853 L9.12755273,2.61332441 C8.64546368,2.7479076 8.18145296,2.9306997 7.74757282,3.16370941 L7.52460663,2.94074322 C7.4643455,3.00903917 7.38399732,3.05925678 7.29159692,3.08536994 C6.83361232,3.21392702 6.40374958,3.38466689 6.01205223,3.59558085 C5.82122531,3.69802477 5.5862069,3.6638768 5.43153666,3.50920656 L4.93136927,3.00903917 L3.65182457,4.28858386 L5.09005691,5.7268162 C4.82691664,6.17274858 4.60796786,6.64881152 4.45128892,7.15299632 L3.00100435,7.15299632 C2.98493472,7.20120522 2.96886508,7.24941413 2.95279545,7.29963174 C2.88851691,7.50451958 2.69768999,7.64512889 2.48275862,7.64512889 L2.46267158,7.64512889 L2.46267158,10.3608972 C2.6575159,10.3890191 2.81821225,10.5316371 2.86642116,10.7264814 C2.87646468,10.7666555 2.8865082,10.8068296 2.89856043,10.8470037 L4.35687981,10.8470037 C4.49548042,11.39538 4.69233344,11.9196518 4.95346502,12.4057583 L3.64780716,13.7114161 L4.92735186,14.9909608 L5.20254436,14.7157683 C5.36123201,14.5570807 5.60629394,14.5249414 5.79912956,14.6394376 C6.26715768,14.9146301 6.76732508,15.1275527 7.28757951,15.2741881 C7.29159692,15.2761969 7.29762303,15.2782056 7.30164044,15.2782056 L7.51657181,15.0632742 C8.0147305,15.356545 8.55306327,15.587546 9.12152662,15.7462337 L9.12152662,17.0157349 L10.3548711,17.0157349 L10.3548711,15.7462337 C10.3548711,15.5252762 10.5015065,15.3324406 10.7144292,15.2721794 C11.2346836,15.125544 11.734851,14.9126214 12.2028791,14.6374289 C12.3957148,14.5229327 12.6407767,14.555072 12.7994643,14.7137596 L13.5708068,15.4830934 C13.7515902,15.4087713 13.9263475,15.3264145 14.0990961,15.2380315 L15.6277201,13.7094074 L14.6695681,12.7512554 C14.5169066,12.5985939 14.4807499,12.3615668 14.5831938,12.1707399 C14.8262471,11.7328423 15.0130566,11.2467359 15.1436224,10.7264814 L15.1436224,10.7264814 Z" id="路径" fill="#90ff00"></path>
                    <path d="M6.53230666,11.3029796 C6.38165383,11.3029796 6.231001,11.2326749 6.13458319,11.1021091 C6.06427854,11.0077 6,10.9092735 5.93973887,10.8068296 C5.80113827,10.5738199 5.87947774,10.2705055 6.11248745,10.1339136 C6.34549715,9.99531302 6.64881152,10.0736525 6.78540341,10.3066622 C6.82959491,10.3809843 6.87579511,10.4512889 6.92601272,10.5215936 C7.08670907,10.7405424 7.03850017,11.0478741 6.81955139,11.2085705 C6.73518581,11.272849 6.63274188,11.3029796 6.53230666,11.3029796 L6.53230666,11.3029796 Z" id="路径" stroke="#333333" stroke-width="0.2" fill="#333333"></path>
                    <path d="M9.00703047,12.5584198 C8.49280214,12.5584198 7.99866086,12.4519585 7.53465015,12.2410445 C7.28757951,12.1285571 7.17910947,11.8372949 7.29159692,11.5902243 C7.40408437,11.3431537 7.6953465,11.2346836 7.94241714,11.3471711 C8.27787077,11.4998326 8.63542015,11.5761634 9.00703047,11.5761634 C10.4271845,11.5761634 11.5821895,10.4211584 11.5821895,9.00100435 C11.5821895,7.58085035 10.4271845,6.42584533 9.00703047,6.42584533 C7.58687646,6.42584533 6.43187144,7.58085035 6.43187144,9.00100435 C6.43187144,9.27217944 6.21091396,9.49313693 5.93973887,9.49313693 C5.66856378,9.49313693 5.44760629,9.27217944 5.44760629,9.00100435 C5.44760629,7.03850017 7.04452628,5.44358889 9.00502176,5.44358889 C10.9675259,5.44358889 12.5624391,7.04050887 12.5624391,9.00100435 C12.5644459,10.9635085 10.9695347,12.5584198 9.00703047,12.5584198 Z" id="路径" stroke="#333333" stroke-width="0.2" fill="#333333"></path>
                    <path d="M10.8470037,18 L7.15500502,18 C6.88382993,18 6.66287245,17.7790425 6.66287245,17.5078674 L6.66287245,16.1078005 C6.31134918,15.9892869 5.96786073,15.8426515 5.63642451,15.6699029 L4.63809843,16.668229 C4.44526281,16.8610646 4.13391363,16.8610646 3.94308671,16.668229 L1.33177101,14.0569133 C1.13893539,13.8640777 1.13893539,13.5527285 1.33177101,13.3619016 L2.38634081,12.3073318 C2.24171409,11.9979913 2.11717442,11.6745899 2.0147305,11.3371276 L0.492132574,11.3371276 C0.220957482,11.3371276 0,11.1161701 0,10.844995 L0,7.15500502 C0,6.88382993 0.220957482,6.66287245 0.492132574,6.66287245 L2.12721794,6.66287245 C2.23367928,6.37763642 2.36022765,6.09440911 2.50686307,5.8151992 L1.3297623,4.63809843 C1.13692668,4.44526281 1.13692668,4.13391363 1.3297623,3.94308671 L3.941078,1.33177101 C4.13391363,1.13893539 4.44526281,1.13893539 4.63608972,1.33177101 L5.86943421,2.5651155 C6.12253097,2.44660194 6.38767995,2.34014061 6.66086374,2.24974891 L6.66086374,0.492132574 C6.66086374,0.220957482 6.88182123,0 7.15299632,0 L10.844995,0 C11.1161701,0 11.3371276,0.220957482 11.3371276,0.492132574 L11.3371276,2.24974891 C11.6103113,2.34214931 11.8754603,2.44660194 12.1285571,2.5651155 L13.3619016,1.33177101 C13.5547372,1.13893539 13.8660864,1.13893539 14.0569133,1.33177101 L16.668229,3.94308671 C16.8610646,4.13592233 16.8610646,4.44727151 16.668229,4.63809843 L15.4911282,5.8151992 C15.6377636,6.09440911 15.764312,6.37964513 15.8707734,6.66287245 L17.5058587,6.66287245 C17.7770338,6.66287245 17.9979913,6.88382993 17.9979913,7.15500502 L17.9979913,10.8470037 C17.9979913,11.1181788 17.7770338,11.3391363 17.5058587,11.3391363 L15.9852695,11.3391363 C15.8828256,11.6765986 15.7582859,12.0020087 15.6136592,12.3093405 L16.668229,13.3639103 C16.8610646,13.5567459 16.8610646,13.8680951 16.668229,14.058922 L14.0569133,16.6702377 C13.8640777,16.8630733 13.5527285,16.8630733 13.3619016,16.6702377 L12.3635755,15.6719116 C12.0321393,15.8446602 11.6886508,15.9892869 11.3371276,16.1098092 L11.3371276,17.5098761 C11.3391363,17.7810512 11.1181788,18 10.8470037,18 Z M7.64512889,17.0177436 L10.3548711,17.0177436 L10.3548711,15.7482424 C10.3548711,15.5272849 10.5015065,15.3344493 10.7144292,15.2741881 C11.2346836,15.1275527 11.734851,14.9146301 12.2028791,14.6394376 C12.3957148,14.5249414 12.6407767,14.5570807 12.7994643,14.7157683 L13.7114161,15.6277201 L15.6277201,13.7114161 L14.6695681,12.7532641 C14.5169066,12.6006026 14.4807499,12.3635755 14.5831938,12.1727486 C14.820221,11.7328423 15.0050218,11.2467359 15.1355875,10.7264814 C15.1898226,10.5075326 15.3866756,10.3548711 15.6116505,10.3548711 L17.0137261,10.3548711 L17.0137261,7.6471376 L15.5192501,7.6471376 C15.3043187,7.6471376 15.1134918,7.50652829 15.0492133,7.30164044 C14.9126214,6.85972548 14.7117509,6.4137931 14.4566455,5.97991296 C14.344158,5.78707734 14.3742886,5.5420154 14.5329762,5.38332775 L15.6237027,4.29260127 L13.7073987,2.37629729 L12.570472,3.51322397 C12.4178105,3.6658855 12.1807834,3.70204218 11.9899565,3.59959826 C11.5982591,3.3886843 11.1683964,3.21794443 10.7104118,3.08938735 C10.4974891,3.02912621 10.3508537,2.83629059 10.3508537,2.61533311 L10.3508537,0.986273853 L7.64512889,0.986273853 L7.64512889,2.61332441 C7.64512889,2.83428189 7.49849347,3.02711751 7.28557081,3.08737864 C6.82758621,3.21593572 6.39772347,3.38667559 6.00602611,3.59758955 C5.8151992,3.70003348 5.58018078,3.6658855 5.42551055,3.51121527 L4.28858386,2.37428858 L2.37428858,4.29059257 L3.46501507,5.38131905 C3.62370271,5.5400067 3.65383328,5.78506863 3.54134583,5.97790425 C3.28624037,6.4117844 3.08737864,6.85771677 2.94877804,7.29963174 C2.8844995,7.50451958 2.69367258,7.64512889 2.47874121,7.64512889 L0.984265149,7.64512889 L0.984265149,10.3548711 L2.38634081,10.3548711 C2.6113157,10.3548711 2.80816873,10.5075326 2.86240375,10.7264814 C2.99296953,11.2467359 3.17977904,11.7328423 3.41479746,12.1727486 C3.51724138,12.3635755 3.4830934,12.6006026 3.32842317,12.7532641 L2.37428858,13.7114161 L4.29059257,15.6277201 L5.20254436,14.7157683 C5.36123201,14.5570807 5.60629394,14.5249414 5.79912956,14.6394376 C6.26715768,14.9146301 6.76732508,15.1275527 7.28757951,15.2741881 C7.50050218,15.3344493 7.6471376,15.5272849 7.6471376,15.7482424 L7.6471376,17.0177436 L7.64512889,17.0177436 Z" id="形状" stroke="#333333" stroke-width="0.25" fill="#333333"></path>
                </g>
            </g>
        </g>
    </g>
</svg>