<?xml version="1.0" encoding="UTF-8"?>
<svg width="24px" height="24px" viewBox="0 0 24 24" version="1.1" xmlns="http://www.w3.org/2000/svg" xmlns:xlink="http://www.w3.org/1999/xlink">
    <title>编组 15</title>
    <defs>
        <polygon id="path-1" points="0 0 19.9996 0 19.9996 19.9999 0 19.9999"></polygon>
        <polygon id="path-3" points="0 0 5.60018926 0 5.60018926 6.5 0 6.5"></polygon>
        <polygon id="path-5" points="2.22044605e-16 0 5.60018926 0 5.60018926 6.5 2.22044605e-16 6.5"></polygon>
    </defs>
    <g id="页面-1" stroke="none" stroke-width="1" fill="none" fill-rule="evenodd">
        <g id="头部下拉" transform="translate(-1690.000000, -291.000000)">
            <g id="编组-15" transform="translate(1690.000000, 291.000000)">
                <rect id="矩形" x="0" y="0" width="24" height="24"></rect>
                <g id="编组" transform="translate(2.000000, 2.000000)">
                    <g>
                        <mask id="mask-2" fill="white">
                            <use xlink:href="#path-1"></use>
                        </mask>
                        <g id="Clip-2"></g>
                        <path d="M7.4,12.6999 C7.4,9.7729 9.773,7.3999 12.7,7.3999 C15.627,7.3999 18,9.7729 18,12.6999 C18,15.6269 15.627,17.9999 12.7,17.9999 C9.773,17.9999 7.4,15.6269 7.4,12.6999 M2,7.2999 C2,4.3729 4.373,1.9999 7.3,1.9999 C9.414,1.9999 11.241,3.2379 12.092,5.0339 C12.164,5.1859 12.27,5.3119 12.397,5.4059 C8.606,5.5609 5.561,8.6069 5.406,12.3979 C5.312,12.2709 5.186,12.1649 5.033,12.0929 C3.238,11.2419 2,9.4149 2,7.2999 M4.177,13.8999 C1.709,12.7309 0,10.2159 0,7.2999 C0,3.2679 3.268,-9.99999975e-05 7.3,-9.99999975e-05 C10.216,-9.99999975e-05 12.73,1.7099 13.9,4.1769 C14.118,4.6369 13.954,5.1799 13.536,5.4469 C15.3738378,5.6565489 17.0044493,6.54861565 18.1681816,7.86344751 C19.3080575,9.15132534 20,10.8448126 20,12.6999 C20,16.7319 16.732,19.9999 12.7,19.9999 C8.951,19.9999 5.862,17.1739 5.447,13.5359 C5.18,13.9539 4.637,14.1179 4.177,13.8999 Z" id="Fill-1" fill="#FFFFFF" mask="url(#mask-2)"></path>
                    </g>
                    <g transform="translate(13.499011, 0.000000)">
                        <mask id="mask-4" fill="white">
                            <use xlink:href="#path-3"></use>
                        </mask>
                        <g id="Clip-4"></g>
                        <path d="M4.60018926,6.5 C4.04818926,6.5 3.60018926,6.052 3.60018926,5.5 L3.60018926,4.6 C3.60018926,3.661 2.83918926,2.9 1.90018926,2.9 L1.00018926,2.9 C0.596189258,2.9 0.231189258,2.656 0.0761892576,2.283 C-0.0788107424,1.909 0.00718925757,1.479 0.293189258,1.193 L1.19318926,0.293 C1.58318926,-0.098 2.21718926,-0.098 2.60718926,0.293 C2.81218926,0.497 2.90918926,0.769 2.89918926,1.037 C4.45718926,1.473 5.60018926,2.903 5.60018926,4.6 L5.60018926,5.5 C5.60018926,6.052 5.15218926,6.5 4.60018926,6.5" id="Fill-3" fill="#90ff00" mask="url(#mask-4)"></path>
                    </g>
                    <g transform="translate(0.900000, 13.500000)">
                        <mask id="mask-6" fill="white">
                            <use xlink:href="#path-5"></use>
                        </mask>
                        <g id="Clip-6"></g>
                        <path d="M1,0 C1.552,0 2,0.448 2,1 L2,1.9 C2,2.839 2.761,3.6 3.7,3.6 L4.6,3.6 C5.004,3.6 5.369,3.844 5.524,4.217 C5.679,4.591 5.593,5.021 5.307,5.307 L4.407,6.207 C4.017,6.598 3.383,6.598 2.993,6.207 C2.788,6.003 2.691,5.731 2.701,5.463 C1.143,5.027 2.22044605e-16,3.597 2.22044605e-16,1.9 L2.22044605e-16,1 C2.22044605e-16,0.448 0.448,0 1,0" id="Fill-5" fill="#90ff00" mask="url(#mask-6)"></path>
                    </g>
                </g>
            </g>
        </g>
    </g>
</svg>