<?xml version="1.0" encoding="UTF-8"?>
<svg width="24px" height="24px" viewBox="0 0 24 24" version="1.1" xmlns="http://www.w3.org/2000/svg" xmlns:xlink="http://www.w3.org/1999/xlink">
    <title>编组 5</title>
    <g id="页面-1" stroke="none" stroke-width="1" fill="none" fill-rule="evenodd">
        <g id="行情" transform="translate(-210.000000, -929.000000)">
            <g id="编组-5" transform="translate(210.000000, 929.000000)">
                <path d="M12.3601237,17.7379041 L8.27623372,19.8850834 C7.93930563,20.0622737 7.53099067,20.0327633 7.22304339,19.8089656 C6.9150961,19.585168 6.76095193,19.2059167 6.82545043,18.8307409 L7.60533394,14.2834202 L4.3018274,11.0629012 C4.02942194,10.797264 3.93139352,10.400039 4.04894057,10.0381681 C4.16648761,9.67629723 4.47923513,9.41250519 4.85574466,9.35765596 L9.42156263,8.69425505 L11.4637576,4.55687308 C11.6322884,4.21585051 11.9797304,4 12.3601237,4 C12.740517,4 13.0879589,4.21585051 13.2564898,4.55687308 L15.2986847,8.69425505 L19.8645027,9.35765596 C20.2410122,9.41250519 20.5537597,9.67629723 20.6713068,10.0381681 C20.7888538,10.400039 20.6908254,10.797264 20.41842,11.0629012 L17.1149134,14.2834202 L17.8947969,18.8307409 C17.9592954,19.2059167 17.8051513,19.585168 17.497204,19.8089656 C17.1892567,20.0327633 16.7809417,20.0622737 16.4440136,19.8850834 L12.3601237,17.7379041 Z" id="路径" fill="#FFD887" fill-rule="nonzero"></path>
                <rect id="矩形" x="0" y="0" width="24" height="24"></rect>
            </g>
        </g>
    </g>
</svg>