<?xml version="1.0" encoding="UTF-8"?>
<svg width="12px" height="12px" viewBox="0 0 12 12" version="1.1" xmlns="http://www.w3.org/2000/svg" xmlns:xlink="http://www.w3.org/1999/xlink">
    <title>编组</title>
    <g id="页面-1" stroke="none" stroke-width="1" fill="none" fill-rule="evenodd">
        <g id="商家信息" transform="translate(-782.000000, -235.000000)" fill="#F75F52" fill-rule="nonzero">
            <g id="编组" transform="translate(782.000000, 235.000000)">
                <path d="M6.00066964,0 C4.46450893,0 2.9296875,0.585267857 1.7578125,1.75714286 C-0.5859375,4.10089286 -0.5859375,7.89910714 1.7578125,10.2428571 C2.9296875,11.4147321 4.46450893,12 6.00066964,12 C7.53683036,12 9.07165179,11.4147321 10.2435268,10.2428571 C12.5872768,7.89910714 12.5872768,4.10089286 10.2435268,1.75714286 C9.07165179,0.585267857 7.53683036,0 6.00066964,0 Z M9.66495536,8.60357143 L3.39575893,2.334375 C4.15245536,1.79464286 5.05245536,1.5 6.00066964,1.5 C7.20200893,1.5 8.33236607,1.96741071 9.1828125,2.81785714 C10.7564732,4.39151786 10.9145089,6.84776786 9.66495536,8.60357143 Z M6.00066964,10.5 C4.79933036,10.5 3.66897321,10.03125 2.81852679,9.18214286 C1.24486607,7.60848214 1.08683036,5.15223214 2.33638393,3.39642857 L8.60558036,9.665625 C7.84888393,10.2053571 6.94888393,10.5 6.00066964,10.5 Z" id="形状"></path>
            </g>
        </g>
    </g>
</svg>