<?xml version="1.0" encoding="UTF-8"?>
<svg width="24px" height="24px" viewBox="0 0 24 24" version="1.1" xmlns="http://www.w3.org/2000/svg" xmlns:xlink="http://www.w3.org/1999/xlink">
    <g id="页面-1" stroke="none" stroke-width="1" fill="none" fill-rule="evenodd">
        <g id="公告" transform="translate(-80.000000, -313.000000)">
            <g id="编组-148" transform="translate(80.000000, 313.000000)">
                <g id="编组" transform="translate(3.000000, 6.000000)" fill="#5271FF" fill-rule="nonzero">
                    <path d="M16.7142857,0 L1.28571429,0 C0.574553571,0 0,0.574553571 0,1.28571429 L0,11.5714286 C0,12.2825893 0.574553571,12.8571429 1.28571429,12.8571429 L16.7142857,12.8571429 C17.4254464,12.8571429 18,12.2825893 18,11.5714286 L18,1.28571429 C18,0.574553571 17.4254464,0 16.7142857,0 Z M1.28571429,2.99330357 L6.09308036,6.42857143 L1.28571429,9.86383929 L1.28571429,2.99330357 Z M16.7142857,11.5714286 L1.28571429,11.5714286 L1.28571429,11.4428571 L7.2,7.21808036 L9,8.50379464 L10.8,7.21808036 L16.7142857,11.4428571 L16.7142857,11.5714286 Z M16.7142857,9.86383929 L11.9049107,6.42857143 L16.7142857,2.99330357 L16.7142857,9.86383929 Z M16.7142857,1.41428571 L9,6.92477679 L1.28571429,1.41428571 L1.28571429,1.28571429 L16.7142857,1.28571429 L16.7142857,1.41428571 Z" id="形状"></path>
                </g>
                <rect id="矩形备份-178" x="0" y="0" width="24" height="24"></rect>
            </g>
        </g>
    </g>
</svg>