<?xml version="1.0" encoding="UTF-8"?>
<svg width="25px" height="24px" viewBox="0 0 25 24" version="1.1" xmlns="http://www.w3.org/2000/svg" xmlns:xlink="http://www.w3.org/1999/xlink">
    <title>编组 42备份 2</title>
    <g id="页面-1" stroke="none" stroke-width="1" fill="none" fill-rule="evenodd">
        <g id="资产组件" transform="translate(-133.000000, -28.000000)">
            <g id="编组-42备份-2" transform="translate(133.285714, 28.000000)">
                <g id="编组-35" transform="translate(2.000000, 3.000000)" fill-rule="nonzero">
                    <path d="M17.8563617,0 C18.7669337,0 19.5069967,0.763273596 19.5069967,1.70107349 L19.5069967,8.39511683 C19.5069967,8.86312407 19.1282612,9.24185953 18.660254,9.24185953 C18.1922467,9.24185953 17.8135113,8.86312407 17.8135113,8.39511683 L17.8135113,1.70107349 L1.65085812,1.69370857 L1.663,5.801 L7.62135381,5.80199522 C8.46318656,5.80199522 9.147901,6.48670967 9.147901,7.32854242 L9.147901,9.99620595 C9.14767782,10.8380387 8.46296338,11.5227531 7.62113063,11.5227531 L1.68,11.522 L1.69393175,15.6243444 L11.9008191,15.6317093 C12.3688263,15.6317093 12.7475618,16.0104448 12.7475618,16.478452 C12.7473386,16.9466824 12.3686031,17.3254179 11.9005959,17.3254179 L1.65063495,17.3254179 C0.740062937,17.3254179 0,16.5621443 0,15.6243444 L0,1.70107349 C0,0.763273596 0.740062937,0 1.65063495,0 L17.8563617,0 Z M7.45419243,7.49548062 L1.69616355,7.49548062 L1.69616355,9.82926775 L7.45419243,9.82926775 L7.45419243,7.49548062 Z" id="形状结合" fill="#333333"></path>
                    <path d="M20.1933333,12.3141667 L14.7066667,12.3141667 L16.1666667,10.8541667 C16.3633333,10.6575 16.3633333,10.3408333 16.1666667,10.1475 C15.97,9.95083333 15.6533333,9.95083333 15.46,10.1475 L13.16,12.4475 C13.1466667,12.4608333 13.1366667,12.4741667 13.1233333,12.4875 C13.0466667,12.5741667 13,12.6908333 13,12.8175 C13,13.0941667 13.2233333,13.3175 13.5,13.3175 L20.1933333,13.3175 C20.47,13.3175 20.6933333,13.0941667 20.6933333,12.8175 C20.6933333,12.5375 20.47,12.3141667 20.1933333,12.3141667 Z M20.1933333,14.6308333 L13.5033333,14.6308333 C13.2266667,14.6308333 13.0033333,14.8541667 13.0033333,15.1308333 C13.0033333,15.4075 13.2266667,15.6308333 13.5033333,15.6308333 L18.99,15.6308333 L17.5266667,17.0941667 C17.33,17.2908333 17.33,17.6075 17.5266667,17.8008333 C17.7233333,17.9975 18.04,17.9975 18.2333333,17.8008333 L20.5333333,15.5008333 C20.5466667,15.4875 20.5566667,15.4741667 20.57,15.4608333 C20.6466667,15.3741667 20.6933333,15.2575 20.6933333,15.1308333 C20.6933333,14.8575 20.47,14.6308333 20.1933333,14.6308333 L20.1933333,14.6308333 Z" id="形状" stroke="#90ff00" stroke-width="0.5" fill="#90ff00"></path>
                </g>
                <rect id="矩形备份-70" x="0" y="0" width="24" height="24"></rect>
            </g>
        </g>
    </g>
</svg>