<?xml version="1.0" standalone="no"?><!DOCTYPE svg PUBLIC "-//W3C//DTD SVG 1.1//EN" "http://www.w3.org/Graphics/SVG/1.1/DTD/svg11.dtd"><svg t="1679990027410" class="icon" viewBox="0 0 1024 1024" version="1.1" xmlns="http://www.w3.org/2000/svg" p-id="2956" xmlns:xlink="http://www.w3.org/1999/xlink" width="200" height="200"><path d="M511.750464 0c282.661981 0 511.750122 229.088141 511.750122 511.750122s-229.088141 511.750122-511.750122 511.750122-511.750122-229.088141-511.750122-511.750122 229.188092-511.750122 511.750122-511.750122z" fill="#3E5BF2" p-id="2957"></path><path d="M698.259395 289.858468l-504.253783-90.155979 267.869205 664.075744L829.495315 418.295754 698.259395 289.858468z m63.369058 121.140849l-191.306589 30.98487 121.14085-102.05017 70.165739 71.0653z m-124.839044-86.557736L511.750464 428.290874 306.050903 257.974036l330.738506 66.467545z m-174.914592 429.990044L273.266911 287.159785l217.693704 187.608395-29.085798 279.663445z m37.381747 0l32.783992-260.572767 214.095462-40.080429-246.879454 300.653196z" fill="#FFFFFF" p-id="2958"></path></svg>