<?xml version="1.0" encoding="UTF-8"?>
<svg width="33px" height="24px" viewBox="0 0 33 24" version="1.1" xmlns="http://www.w3.org/2000/svg" xmlns:xlink="http://www.w3.org/1999/xlink">
    <g id="页面-1" stroke="none" stroke-width="1" fill="none" fill-rule="evenodd">
        <g id="一键买币组件" transform="translate(-73.000000, -27.000000)" fill="#5271FF" fill-rule="nonzero">
            <g id="编组备份-6" transform="translate(73.505204, 27.000000)">
                <path d="M25.9601153,8.02176308 C25.0507551,3.36247146 20.9685827,-1.24885422e-15 16.2213799,-1.24885422e-15 C11.4741771,-1.24885422e-15 7.39200467,3.36247146 6.48264447,8.02176308 C2.73221647,8.19604773 -0.166820532,11.3776559 0.00746405821,15.1280839 C0.181748649,18.8785119 3.36335681,21.777549 7.11378481,21.6032645 L8.17633756,21.6032645 C8.61756436,21.6032644 8.97524933,21.2455794 8.97524933,20.8043526 C8.97524933,20.3631258 8.61756436,20.0054408 8.17633756,20.0054408 L7.11378481,20.0054408 C5.25853065,20.019712 3.53659151,19.0431328 2.59660521,17.4435712 C1.65661891,15.8440096 1.64139173,13.864477 2.55665961,12.2506441 C3.47192749,10.6368113 5.17863946,9.63385791 7.03389362,9.61958676 L7.83280549,9.80333647 L7.93666401,8.92453344 C8.45576965,4.76153046 11.9941803,1.63693892 16.1894234,1.63693892 C20.3846665,1.63693892 23.9230771,4.76153046 24.4421828,8.92453344 L24.6019651,9.78735826 L25.400877,9.61958676 C27.2561311,9.63385788 28.9628431,10.6368113 29.878111,12.2506441 C30.7933789,13.8644769 30.7781518,15.8440096 29.8381655,17.4435712 C28.8981791,19.0431329 27.17624,20.019712 25.3209858,20.0054408 L24.122618,20.0054408 C23.6813912,20.0054408 23.3237063,20.3631258 23.3237063,20.8043526 C23.3237063,21.2455794 23.6813912,21.6032644 24.122618,21.6032645 L25.3289749,21.6032645 C29.0794029,21.777549 32.2610111,18.8785119 32.4352957,15.1280839 C32.6095803,11.3776559 29.7105433,8.19604773 25.9601153,8.02176308 L25.9601153,8.02176308 Z" id="路径"></path>
                <path d="M16.7886073,10.9298022 C16.6385983,10.7785581 16.4343997,10.6934854 16.2213799,10.6934854 C16.00836,10.6934854 15.8041614,10.7785581 15.6541525,10.9298022 L11.1403005,15.4436541 C10.9890564,15.5936631 10.9039837,15.7978617 10.9039837,16.0108815 C10.9039837,16.2239014 10.9890564,16.4281 11.1403005,16.578109 C11.4519061,16.8878659 11.9551607,16.8878659 12.2667662,16.578109 L15.422468,13.4224072 L15.422468,23.2010882 C15.422468,23.642315 15.780153,24 16.2213799,24 C16.6626067,24 17.0202917,23.642315 17.0202917,23.2010882 L17.0202917,13.4224072 L20.2159391,16.578109 C20.3667088,16.7276545 20.5708134,16.8110211 20.7831665,16.8097934 C21.1062817,16.8084386 21.3967672,16.6125842 21.5191784,16.3135512 C21.6415896,16.0145182 21.5718215,15.6711915 21.3424048,15.4436541 L16.7886073,10.9298022 Z" id="路径"></path>
            </g>
        </g>
    </g>
</svg>