<?xml version="1.0" encoding="UTF-8"?>
<svg width="30px" height="30px" viewBox="0 0 30 30" version="1.1" xmlns="http://www.w3.org/2000/svg" xmlns:xlink="http://www.w3.org/1999/xlink">

    <g id="页面-1" stroke="none" stroke-width="1" fill="none" fill-rule="evenodd">
        <g id="tab栏" transform="translate(-1721.000000, -315.000000)">
            <g id="编组-6" transform="translate(1721.000000, 315.000000)">
                <rect id="矩形备份-110" fill="#1D1D1D" x="0" y="0" width="30" height="30" rx="15"></rect>
                <g id="编组-83备份-5" transform="translate(7.000000, 7.000000)" stroke="#90ff00">
                    <path d="M7.9997143,0 C12.4178422,0 15.9994286,3.58158637 15.9994286,7.9997143 C15.9994286,10.135638 15.1606734,12.0731969 13.7967556,13.5077441 L13.5983715,13.7092247 C12.1549945,15.1246027 10.1802079,16 7.9997143,16 C3.58158638,16 0,12.4178422 0,7.9997143 C0,3.58158637 3.58158638,0 7.9997143,0 Z M7.9997143,10.285347 C6.00835685,10.285347 4.33641656,11.5687297 3.71072462,13.3458091 C4.88553981,14.2897754 6.37577231,14.8571837 7.9997143,14.8571837 C9.6236563,14.8571837 11.1138888,14.2897754 12.288704,13.3458091 C11.663012,11.5687297 9.99107176,10.285347 7.9997143,10.285347 Z M7.9997143,1.14338773 C4.2129924,1.14338773 1.14281632,4.2135638 1.14281632,8.0002857 C1.14281632,9.71165316 1.77365094,11.2721688 2.81018537,12.4738402 C3.71415308,10.509339 5.69522518,9.14310202 7.9997143,9.14310202 C10.303632,9.14310202 12.2852755,10.509339 13.1892432,12.4738402 C14.2257777,11.2727402 14.8566123,9.71165316 14.8566123,8.0002857 C14.8566123,4.2135638 11.7864362,1.14338773 7.9997143,1.14338773 Z" id="形状结合" stroke-width="0.3" fill="#90ff00" fill-rule="nonzero"></path>
                    <circle id="椭圆形" stroke-width="1.2" cx="8" cy="5.33333333" r="2.06666667"></circle>
                </g>
            </g>
        </g>
    </g>
</svg>