<?xml version="1.0" encoding="UTF-8"?>
<svg width="24px" height="24px" viewBox="0 0 24 24" version="1.1" xmlns="http://www.w3.org/2000/svg" xmlns:xlink="http://www.w3.org/1999/xlink">
    <title>编组 100备份 2</title>
    <g id="页面-1" stroke="none" stroke-width="1" fill="none" fill-rule="evenodd">
        <g id="头部下拉" transform="translate(-1212.000000, -235.000000)">
            <g id="编组-100备份-2" transform="translate(1212.000000, 235.000000)">
                <rect id="矩形备份-131" x="0" y="0" width="24" height="24"></rect>
                <g id="编组-93" transform="translate(3.000000, 3.000000)">
                    <circle id="椭圆形备份-5" fill="#90ff00" cx="11" cy="11" r="5"></circle>
                    <path d="M9.00053759,18 C8.57929927,18 8.15700257,17.8391251 7.83631109,17.5184336 L6.16511688,15.846181 L3.8006787,15.846181 C2.89258204,15.846181 2.15382741,15.1074264 2.15382741,14.1993297 L2.15382741,11.8348915 L0.482633193,10.1636973 C0.172793237,9.85560862 -0.000982416548,9.43641297 4.17812751e-06,8.99947081 C4.17812751e-06,8.55918151 0.171467203,8.1464103 0.482633193,7.83524431 L2.15382741,6.1640501 L2.15382741,3.80067031 C2.15382741,2.89257365 2.89258204,2.15381902 3.8006787,2.15381902 L6.16511688,2.15381902 L7.83631109,0.482624802 C8.14747708,0.171458811 8.56024829,0 9.00053759,0 C9.43976849,0 9.85359809,0.171458811 10.1647641,0.482624802 L11.8359583,2.15381902 L14.2003965,2.15381902 C15.1084931,2.15381902 15.8472478,2.89257365 15.8472478,3.80067031 L15.8472478,6.16510848 L17.5195004,7.8363027 C18.1608833,8.47768566 18.1608833,9.52231434 17.5195004,10.1647557 L15.8472478,11.8359499 L15.8472478,14.2003881 C15.8472478,15.1084847 15.1084931,15.8472394 14.2003965,15.8472394 L11.8359583,15.8472394 L10.1647641,17.5184336 C9.8440726,17.8401835 9.4217759,18 9.00053759,18 Z M3.8006787,3.63556183 C3.70965736,3.63556183 3.63557022,3.70964897 3.63557022,3.80067031 L3.63557022,6.47204092 C3.63557022,6.66890104 3.55724953,6.85729406 3.41860074,6.99594285 L1.53043704,8.88410654 C1.49021831,8.92432528 1.4817512,8.96983595 1.4817512,9.00052919 C1.4817512,9.03122244 1.49021831,9.07673311 1.53043704,9.11695184 L3.41860074,11.0051155 C3.55752797,11.1440734 3.63557277,11.332523 3.63557022,11.5290175 L3.63557022,14.2003881 C3.63557022,14.2914094 3.70965736,14.3654966 3.8006787,14.3654966 L6.47099093,14.3654966 C6.66785104,14.3654966 6.85624406,14.4438173 6.99489285,14.582466 L8.88411494,16.4706297 C8.94867659,16.5351914 9.05239858,16.5351914 9.11696024,16.4706297 L11.0051239,14.582466 C11.1440818,14.4435388 11.3325314,14.365494 11.5290259,14.3654966 L14.2003965,14.3654966 C14.2914178,14.3654966 14.365505,14.2914094 14.365505,14.2003881 L14.365505,11.5290175 C14.365505,11.3321573 14.4438256,11.1437643 14.5824744,11.0051155 L16.4716965,9.11695184 C16.5362582,9.05239019 16.5362582,8.9486682 16.4716965,8.88410654 L14.5824744,6.99488446 C14.4435472,6.85592661 14.3655024,6.66747696 14.365505,6.47098254 L14.365505,3.80067031 C14.365505,3.70964897 14.2914178,3.63556183 14.2003965,3.63556183 L11.5290259,3.63556183 C11.3321657,3.63556183 11.1437727,3.55724114 11.0051239,3.41859234 L9.11696024,1.53042865 C9.0767415,1.49020991 9.03123083,1.48174281 9.00053759,1.48174281 C8.96984434,1.48174281 8.92433367,1.49020991 8.88411494,1.53042865 L6.99489285,3.41859234 C6.855935,3.55751958 6.66748536,3.63556438 6.47099093,3.63556183 L3.8006787,3.63556183 Z" id="形状" fill="#FFFFFF" fill-rule="nonzero"></path>
                    <path d="M8.37714722,12.2328453 C8.1887542,12.2328453 8.0077699,12.1619333 7.8701795,12.0317516 L5.71318532,10.0049391 C5.41471998,9.7244664 5.39990255,9.25560064 5.6803753,8.95819368 C5.96084805,8.65972835 6.42971381,8.64491092 6.72712076,8.92538367 L8.30306008,10.4060681 L11.084503,6.97265832 C11.3416912,6.655142 11.8084402,6.60539778 12.1270149,6.86364438 C12.4445312,7.1208326 12.4942755,7.58758158 12.2360289,7.90615629 L8.95291014,11.9597813 C8.82356212,12.1199079 8.63331782,12.2188656 8.42794983,12.2328453 C8.40995724,12.2317869 8.39302303,12.2328453 8.37714722,12.2328453 L8.37714722,12.2328453 Z" id="路径" fill="#FFFFFF" fill-rule="nonzero"></path>
                </g>
            </g>
        </g>
    </g>
</svg>