<?xml version="1.0" encoding="UTF-8"?>
<svg width="24px" height="24px" viewBox="0 0 24 24" version="1.1" xmlns="http://www.w3.org/2000/svg" xmlns:xlink="http://www.w3.org/1999/xlink">
    <g id="页面-1" stroke="none" stroke-width="1" fill="none" fill-rule="evenodd">
        <g id="公告" transform="translate(-80.000000, -193.000000)">
            <g id="编组-150" transform="translate(80.000000, 193.000000)">
                <g id="形状-2" transform="translate(3.000000, 6.000000)" fill="#5271FF" fill-rule="nonzero" stroke="#5271FF" stroke-width="0.5">
                    <path d="M2.20618104,11.3602056 L0.551498244,11.3602056 C0.247210381,11.3602056 -4.4408921e-16,11.607604 -4.4408921e-16,11.9129263 C-4.4408921e-16,12.2183425 0.247210381,12.465929 0.551498244,12.465929 L2.20618104,12.465929 C2.5104689,12.465929 2.75767931,12.2182485 2.75767931,11.9129263 C2.75777332,11.607604 2.5104689,11.3602056 2.20618104,11.3602056 Z M17.4485017,11.3602056 L6.06695084,11.3602056 C5.76200955,11.3605689 5.51505666,11.6079848 5.5152644,11.9129263 C5.5152644,12.2183425 5.76256895,12.465929 6.06695084,12.465929 L17.4485017,12.465929 C17.7526956,12.465929 18,12.2182485 18,11.9129263 C18,11.607604 17.7526956,11.3602056 17.4485017,11.3602056 Z M2.20618104,5.68000877 L0.551498244,5.68000877 C0.247210381,5.68000877 -4.4408921e-16,5.92759528 -4.4408921e-16,6.23291749 C-4.4408921e-16,6.53823971 0.247210381,6.78573219 0.551498244,6.78573219 L2.20618104,6.78573219 C2.5104689,6.78573219 2.75767931,6.53823971 2.75767931,6.23291749 C2.75777332,5.92759528 2.5104689,5.68000877 2.20618104,5.68000877 Z M17.4485017,5.68000877 L6.06695084,5.68000877 C5.76256895,5.68000877 5.51526454,5.92759528 5.51526454,6.23291749 C5.51526454,6.53823971 5.76256895,6.78573219 6.06695084,6.78573219 L17.4485017,6.78573219 C17.7526956,6.78573219 18,6.53823971 18,6.23291749 C18,5.92759528 17.7526956,5.68000877 17.4485017,5.68000877 Z M2.20618104,0 L0.551498244,0 C0.247210381,0 -4.4408921e-16,0.247586509 -4.4408921e-16,0.552908725 C-4.4408921e-16,0.858136909 0.247210381,1.10572342 0.551498244,1.10572342 L2.20618104,1.10572342 C2.5104689,1.10572342 2.75767931,0.858230942 2.75767931,0.552908725 C2.75777332,0.247586509 2.5104689,0 2.20618104,0 Z M6.06695084,1.10572342 L17.4484077,1.10572342 C17.7526956,1.10572342 18,0.858136909 18,0.552908725 C18,0.247680541 17.7526956,0 17.4484077,0 L6.06695084,0 C5.76266298,0 5.51535857,0.247680541 5.51535857,0.552908725 C5.51535857,0.858136909 5.76256895,1.10572342 6.06695084,1.10572342 Z" id="形状"></path>
                </g>
                <rect id="矩形" x="0" y="0" width="24" height="24"></rect>
            </g>
        </g>
    </g>
</svg>