<?xml version="1.0" encoding="UTF-8"?>
<svg width="36px" height="36px" viewBox="0 0 36 36" version="1.1" xmlns="http://www.w3.org/2000/svg" xmlns:xlink="http://www.w3.org/1999/xlink">
    <title>编组 43备份 4</title>
    <g id="一级页面" stroke="none" stroke-width="1" fill="none" fill-rule="evenodd">
        <g id="头部下拉" transform="translate(-487.000000, -166.000000)">
            <g id="编组-43备份-4" transform="translate(487.000000, 166.000000)">
                <g id="编组-36" transform="translate(3.000000, 4.500000)" fill-rule="nonzero">
                    <path d="M26.7845426,0 C28.1504006,0 29.260495,1.14491039 29.260495,2.55161024 L29.260495,12.5926753 C29.260495,13.2946861 28.6923918,13.8627893 27.990381,13.8627893 C27.2883701,13.8627893 26.7202669,13.2946861 26.7202669,12.5926753 L26.7202669,2.55161024 L2.47628719,2.54056286 L2.495,8.702 L11.4320307,8.70299284 C12.6947798,8.70299284 13.7218515,9.7300645 13.7218515,10.9928136 L13.7218515,14.9943089 C13.7215167,16.257058 12.6944451,17.2841297 11.4316959,17.2841297 L2.521,17.284 L2.54089763,23.4365166 L17.8512286,23.447564 C18.5532394,23.447564 19.1213426,24.0156672 19.1213426,24.717678 C19.1210079,25.4200237 18.5529047,25.9881269 17.8508938,25.9881269 L2.47595242,25.9881269 C1.1100944,25.9881269 0,24.8432165 0,23.4365166 L0,2.55161024 C0,1.14491039 1.1100944,0 2.47595242,0 L26.7845426,0 Z M11.1812886,11.2432209 L2.54424532,11.2432209 L2.54424532,14.7439016 L11.1812886,14.7439016 L11.1812886,11.2432209 Z" id="形状结合" fill="#333333"></path>
                    <path d="M20.7758179,15.6363046 C21.1283297,15.0273595 21.9059984,14.8191331 22.511261,15.1713102 C23.1188669,15.5224831 23.3274281,16.2988126 22.9762553,16.9067534 L21.471,19.514 L29.5367258,19.5142701 C30.1948609,19.5142701 30.7353038,20.0135795 30.8002883,20.6544323 L30.8068398,20.7843841 C30.8068398,21.4863949 30.2387366,22.0544981 29.5367258,22.0544981 L21.471,22.054 L22.9759205,24.6616801 C23.305145,25.2316245 23.1427101,25.9495669 22.620192,26.3264409 L22.5109262,26.3971232 C22.3114038,26.5126185 22.0931344,26.5671859 21.8772083,26.5671859 C21.4379912,26.5671859 21.0114953,26.3392081 20.7754831,25.9321289 L18.1706446,21.4194411 C18.1672388,21.4135451 18.1638856,21.4076333 18.160585,21.4017062 C18.1526982,21.3876504 18.1452854,21.3737191 18.1381275,21.359636 C18.1320003,21.347117 18.1258133,21.3343989 18.119843,21.3215887 C18.1071112,21.2948781 18.0954888,21.2675269 18.0848165,21.2397032 C18.0836417,21.2358899 18.0823565,21.2324934 18.081086,21.2290918 C18.071691,21.204978 18.0661513,21.1889193 18.0609509,21.1728036 C18.0571872,21.159977 18.0533793,21.1474074 18.0497626,21.1347567 C18.0478063,21.1271953 18.0458397,21.1201068 18.0439345,21.1130018 L18.0372663,21.0897918 C18.0341092,21.0770943 18.0311559,21.064372 18.0284051,21.0516291 C18.0260705,21.0378226 18.0233332,21.0238784 18.0208257,21.0098542 C18.0198499,21.0045911 18.0189173,20.9992502 18.0180186,20.9939029 C18.0111448,20.9557707 18.0072354,20.9240068 18.0045367,20.8922306 C18.0040876,20.880447 18.0031955,20.8680573 18.002485,20.8556499 C18.0007962,20.8345921 18.0001594,20.8139422 18.0000264,20.7933168 C18.0009166,20.7806715 18.0009325,20.7769627 18.0009642,20.7732577 C18.0005049,20.7655941 18.0006349,20.7578762 18.0008355,20.7501558 L18.0017983,20.7176129 C18.0026351,20.7019072 18.0037628,20.6862292 18.0051793,20.670587 C18.0067966,20.6608749 18.0077298,20.6515436 18.0087633,20.6422428 C18.0088292,20.6372331 18.009419,20.6322393 18.0100391,20.6272466 L18.0120744,20.6104172 C18.0151011,20.588604 18.0186912,20.5668826 18.0228387,20.545276 C18.0251672,20.535682 18.0270498,20.5263649 18.0290336,20.5170856 C18.0295019,20.513399 18.0304493,20.5091013 18.0314198,20.5048062 L18.0375851,20.4782431 C18.0411665,20.4638221 18.0449994,20.4494644 18.0490819,20.4351772 C18.0555302,20.4137737 18.0621175,20.3927757 18.0692268,20.3720211 C18.0758435,20.3518004 18.0832799,20.3317576 18.0912203,20.311903 C18.0962054,20.3002498 18.1011985,20.2883064 18.1063671,20.2764575 C18.1253058,20.2334451 18.1468178,20.1908202 18.1709793,20.1489923 L18.1179827,20.2498147 C18.1272036,20.2298941 18.1369477,20.2101945 18.1472091,20.1907385 C18.151021,20.1843882 18.1547999,20.1773954 18.158642,20.1704425 L18.1709793,20.1489923 Z" id="形状结合" fill="#2EBD85"></path>
                </g>
                <rect id="矩形备份-69" x="0" y="0" width="36" height="36"></rect>
            </g>
        </g>
    </g>
</svg>