<?xml version="1.0" encoding="UTF-8"?>
<svg width="24px" height="24px" viewBox="0 0 24 24" version="1.1" xmlns="http://www.w3.org/2000/svg" xmlns:xlink="http://www.w3.org/1999/xlink">
    <title>编组 12</title>
    <g id="页面-1" stroke="none" stroke-width="1" fill="none" fill-rule="evenodd">
        <g id="头部下拉" transform="translate(-1690.000000, -141.000000)">
            <g id="编组-12" transform="translate(1690.000000, 141.000000)">
                <g id="编组-36" transform="translate(2.000000, 3.000000)" fill-rule="nonzero">
                    <path d="M17.8563617,0 C18.7669337,0 19.5069967,0.763273596 19.5069967,1.70107349 L19.5069967,8.39511683 C19.5069967,8.86312407 19.1282612,9.24185953 18.660254,9.24185953 C18.1922467,9.24185953 17.8135113,8.86312407 17.8135113,8.39511683 L17.8135113,1.70107349 L1.65085812,1.69370857 L1.663,5.801 L7.62135381,5.80199522 C8.46318656,5.80199522 9.147901,6.48670967 9.147901,7.32854242 L9.147901,9.99620595 C9.14767782,10.8380387 8.46296338,11.5227531 7.62113063,11.5227531 L1.68,11.522 L1.69393175,15.6243444 L11.9008191,15.6317093 C12.3688263,15.6317093 12.7475618,16.0104448 12.7475618,16.478452 C12.7473386,16.9466824 12.3686031,17.3254179 11.9005959,17.3254179 L1.65063495,17.3254179 C0.740062937,17.3254179 0,16.5621443 0,15.6243444 L0,1.70107349 C0,0.763273596 0.740062937,0 1.65063495,0 L17.8563617,0 Z M7.45419243,7.49548062 L1.69616355,7.49548062 L1.69616355,9.82926775 L7.45419243,9.82926775 L7.45419243,7.49548062 Z" id="形状结合" fill="#FFFFFF"></path>
                    <path d="M12.007654,13.7431657 C12.0154019,13.6858832 12.0289767,13.6295338 12.0481272,13.575052 C12.0518559,13.565048 12.0554302,13.555456 12.0591714,13.5459484 C12.0656932,13.5288008 12.0730854,13.5116579 12.081045,13.4947582 C12.0891454,13.4781695 12.0972858,13.4622868 12.1059031,13.4467053 L12.1139862,13.4326615 L13.8505452,10.424203 C14.0855532,10.0182397 14.6039989,9.87942209 15.0075073,10.1142068 C15.412578,10.348322 15.5516187,10.8658751 15.3175035,11.2711689 L14.313,13.009 L19.6911505,13.0095134 C20.1231572,13.0095134 20.479098,13.3322229 20.5313018,13.7499709 L20.5378932,13.8562561 C20.5378932,14.3242633 20.1591577,14.7029988 19.6911505,14.7029988 L14.313,14.702 L15.3172804,16.44112 C15.531886,16.8126394 15.4331244,17.2784876 15.1029944,17.5338774 L15.0072841,17.5980821 C14.8742692,17.675079 14.7287562,17.7114573 14.5848055,17.7114573 C14.2919941,17.7114573 14.0076635,17.5594721 13.8503221,17.2880859 L12.113763,14.2796274 L12.0997487,14.2544752 C12.0908068,14.2377071 12.0824125,14.2206019 12.0745896,14.2031834 L12.0629421,14.1761942 C12.0401004,14.1204777 12.0236274,14.0633741 12.0132768,14.0057992 C12.0111532,13.9914709 12.0089807,13.9773632 12.0071641,13.9632005 C11.9976326,13.8920442 11.9978067,13.8199081 12.0068671,13.7491433 Z" id="形状结合" fill="#90ff00"></path>
                </g>
                <rect id="矩形备份-69" x="0" y="0" width="24" height="24"></rect>
            </g>
        </g>
    </g>
</svg>