<svg width="20" height="20" viewBox="0 0 20 20"  fill="none" xmlns="http://www.w3.org/2000/svg">
<path d="M11.5921 4.5H5.51316C5.24445 4.5 4.98675 4.60674 4.79675 4.79675C4.60674 4.98675 4.5 5.24445 4.5 5.51316V11.5921C4.5 11.8608 4.60674 12.1185 4.79675 12.3085C4.98675 12.4985 5.24445 12.6053 5.51316 12.6053H11.5921C11.8608 12.6053 12.1185 12.4985 12.3085 12.3085C12.4985 12.1185 12.6053 11.8608 12.6053 11.5921V5.51316C12.6053 5.24445 12.4985 4.98675 12.3085 4.79675C12.1185 4.60674 11.8608 4.5 11.5921 4.5ZM11.5921 5.36842C11.6305 5.36842 11.6673 5.38367 11.6944 5.41081C11.7216 5.43796 11.7368 5.47477 11.7368 5.51316V11.5921C11.7368 11.6111 11.7331 11.6299 11.7258 11.6475C11.7186 11.6651 11.7079 11.681 11.6944 11.6944C11.681 11.7079 11.6651 11.7186 11.6475 11.7258C11.6299 11.7331 11.6111 11.7368 11.5921 11.7368H5.51316C5.47477 11.7368 5.43796 11.7216 5.41081 11.6944C5.38367 11.6673 5.36842 11.6305 5.36842 11.5921V5.51316C5.36842 5.47477 5.38367 5.43796 5.41081 5.41081C5.43796 5.38367 5.47477 5.36842 5.51316 5.36842H11.5921ZM8.26316 13.4737C8.26316 13.3585 8.21741 13.2481 8.13598 13.1667C8.05455 13.0852 7.94411 13.0395 7.82895 13.0395C7.71379 13.0395 7.60334 13.0852 7.52191 13.1667C7.44048 13.2481 7.39474 13.3585 7.39474 13.4737V14.4868C7.39474 14.7555 7.50148 15.0132 7.69148 15.2033C7.88149 15.3933 8.13919 15.5 8.4079 15.5H14.4868C14.7555 15.5 15.0132 15.3933 15.2033 15.2033C15.3933 15.0132 15.5 14.7555 15.5 14.4868V8.40789C15.5 8.13919 15.3933 7.88149 15.2033 7.69148C15.0132 7.50148 14.7555 7.39474 14.4868 7.39474H13.4737C13.3585 7.39474 13.2481 7.44048 13.1667 7.52191C13.0852 7.60334 13.0395 7.71379 13.0395 7.82895C13.0395 7.94411 13.0852 8.05455 13.1667 8.13598C13.2481 8.21741 13.3585 8.26316 13.4737 8.26316H14.4868C14.5252 8.26316 14.562 8.27841 14.5892 8.30555C14.6163 8.33269 14.6316 8.36951 14.6316 8.40789V14.4868C14.6316 14.5252 14.6163 14.562 14.5892 14.5892C14.562 14.6163 14.5252 14.6316 14.4868 14.6316H8.4079C8.36951 14.6316 8.33269 14.6163 8.30555 14.5892C8.27841 14.562 8.26316 14.5252 8.26316 14.4868V13.4737Z" fill="#D7D7D7"/>
<path d="M11.5921 4.5H5.51316C5.24445 4.5 4.98675 4.60674 4.79675 4.79675C4.60674 4.98675 4.5 5.24445 4.5 5.51316V11.5921C4.5 11.8608 4.60674 12.1185 4.79675 12.3085C4.98675 12.4985 5.24445 12.6053 5.51316 12.6053H11.5921C11.8608 12.6053 12.1185 12.4985 12.3085 12.3085C12.4985 12.1185 12.6053 11.8608 12.6053 11.5921V5.51316C12.6053 5.24445 12.4985 4.98675 12.3085 4.79675C12.1185 4.60674 11.8608 4.5 11.5921 4.5ZM11.5921 5.36842C11.6305 5.36842 11.6673 5.38367 11.6944 5.41081C11.7216 5.43796 11.7368 5.47477 11.7368 5.51316V11.5921C11.7368 11.6111 11.7331 11.6299 11.7258 11.6475C11.7186 11.6651 11.7079 11.681 11.6944 11.6944C11.681 11.7079 11.6651 11.7186 11.6475 11.7258C11.6299 11.7331 11.6111 11.7368 11.5921 11.7368H5.51316C5.47477 11.7368 5.43796 11.7216 5.41081 11.6944C5.38367 11.6673 5.36842 11.6305 5.36842 11.5921V5.51316C5.36842 5.47477 5.38367 5.43796 5.41081 5.41081C5.43796 5.38367 5.47477 5.36842 5.51316 5.36842H11.5921ZM8.26316 13.4737C8.26316 13.3585 8.21741 13.2481 8.13598 13.1667C8.05455 13.0852 7.94411 13.0395 7.82895 13.0395C7.71379 13.0395 7.60334 13.0852 7.52191 13.1667C7.44048 13.2481 7.39474 13.3585 7.39474 13.4737V14.4868C7.39474 14.7555 7.50148 15.0132 7.69148 15.2033C7.88149 15.3933 8.13919 15.5 8.4079 15.5H14.4868C14.7555 15.5 15.0132 15.3933 15.2033 15.2033C15.3933 15.0132 15.5 14.7555 15.5 14.4868V8.40789C15.5 8.13919 15.3933 7.88149 15.2033 7.69148C15.0132 7.50148 14.7555 7.39474 14.4868 7.39474H13.4737C13.3585 7.39474 13.2481 7.44048 13.1667 7.52191C13.0852 7.60334 13.0395 7.71379 13.0395 7.82895C13.0395 7.94411 13.0852 8.05455 13.1667 8.13598C13.2481 8.21741 13.3585 8.26316 13.4737 8.26316H14.4868C14.5252 8.26316 14.562 8.27841 14.5892 8.30555C14.6163 8.33269 14.6316 8.36951 14.6316 8.40789V14.4868C14.6316 14.5252 14.6163 14.562 14.5892 14.5892C14.562 14.6163 14.5252 14.6316 14.4868 14.6316H8.4079C8.36951 14.6316 8.33269 14.6163 8.30555 14.5892C8.27841 14.562 8.26316 14.5252 8.26316 14.4868V13.4737Z" stroke="#1B1B1B"/>
</svg>
